<ttFont>
<head>
    <!-- Most of this table will be recalculated by the compiler -->
    <tableVersion value="1.0"/>
    <fontRevision value="2.0"/>
    <checkSumAdjustment value="0xf4304ef3"/>
    <magicNumber value="0x5f0f3cf5"/>
    <flags value="00000000 00000011"/>
    <unitsPerEm value="2000"/>
    <created value="Fri Dec 23 10:14:22 2016"/>
    <modified value="Mon Oct  8 20:06:31 2018"/>
    <xMin value="-380"/>
    <yMin value="-520"/>
    <xMax value="3482"/>
    <yMax value="2330"/>
    <macStyle value="00000000 00000000"/>
    <lowestRecPPEM value="6"/>
    <fontDirectionHint value="2"/>
    <indexToLocFormat value="0"/>
    <glyphDataFormat value="0"/>
  </head>
    <TTGlyph name=".notdef" xMin="100" yMin="-440" xMax="900" yMax="1616">
      <contour>
        <pt x="100" y="-440" on="1"/>
        <pt x="900" y="-440" on="1"/>
        <pt x="900" y="1616" on="1"/>
        <pt x="100" y="1616" on="1"/>
      </contour>
      <contour>
        <pt x="200" y="-340" on="1"/>
        <pt x="200" y="1516" on="1"/>
        <pt x="800" y="1516" on="1"/>
        <pt x="800" y="-340" on="1"/>
      </contour>
    </TTGlyph>
    <TTGlyph name="A" xMin="16" yMin="0" xMax="1744" yMax="1480">
      <contour>
        <pt x="16" y="0" on="1"/>
        <pt x="476" y="0" on="1"/>
        <pt x="586" y="334" on="1"/>
        <pt x="1170" y="334" on="1"/>
        <pt x="1280" y="0" on="1"/>
        <pt x="1744" y="0" on="1"/>
        <pt x="1224" y="1480" on="1"/>
        <pt x="536" y="1480" on="1"/>
      </contour>
      <contour>
        <pt x="701" y="684" on="1"/>
        <pt x="878" y="1223" on="1"/>
        <pt x="1055" y="684" on="1"/>
      </contour>
    </TTGlyph>
    <TTGlyph name="AE" xMin="16" yMin="0" xMax="2296" yMax="1480">
      <contour>
        <pt x="16" y="0" on="1"/>
        <pt x="476" y="0" on="1"/>
        <pt x="585" y="334" on="1"/>
        <pt x="1087" y="334" on="1"/>
        <pt x="1116" y="0" on="1"/>
        <pt x="2296" y="0" on="1"/>
        <pt x="2296" y="350" on="1"/>
        <pt x="1562" y="350" on="1"/>
        <pt x="1539" y="580" on="1"/>
        <pt x="2180" y="580" on="1"/>
        <pt x="2180" y="930" on="1"/>
        <pt x="1504" y="930" on="1"/>
        <pt x="1484" y="1130" on="1"/>
        <pt x="2286" y="1130" on="1"/>
        <pt x="2286" y="1480" on="1"/>
        <pt x="536" y="1480" on="1"/>
      </contour>
      <contour>
        <pt x="846" y="1130" on="1"/>
        <pt x="1018" y="1130" on="1"/>
        <pt x="1057" y="684" on="1"/>
        <pt x="700" y="684" on="1"/>
      </contour>
    </TTGlyph>
    <TTGlyph name="AEacute" xMin="16" yMin="0" xMax="2296" yMax="1902">
      <component glyphName="AE" x="0" y="0" flags="0x204"/>
      <component glyphName="acutecomb.case" x="636" y="0" flags="0x4"/>
    </TTGlyph>
    <TTGlyph name="Aacute" xMin="16" yMin="0" xMax="1744" yMax="1902">
      <component glyphName="A" x="0" y="0" flags="0x204"/>
      <component glyphName="acutecomb.case" x="278" y="0" flags="0x4"/>
    </TTGlyph>
    <TTGlyph name="Abreve" xMin="16" yMin="0" xMax="1744" yMax="1902">
      <component glyphName="A" x="0" y="0" flags="0x204"/>
      <component glyphName="brevecomb.case" x="278" y="0" flags="0x4"/>
    </TTGlyph>
    <TTGlyph name="Abreveacute" xMin="16" yMin="0" xMax="1744" yMax="2064">
      <component glyphName="A" x="0" y="0" flags="0x204"/>
      <component glyphName="brevecomb_acutecomb.case" x="278" y="0" flags="0x4"/>
    </TTGlyph>
    <TTGlyph name="Abrevedotbelow" xMin="16" yMin="-464" xMax="1744" yMax="1902">
      <component glyphName="A" x="0" y="0" flags="0x204"/>
      <component glyphName="dotbelowcomb.case" x="280" y="0" flags="0x4"/>
      <component glyphName="brevecomb.case" x="278" y="0" flags="0x4"/>
    </TTGlyph>
    <TTGlyph name="Abrevegrave" xMin="16" yMin="0" xMax="1744" yMax="2064">
      <component glyphName="A" x="0" y="0" flags="0x204"/>
      <component glyphName="brevecomb_gravecomb.case" x="278" y="0" flags="0x4"/>
    </TTGlyph>
    <TTGlyph name="Abrevehookabove" xMin="16" yMin="0" xMax="1744" yMax="2124">
      <component glyphName="A" x="0" y="0" flags="0x204"/>
      <component glyphName="brevecomb_hookabovecomb.case" x="278" y="0" flags="0x4"/>
    </TTGlyph>
    <TTGlyph name="Abrevetilde" xMin="16" yMin="0" xMax="1744" yMax="2132">
      <component glyphName="A" x="0" y="0" flags="0x204"/>
      <component glyphName="brevecomb_tildecomb.case" x="278" y="0" flags="0x4"/>
    </TTGlyph>
    <TTGlyph name="Acircumflex" xMin="16" yMin="0" xMax="1744" yMax="1902">
      <component glyphName="A" x="0" y="0" flags="0x204"/>
      <component glyphName="circumflexcomb.case" x="278" y="0" flags="0x4"/>
    </TTGlyph>
    <TTGlyph name="Acircumflexacute" xMin="16" yMin="0" xMax="1744" yMax="2064">
      <component glyphName="A" x="0" y="0" flags="0x204"/>
      <component glyphName="circumflexcomb_acutecomb.case" x="278" y="0" flags="0x4"/>
    </TTGlyph>
    <TTGlyph name="Acircumflexdotbelow" xMin="16" yMin="-464" xMax="1744" yMax="1902">
      <component glyphName="A" x="0" y="0" flags="0x204"/>
      <component glyphName="dotbelowcomb.case" x="280" y="0" flags="0x4"/>
      <component glyphName="circumflexcomb.case" x="278" y="0" flags="0x4"/>
    </TTGlyph>
    <TTGlyph name="Acircumflexgrave" xMin="16" yMin="0" xMax="1744" yMax="2064">
      <component glyphName="A" x="0" y="0" flags="0x204"/>
      <component glyphName="circumflexcomb_gravecomb.case" x="278" y="0" flags="0x4"/>
    </TTGlyph>
    <TTGlyph name="Acircumflexhookabove" xMin="16" yMin="0" xMax="1744" yMax="2124">
      <component glyphName="A" x="0" y="0" flags="0x204"/>
      <component glyphName="circumflexcomb_hookabovecomb.case" x="278" y="0" flags="0x4"/>
    </TTGlyph>
    <TTGlyph name="Acircumflextilde" xMin="16" yMin="0" xMax="1744" yMax="2132">
      <component glyphName="A" x="0" y="0" flags="0x204"/>
      <component glyphName="circumflexcomb_tildecomb.case" x="278" y="0" flags="0x4"/>
    </TTGlyph>
    <TTGlyph name="Adblgrave" xMin="16" yMin="0" xMax="1744" yMax="1902">
      <component glyphName="A" x="0" y="0" flags="0x204"/>
      <component glyphName="dblgravecomb.case" x="278" y="0" flags="0x4"/>
    </TTGlyph>
    <TTGlyph name="Adieresis" xMin="16" yMin="0" xMax="1744" yMax="1930">
      <component glyphName="A" x="0" y="0" flags="0x204"/>
      <component glyphName="dieresiscomb.case" x="278" y="0" flags="0x4"/>
    </TTGlyph>
    <TTGlyph name="Adotbelow" xMin="16" yMin="-464" xMax="1744" yMax="1480">
      <component glyphName="A" x="0" y="0" flags="0x204"/>
      <component glyphName="dotbelowcomb.case" x="280" y="0" flags="0x4"/>
    </TTGlyph>
    <TTGlyph name="Agrave" xMin="16" yMin="0" xMax="1744" yMax="1902">
      <component glyphName="A" x="0" y="0" flags="0x204"/>
      <component glyphName="gravecomb.case" x="278" y="0" flags="0x4"/>
    </TTGlyph>
    <TTGlyph name="Ahookabove" xMin="16" yMin="0" xMax="1744" yMax="1930">
      <component glyphName="A" x="0" y="0" flags="0x204"/>
      <component glyphName="hookabovecomb.case" x="278" y="0" flags="0x4"/>
    </TTGlyph>
    <TTGlyph name="Ainvertedbreve" xMin="16" yMin="0" xMax="1744" yMax="1902">
      <component glyphName="A" x="0" y="0" flags="0x204"/>
      <component glyphName="breveinvertedcomb.case" x="278" y="0" flags="0x4"/>
    </TTGlyph>
    <TTGlyph name="Amacron" xMin="16" yMin="0" xMax="1744" yMax="1870">
      <component glyphName="A" x="0" y="0" flags="0x204"/>
      <component glyphName="macroncomb.case" x="278" y="0" flags="0x4"/>
    </TTGlyph>
    <TTGlyph name="Aogonek" xMin="16" yMin="-460" xMax="1778" yMax="1480">
      <component glyphName="A" x="0" y="0" flags="0x204"/>
      <component glyphName="ogonekcomb.case" x="1228" y="0" flags="0x4"/>
    </TTGlyph>
    <TTGlyph name="Aring" xMin="16" yMin="0" xMax="1744" yMax="2010">
      <component glyphName="A" x="0" y="0" flags="0x204"/>
      <component glyphName="ringcomb.case" x="278" y="0" flags="0x4"/>
    </TTGlyph>
    <TTGlyph name="Aringacute" xMin="16" yMin="0" xMax="1744" yMax="2136">
      <component glyphName="A" x="0" y="0" flags="0x204"/>
      <component glyphName="ringcomb_acutecomb.case" x="278" y="0" flags="0x4"/>
    </TTGlyph>
    <TTGlyph name="Atilde" xMin="16" yMin="0" xMax="1744" yMax="1902">
      <component glyphName="A" x="0" y="0" flags="0x204"/>
      <component glyphName="tildecomb.case" x="278" y="0" flags="0x4"/>
    </TTGlyph>
    <TTGlyph name="B" xMin="130" yMin="-20" xMax="1468" yMax="1500">
      <contour>
        <pt x="622" y="-20" on="1"/>
        <pt x="865" y="-20" on="0"/>
        <pt x="1191" y="43" on="0"/>
        <pt x="1385" y="161" on="0"/>
        <pt x="1468" y="327" on="0"/>
        <pt x="1468" y="430" on="1"/>
        <pt x="1468" y="576" on="0"/>
        <pt x="1317" y="738" on="0"/>
        <pt x="1206" y="763" on="1"/>
        <pt x="1303" y="793" on="0"/>
        <pt x="1430" y="957" on="0"/>
        <pt x="1430" y="1070" on="1"/>
        <pt x="1430" y="1207" on="0"/>
        <pt x="1284" y="1399" on="0"/>
        <pt x="966" y="1500" on="0"/>
        <pt x="708" y="1500" on="1"/>
        <pt x="617" y="1500" on="0"/>
        <pt x="409" y="1482" on="0"/>
        <pt x="209" y="1451" on="0"/>
        <pt x="130" y="1432" on="1"/>
        <pt x="130" y="12" on="1"/>
        <pt x="199" y="3" on="0"/>
        <pt x="378" y="-11" on="0"/>
        <pt x="555" y="-20" on="0"/>
      </contour>
      <contour>
        <pt x="762" y="1180" on="1"/>
        <pt x="891" y="1180" on="0"/>
        <pt x="988" y="1115" on="0"/>
        <pt x="988" y="1050" on="1"/>
        <pt x="988" y="987" on="0"/>
        <pt x="897" y="918" on="0"/>
        <pt x="780" y="918" on="1"/>
        <pt x="594" y="918" on="1"/>
        <pt x="594" y="1162" on="1"/>
        <pt x="632" y="1170" on="0"/>
        <pt x="720" y="1180" on="0"/>
      </contour>
      <contour>
        <pt x="754" y="300" on="1"/>
        <pt x="717" y="300" on="0"/>
        <pt x="641" y="302" on="0"/>
        <pt x="594" y="306" on="1"/>
        <pt x="594" y="592" on="1"/>
        <pt x="820" y="592" on="1"/>
        <pt x="948" y="592" on="0"/>
        <pt x="1040" y="521" on="0"/>
        <pt x="1040" y="444" on="1"/>
        <pt x="1040" y="398" on="0"/>
        <pt x="992" y="334" on="0"/>
        <pt x="868" y="300" on="0"/>
      </contour>
    </TTGlyph>
    <TTGlyph name="C" xMin="84" yMin="-20" xMax="1416" yMax="1500">
      <contour>
        <pt x="1048" y="-20" on="1"/>
        <pt x="1144" y="-20" on="0"/>
        <pt x="1335" y="2" on="0"/>
        <pt x="1416" y="20" on="1"/>
        <pt x="1416" y="396" on="1"/>
        <pt x="1343" y="381" on="0"/>
        <pt x="1171" y="360" on="0"/>
        <pt x="1078" y="360" on="1"/>
        <pt x="816" y="360" on="0"/>
        <pt x="582" y="557" on="0"/>
        <pt x="582" y="740" on="1"/>
        <pt x="582" y="923" on="0"/>
        <pt x="821" y="1120" on="0"/>
        <pt x="1098" y="1120" on="1"/>
        <pt x="1185" y="1120" on="0"/>
        <pt x="1343" y="1106" on="0"/>
        <pt x="1416" y="1092" on="1"/>
        <pt x="1416" y="1468" on="1"/>
        <pt x="1331" y="1485" on="0"/>
        <pt x="1153" y="1500" on="0"/>
        <pt x="1058" y="1500" on="1"/>
        <pt x="736" y="1500" on="0"/>
        <pt x="303" y="1312" on="0"/>
        <pt x="84" y="969" on="0"/>
        <pt x="84" y="736" on="1"/>
        <pt x="84" y="366" on="0"/>
        <pt x="568" y="-20" on="0"/>
      </contour>
    </TTGlyph>
    <TTGlyph name="Cacute" xMin="84" yMin="-20" xMax="1416" yMax="1902">
      <component glyphName="C" x="0" y="0" flags="0x204"/>
      <component glyphName="acutecomb.case" x="280" y="0" flags="0x4"/>
    </TTGlyph>
    <TTGlyph name="Ccaron" xMin="84" yMin="-20" xMax="1416" yMax="1902">
      <component glyphName="C" x="0" y="0" flags="0x204"/>
      <component glyphName="caroncomb.case" x="280" y="0" flags="0x4"/>
    </TTGlyph>
    <TTGlyph name="Ccedilla" xMin="84" yMin="-460" xMax="1416" yMax="1500">
      <component glyphName="C" x="0" y="0" flags="0x204"/>
      <component glyphName="cedillacomb.case" x="280" y="0" flags="0x4"/>
    </TTGlyph>
    <TTGlyph name="Ccedillaacute" xMin="84" yMin="-460" xMax="1416" yMax="1902">
      <component glyphName="C" x="0" y="0" flags="0x204"/>
      <component glyphName="cedillacomb.case" x="280" y="0" flags="0x4"/>
      <component glyphName="acutecomb.case" x="280" y="0" flags="0x4"/>
    </TTGlyph>
    <TTGlyph name="Ccircumflex" xMin="84" yMin="-20" xMax="1416" yMax="1902">
      <component glyphName="C" x="0" y="0" flags="0x204"/>
      <component glyphName="circumflexcomb.case" x="280" y="0" flags="0x4"/>
    </TTGlyph>
    <TTGlyph name="Cdotaccent" xMin="84" yMin="-20" xMax="1416" yMax="1930">
      <component glyphName="C" x="0" y="0" flags="0x204"/>
      <component glyphName="dotaccentcomb.case" x="280" y="0" flags="0x4"/>
    </TTGlyph>
    <TTGlyph name="D" xMin="130" yMin="-14" xMax="1716" yMax="1494">
      <contour>
        <pt x="632" y="-14" on="1"/>
        <pt x="997" y="-14" on="0"/>
        <pt x="1478" y="137" on="0"/>
        <pt x="1716" y="469" on="0"/>
        <pt x="1716" y="740" on="1"/>
        <pt x="1716" y="1129" on="0"/>
        <pt x="1220" y="1494" on="0"/>
        <pt x="740" y="1494" on="1"/>
        <pt x="640" y="1494" on="0"/>
        <pt x="419" y="1479" on="0"/>
        <pt x="211" y="1451" on="0"/>
        <pt x="130" y="1432" on="1"/>
        <pt x="130" y="14" on="1"/>
        <pt x="210" y="4" on="0"/>
        <pt x="390" y="-8" on="0"/>
        <pt x="563" y="-14" on="0"/>
      </contour>
      <contour>
        <pt x="762" y="356" on="1"/>
        <pt x="719" y="356" on="0"/>
        <pt x="642" y="357" on="0"/>
        <pt x="606" y="360" on="1"/>
        <pt x="606" y="1112" on="1"/>
        <pt x="639" y="1118" on="0"/>
        <pt x="728" y="1126" on="0"/>
        <pt x="762" y="1126" on="1"/>
        <pt x="1002" y="1126" on="0"/>
        <pt x="1232" y="944" on="0"/>
        <pt x="1232" y="744" on="1"/>
        <pt x="1232" y="539" on="0"/>
        <pt x="1010" y="356" on="0"/>
      </contour>
    </TTGlyph>
    <TTGlyph name="DZ" xMin="130" yMin="-14" xMax="3140" yMax="1494">
      <component glyphName="D" x="0" y="0" flags="0x4"/>
      <component glyphName="Z" x="1742" y="0" flags="0x4"/>
    </TTGlyph>
    <TTGlyph name="DZcaron" xMin="130" yMin="-14" xMax="3140" yMax="1902">
      <component glyphName="DZ" x="0" y="0" flags="0x204"/>
      <component glyphName="caroncomb.case" x="1884" y="0" flags="0x4"/>
    </TTGlyph>
    <TTGlyph name="Dcaron" xMin="130" yMin="-14" xMax="1716" yMax="1902">
      <component glyphName="D" x="0" y="0" flags="0x204"/>
      <component glyphName="caroncomb.case" x="174" y="0" flags="0x4"/>
    </TTGlyph>
    <TTGlyph name="Dcroat" xMin="8" yMin="-14" xMax="1716" yMax="1494">
      <component glyphName="Eth" x="0" y="0" flags="0x204"/>
    </TTGlyph>
    <TTGlyph name="Ddotbelow" xMin="130" yMin="-464" xMax="1716" yMax="1494">
      <component glyphName="D" x="0" y="0" flags="0x204"/>
      <component glyphName="dotbelowcomb.case" x="194" y="0" flags="0x4"/>
    </TTGlyph>
    <TTGlyph name="Delta" xMin="16" yMin="0" xMax="1744" yMax="1480">
      <contour>
        <pt x="16" y="0" on="1"/>
        <pt x="1744" y="0" on="1"/>
        <pt x="1224" y="1480" on="1"/>
        <pt x="536" y="1480" on="1"/>
      </contour>
      <contour>
        <pt x="592" y="350" on="1"/>
        <pt x="878" y="1223" on="1"/>
        <pt x="1164" y="350" on="1"/>
      </contour>
    </TTGlyph>
    <TTGlyph name="Delta.tf" xMin="14" yMin="0" xMax="1426" yMax="1480">
      <contour>
        <pt x="14" y="0" on="1"/>
        <pt x="1426" y="0" on="1"/>
        <pt x="1002" y="1480" on="1"/>
        <pt x="438" y="1480" on="1"/>
      </contour>
      <contour>
        <pt x="523" y="350" on="1"/>
        <pt x="718" y="1091" on="1"/>
        <pt x="913" y="350" on="1"/>
      </contour>
    </TTGlyph>
    <TTGlyph name="Dlinebelow" xMin="130" yMin="-398" xMax="1716" yMax="1494">
      <component glyphName="D" x="0" y="0" flags="0x204"/>
      <component glyphName="macronbelowcomb.case" x="194" y="0" flags="0x4"/>
    </TTGlyph>
    <TTGlyph name="Dz" xMin="130" yMin="-14" xMax="3006" yMax="1494">
      <component glyphName="D" x="0" y="0" flags="0x4"/>
      <component glyphName="z" x="1800" y="0" flags="0x4"/>
    </TTGlyph>
    <TTGlyph name="Dzcaron" xMin="130" yMin="-14" xMax="3006" yMax="1582">
      <component glyphName="Dz" x="0" y="0" flags="0x204"/>
      <component glyphName="caroncomb.case" x="1850" y="-320" flags="0x4"/>
    </TTGlyph>
    <TTGlyph name="E" xMin="130" yMin="0" xMax="1412" yMax="1480">
      <contour>
        <pt x="130" y="0" on="1"/>
        <pt x="1412" y="0" on="1"/>
        <pt x="1412" y="350" on="1"/>
        <pt x="600" y="350" on="1"/>
        <pt x="600" y="580" on="1"/>
        <pt x="1296" y="580" on="1"/>
        <pt x="1296" y="930" on="1"/>
        <pt x="600" y="930" on="1"/>
        <pt x="600" y="1130" on="1"/>
        <pt x="1402" y="1130" on="1"/>
        <pt x="1402" y="1480" on="1"/>
        <pt x="130" y="1480" on="1"/>
      </contour>
    </TTGlyph>
    <TTGlyph name="Eacute" xMin="130" yMin="0" xMax="1412" yMax="1902">
      <component glyphName="E" x="0" y="0" flags="0x204"/>
      <component glyphName="acutecomb.case" x="188" y="0" flags="0x4"/>
    </TTGlyph>
    <TTGlyph name="Ebreve" xMin="130" yMin="0" xMax="1412" yMax="1902">
      <component glyphName="E" x="0" y="0" flags="0x204"/>
      <component glyphName="brevecomb.case" x="188" y="0" flags="0x4"/>
    </TTGlyph>
    <TTGlyph name="Ecaron" xMin="130" yMin="0" xMax="1412" yMax="1902">
      <component glyphName="E" x="0" y="0" flags="0x204"/>
      <component glyphName="caroncomb.case" x="188" y="0" flags="0x4"/>
    </TTGlyph>
    <TTGlyph name="Ecedillabreve" xMin="130" yMin="-460" xMax="1412" yMax="1902">
      <component glyphName="E" x="0" y="0" flags="0x204"/>
      <component glyphName="cedillacomb.case" x="188" y="0" flags="0x4"/>
      <component glyphName="brevecomb.case" x="188" y="0" flags="0x4"/>
    </TTGlyph>
    <TTGlyph name="Ecircumflex" xMin="130" yMin="0" xMax="1412" yMax="1902">
      <component glyphName="E" x="0" y="0" flags="0x204"/>
      <component glyphName="circumflexcomb.case" x="188" y="0" flags="0x4"/>
    </TTGlyph>
    <TTGlyph name="Ecircumflexacute" xMin="130" yMin="0" xMax="1498" yMax="2064">
      <component glyphName="E" x="0" y="0" flags="0x204"/>
      <component glyphName="circumflexcomb_acutecomb.case" x="188" y="0" flags="0x4"/>
    </TTGlyph>
    <TTGlyph name="Ecircumflexdotbelow" xMin="130" yMin="-464" xMax="1412" yMax="1902">
      <component glyphName="E" x="0" y="0" flags="0x204"/>
      <component glyphName="dotbelowcomb.case" x="188" y="0" flags="0x4"/>
      <component glyphName="circumflexcomb.case" x="188" y="0" flags="0x4"/>
    </TTGlyph>
    <TTGlyph name="Ecircumflexgrave" xMin="130" yMin="0" xMax="1412" yMax="2064">
      <component glyphName="E" x="0" y="0" flags="0x204"/>
      <component glyphName="circumflexcomb_gravecomb.case" x="188" y="0" flags="0x4"/>
    </TTGlyph>
    <TTGlyph name="Ecircumflexhookabove" xMin="130" yMin="0" xMax="1482" yMax="2124">
      <component glyphName="E" x="0" y="0" flags="0x204"/>
      <component glyphName="circumflexcomb_hookabovecomb.case" x="188" y="0" flags="0x4"/>
    </TTGlyph>
    <TTGlyph name="Ecircumflextilde" xMin="130" yMin="0" xMax="1412" yMax="2132">
      <component glyphName="E" x="0" y="0" flags="0x204"/>
      <component glyphName="circumflexcomb_tildecomb.case" x="188" y="0" flags="0x4"/>
    </TTGlyph>
    <TTGlyph name="Edblgrave" xMin="130" yMin="0" xMax="1412" yMax="1902">
      <component glyphName="E" x="0" y="0" flags="0x204"/>
      <component glyphName="dblgravecomb.case" x="188" y="0" flags="0x4"/>
    </TTGlyph>
    <TTGlyph name="Edieresis" xMin="130" yMin="0" xMax="1412" yMax="1930">
      <component glyphName="E" x="0" y="0" flags="0x204"/>
      <component glyphName="dieresiscomb.case" x="188" y="0" flags="0x4"/>
    </TTGlyph>
    <TTGlyph name="Edotaccent" xMin="130" yMin="0" xMax="1412" yMax="1930">
      <component glyphName="E" x="0" y="0" flags="0x204"/>
      <component glyphName="dotaccentcomb.case" x="188" y="0" flags="0x4"/>
    </TTGlyph>
    <TTGlyph name="Edotbelow" xMin="130" yMin="-464" xMax="1412" yMax="1480">
      <component glyphName="E" x="0" y="0" flags="0x204"/>
      <component glyphName="dotbelowcomb.case" x="188" y="0" flags="0x4"/>
    </TTGlyph>
    <TTGlyph name="Egrave" xMin="130" yMin="0" xMax="1412" yMax="1902">
      <component glyphName="E" x="0" y="0" flags="0x204"/>
      <component glyphName="gravecomb.case" x="188" y="0" flags="0x4"/>
    </TTGlyph>
    <TTGlyph name="Ehookabove" xMin="130" yMin="0" xMax="1412" yMax="1930">
      <component glyphName="E" x="0" y="0" flags="0x204"/>
      <component glyphName="hookabovecomb.case" x="188" y="0" flags="0x4"/>
    </TTGlyph>
    <TTGlyph name="Einvertedbreve" xMin="130" yMin="0" xMax="1412" yMax="1902">
      <component glyphName="E" x="0" y="0" flags="0x204"/>
      <component glyphName="breveinvertedcomb.case" x="188" y="0" flags="0x4"/>
    </TTGlyph>
    <TTGlyph name="Emacron" xMin="130" yMin="0" xMax="1412" yMax="1870">
      <component glyphName="E" x="0" y="0" flags="0x204"/>
      <component glyphName="macroncomb.case" x="188" y="0" flags="0x4"/>
    </TTGlyph>
    <TTGlyph name="Emacronacute" xMin="130" yMin="0" xMax="1412" yMax="2218">
      <component glyphName="E" x="0" y="0" flags="0x204"/>
      <component glyphName="macroncomb_acutecomb.case" x="188" y="0" flags="0x4"/>
    </TTGlyph>
    <TTGlyph name="Emacrongrave" xMin="130" yMin="0" xMax="1412" yMax="2218">
      <component glyphName="E" x="0" y="0" flags="0x204"/>
      <component glyphName="macroncomb_gravecomb.case" x="188" y="0" flags="0x4"/>
    </TTGlyph>
    <TTGlyph name="Eng" xMin="130" yMin="-476" xMax="1674" yMax="1480">
      <contour>
        <pt x="1352" y="-476" on="1"/>
        <pt x="1472" y="-367" on="0"/>
        <pt x="1613" y="-150" on="0"/>
        <pt x="1674" y="91" on="0"/>
        <pt x="1674" y="236" on="1"/>
        <pt x="1674" y="1480" on="1"/>
        <pt x="1226" y="1480" on="1"/>
        <pt x="1226" y="646" on="1"/>
        <pt x="606" y="1480" on="1"/>
        <pt x="130" y="1480" on="1"/>
        <pt x="130" y="0" on="1"/>
        <pt x="578" y="0" on="1"/>
        <pt x="578" y="835" on="1"/>
        <pt x="1207" y="-9" on="1"/>
        <pt x="1189" y="-88" on="0"/>
        <pt x="1118" y="-219" on="0"/>
        <pt x="1064" y="-284" on="1"/>
      </contour>
    </TTGlyph>
    <TTGlyph name="Eogonek" xMin="130" yMin="-460" xMax="1412" yMax="1480">
      <component glyphName="E" x="0" y="0" flags="0x204"/>
      <component glyphName="ogonekcomb.case" x="796" y="0" flags="0x4"/>
    </TTGlyph>
    <TTGlyph name="Eth" xMin="8" yMin="-14" xMax="1716" yMax="1494">
      <component glyphName="D" x="0" y="0" flags="0x204"/>
      <component glyphName="strokeshortcomb.D" x="-198" y="-338" flags="0x4"/>
    </TTGlyph>
    <TTGlyph name="Etilde" xMin="130" yMin="0" xMax="1412" yMax="1902">
      <component glyphName="E" x="0" y="0" flags="0x204"/>
      <component glyphName="tildecomb.case" x="188" y="0" flags="0x4"/>
    </TTGlyph>
    <TTGlyph name="F" xMin="130" yMin="0" xMax="1402" yMax="1480">
      <contour>
        <pt x="130" y="0" on="1"/>
        <pt x="606" y="0" on="1"/>
        <pt x="606" y="526" on="1"/>
        <pt x="1290" y="526" on="1"/>
        <pt x="1290" y="886" on="1"/>
        <pt x="606" y="886" on="1"/>
        <pt x="606" y="1120" on="1"/>
        <pt x="1402" y="1120" on="1"/>
        <pt x="1402" y="1480" on="1"/>
        <pt x="130" y="1480" on="1"/>
      </contour>
    </TTGlyph>
    <TTGlyph name="G" xMin="84" yMin="-20" xMax="1540" yMax="1500">
      <contour>
        <pt x="1096" y="-20" on="1"/>
        <pt x="1210" y="-20" on="0"/>
        <pt x="1431" y="2" on="0"/>
        <pt x="1540" y="20" on="1"/>
        <pt x="1540" y="720" on="1"/>
        <pt x="1098" y="720" on="1"/>
        <pt x="1098" y="356" on="1"/>
        <pt x="1083" y="356" on="0"/>
        <pt x="1068" y="356" on="1"/>
        <pt x="810" y="356" on="0"/>
        <pt x="578" y="553" on="0"/>
        <pt x="578" y="724" on="1"/>
        <pt x="578" y="853" on="0"/>
        <pt x="690" y="1029" on="0"/>
        <pt x="943" y="1119" on="0"/>
        <pt x="1156" y="1120" on="1"/>
        <pt x="1330" y="1120" on="0"/>
        <pt x="1482" y="1092" on="1"/>
        <pt x="1482" y="1468" on="1"/>
        <pt x="1395" y="1485" on="0"/>
        <pt x="1203" y="1500" on="0"/>
        <pt x="1120" y="1500" on="1"/>
        <pt x="769" y="1500" on="0"/>
        <pt x="310" y="1312" on="0"/>
        <pt x="84" y="967" on="0"/>
        <pt x="84" y="732" on="1"/>
        <pt x="84" y="365" on="0"/>
        <pt x="580" y="-20" on="0"/>
      </contour>
    </TTGlyph>
    <TTGlyph name="Gacute" xMin="84" yMin="-20" xMax="1540" yMax="1902">
      <component glyphName="G" x="0" y="0" flags="0x204"/>
      <component glyphName="acutecomb.case" x="340" y="0" flags="0x4"/>
    </TTGlyph>
    <TTGlyph name="Gbreve" xMin="84" yMin="-20" xMax="1540" yMax="1902">
      <component glyphName="G" x="0" y="0" flags="0x204"/>
      <component glyphName="brevecomb.case" x="340" y="0" flags="0x4"/>
    </TTGlyph>
    <TTGlyph name="Gcaron" xMin="84" yMin="-20" xMax="1540" yMax="1902">
      <component glyphName="G" x="0" y="0" flags="0x204"/>
      <component glyphName="caroncomb.case" x="340" y="0" flags="0x4"/>
    </TTGlyph>
    <TTGlyph name="Gcircumflex" xMin="84" yMin="-20" xMax="1540" yMax="1902">
      <component glyphName="G" x="0" y="0" flags="0x204"/>
      <component glyphName="circumflexcomb.case" x="340" y="0" flags="0x4"/>
    </TTGlyph>
    <TTGlyph name="Gcommaaccent" xMin="84" yMin="-520" xMax="1540" yMax="1500">
      <component glyphName="G" x="0" y="0" flags="0x204"/>
      <component glyphName="commaaccentcomb.case" x="340" y="0" flags="0x4"/>
    </TTGlyph>
    <TTGlyph name="Gdotaccent" xMin="84" yMin="-20" xMax="1540" yMax="1930">
      <component glyphName="G" x="0" y="0" flags="0x204"/>
      <component glyphName="dotaccentcomb.case" x="340" y="0" flags="0x4"/>
    </TTGlyph>
    <TTGlyph name="Germandbls" xMin="130" yMin="-20" xMax="2082" yMax="1500">
      <contour>
        <pt x="130" y="0" on="1"/>
        <pt x="606" y="0" on="1"/>
        <pt x="606" y="902" on="1"/>
        <pt x="606" y="1012" on="0"/>
        <pt x="717" y="1136" on="0"/>
        <pt x="828" y="1136" on="1"/>
        <pt x="867" y="1136" on="0"/>
        <pt x="903" y="1127" on="1"/>
        <pt x="892" y="1077" on="0"/>
        <pt x="892" y="1020" on="1"/>
        <pt x="892" y="842" on="0"/>
        <pt x="1100" y="623" on="0"/>
        <pt x="1344" y="572" on="1"/>
        <pt x="1480" y="544" on="1"/>
        <pt x="1569" y="526" on="0"/>
        <pt x="1624" y="481" on="0"/>
        <pt x="1624" y="442" on="1"/>
        <pt x="1624" y="397" on="0"/>
        <pt x="1539" y="342" on="0"/>
        <pt x="1402" y="342" on="1"/>
        <pt x="1342" y="342" on="0"/>
        <pt x="1173" y="359" on="0"/>
        <pt x="999" y="390" on="0"/>
        <pt x="932" y="412" on="1"/>
        <pt x="932" y="44" on="1"/>
        <pt x="1034" y="16" on="0"/>
        <pt x="1271" y="-20" on="0"/>
        <pt x="1406" y="-20" on="1"/>
        <pt x="1617" y="-20" on="0"/>
        <pt x="1920" y="98" on="0"/>
        <pt x="2082" y="316" on="0"/>
        <pt x="2082" y="466" on="1"/>
        <pt x="2082" y="639" on="0"/>
        <pt x="1867" y="863" on="0"/>
        <pt x="1600" y="918" on="1"/>
        <pt x="1464" y="946" on="1"/>
        <pt x="1395" y="960" on="0"/>
        <pt x="1350" y="1002" on="0"/>
        <pt x="1350" y="1036" on="1"/>
        <pt x="1350" y="1065" on="0"/>
        <pt x="1396" y="1111" on="0"/>
        <pt x="1519" y="1138" on="0"/>
        <pt x="1634" y="1138" on="1"/>
        <pt x="1724" y="1138" on="0"/>
        <pt x="1928" y="1111" on="0"/>
        <pt x="2000" y="1090" on="1"/>
        <pt x="2000" y="1458" on="1"/>
        <pt x="1925" y="1476" on="0"/>
        <pt x="1725" y="1500" on="0"/>
        <pt x="1612" y="1500" on="1"/>
        <pt x="1348" y="1500" on="0"/>
        <pt x="1178" y="1433" on="1"/>
        <pt x="1020" y="1500" on="0"/>
        <pt x="828" y="1500" on="1"/>
        <pt x="588" y="1500" on="0"/>
        <pt x="279" y="1340" on="0"/>
        <pt x="130" y="1046" on="0"/>
        <pt x="130" y="846" on="1"/>
      </contour>
    </TTGlyph>
    <TTGlyph name="Gmacron" xMin="84" yMin="-20" xMax="1540" yMax="1870">
      <component glyphName="G" x="0" y="0" flags="0x204"/>
      <component glyphName="macroncomb.case" x="340" y="0" flags="0x4"/>
    </TTGlyph>
    <TTGlyph name="H" xMin="130" yMin="0" xMax="1664" yMax="1480">
      <contour>
        <pt x="130" y="0" on="1"/>
        <pt x="606" y="0" on="1"/>
        <pt x="606" y="554" on="1"/>
        <pt x="1188" y="554" on="1"/>
        <pt x="1188" y="0" on="1"/>
        <pt x="1664" y="0" on="1"/>
        <pt x="1664" y="1480" on="1"/>
        <pt x="1188" y="1480" on="1"/>
        <pt x="1188" y="956" on="1"/>
        <pt x="606" y="956" on="1"/>
        <pt x="606" y="1480" on="1"/>
        <pt x="130" y="1480" on="1"/>
      </contour>
    </TTGlyph>
    <TTGlyph name="Hbar" xMin="8" yMin="0" xMax="1786" yMax="1480">
      <component glyphName="H" x="0" y="0" flags="0x204"/>
      <component glyphName="strokelongcomb.case" x="0" y="50" flags="0x4"/>
    </TTGlyph>
    <TTGlyph name="Hbrevebelow" xMin="130" yMin="-452" xMax="1664" yMax="1480">
      <component glyphName="H" x="0" y="0" flags="0x204"/>
      <component glyphName="brevebelowcomb.case" x="298" y="0" flags="0x4"/>
    </TTGlyph>
    <TTGlyph name="Hcircumflex" xMin="130" yMin="0" xMax="1664" yMax="1902">
      <component glyphName="H" x="0" y="0" flags="0x204"/>
      <component glyphName="circumflexcomb.case" x="298" y="0" flags="0x4"/>
    </TTGlyph>
    <TTGlyph name="Hdotbelow" xMin="130" yMin="-464" xMax="1664" yMax="1480">
      <component glyphName="H" x="0" y="0" flags="0x204"/>
      <component glyphName="dotbelowcomb.case" x="298" y="0" flags="0x4"/>
    </TTGlyph>
    <TTGlyph name="I" xMin="130" yMin="0" xMax="606" yMax="1480">
      <contour>
        <pt x="130" y="0" on="1"/>
        <pt x="606" y="0" on="1"/>
        <pt x="606" y="1480" on="1"/>
        <pt x="130" y="1480" on="1"/>
      </contour>
    </TTGlyph>
    <TTGlyph name="I_J.loclNLD" xMin="130" yMin="-358" xMax="1342" yMax="1480">
      <component glyphName="I" x="0" y="0" flags="0x4"/>
      <component glyphName="J" x="736" y="0" flags="0x4"/>
    </TTGlyph>
    <TTGlyph name="Iacute" xMin="130" yMin="0" xMax="846" yMax="1902">
      <component glyphName="I" x="0" y="0" flags="0x204"/>
      <component glyphName="acutecomb.case" x="-232" y="0" flags="0x4"/>
    </TTGlyph>
    <TTGlyph name="Iacute_J.loclNLD" xMin="130" yMin="-358" xMax="1584" yMax="1902">
      <component glyphName="I" x="0" y="0" flags="0x4"/>
      <component glyphName="acutecomb.case" x="-232" y="0" flags="0x4"/>
      <component glyphName="J" x="736" y="0" flags="0x4"/>
      <component glyphName="acutecomb.case" x="506" y="0" flags="0x4"/>
    </TTGlyph>
    <TTGlyph name="Ibreve" xMin="-116" yMin="0" xMax="852" yMax="1902">
      <component glyphName="I" x="0" y="0" flags="0x204"/>
      <component glyphName="brevecomb.case" x="-232" y="0" flags="0x4"/>
    </TTGlyph>
    <TTGlyph name="Icircumflex" xMin="-156" yMin="0" xMax="892" yMax="1902">
      <component glyphName="I" x="0" y="0" flags="0x204"/>
      <component glyphName="circumflexcomb.case" x="-232" y="0" flags="0x4"/>
    </TTGlyph>
    <TTGlyph name="Idblgrave" xMin="-218" yMin="0" xMax="766" yMax="1902">
      <component glyphName="I" x="0" y="0" flags="0x204"/>
      <component glyphName="dblgravecomb.case" x="-232" y="0" flags="0x4"/>
    </TTGlyph>
    <TTGlyph name="Idieresis" xMin="-156" yMin="0" xMax="892" yMax="1930">
      <component glyphName="I" x="0" y="0" flags="0x204"/>
      <component glyphName="dieresiscomb.case" x="-232" y="0" flags="0x4"/>
    </TTGlyph>
    <TTGlyph name="Idieresisacute" xMin="-156" yMin="0" xMax="892" yMax="2218">
      <component glyphName="I" x="0" y="0" flags="0x204"/>
      <component glyphName="dieresiscomb_acutecomb.case" x="-232" y="0" flags="0x4"/>
    </TTGlyph>
    <TTGlyph name="Idotaccent" xMin="100" yMin="0" xMax="636" yMax="1930">
      <component glyphName="I" x="0" y="0" flags="0x204"/>
      <component glyphName="dotaccentcomb.case" x="-232" y="0" flags="0x4"/>
    </TTGlyph>
    <TTGlyph name="Idotbelow" xMin="98" yMin="-464" xMax="634" yMax="1480">
      <component glyphName="I" x="0" y="0" flags="0x204"/>
      <component glyphName="dotbelowcomb.case" x="-234" y="0" flags="0x4"/>
    </TTGlyph>
    <TTGlyph name="Igrave" xMin="-114" yMin="0" xMax="606" yMax="1902">
      <component glyphName="I" x="0" y="0" flags="0x204"/>
      <component glyphName="gravecomb.case" x="-232" y="0" flags="0x4"/>
    </TTGlyph>
    <TTGlyph name="Ihookabove" xMin="122" yMin="0" xMax="668" yMax="1930">
      <component glyphName="I" x="0" y="0" flags="0x204"/>
      <component glyphName="hookabovecomb.case" x="-232" y="0" flags="0x4"/>
    </TTGlyph>
    <TTGlyph name="Iinvertedbreve" xMin="-116" yMin="0" xMax="852" yMax="1902">
      <component glyphName="I" x="0" y="0" flags="0x204"/>
      <component glyphName="breveinvertedcomb.case" x="-232" y="0" flags="0x4"/>
    </TTGlyph>
    <TTGlyph name="Imacron" xMin="-76" yMin="0" xMax="812" yMax="1870">
      <component glyphName="I" x="0" y="0" flags="0x204"/>
      <component glyphName="macroncomb.case" x="-232" y="0" flags="0x4"/>
    </TTGlyph>
    <TTGlyph name="Iogonek" xMin="104" yMin="-460" xMax="640" yMax="1480">
      <component glyphName="I" x="0" y="0" flags="0x204"/>
      <component glyphName="ogonekcomb.case" x="90" y="0" flags="0x4"/>
    </TTGlyph>
    <TTGlyph name="Itilde" xMin="-76" yMin="0" xMax="812" yMax="1902">
      <component glyphName="I" x="0" y="0" flags="0x204"/>
      <component glyphName="tildecomb.case" x="-232" y="0" flags="0x4"/>
    </TTGlyph>
    <TTGlyph name="J" xMin="-12" yMin="-358" xMax="606" yMax="1480">
      <contour>
        <pt x="280" y="-358" on="1"/>
        <pt x="463" y="-194" on="0"/>
        <pt x="606" y="131" on="0"/>
        <pt x="606" y="318" on="1"/>
        <pt x="606" y="1480" on="1"/>
        <pt x="134" y="1480" on="1"/>
        <pt x="134" y="302" on="1"/>
        <pt x="134" y="148" on="0"/>
        <pt x="71" y="-63" on="0"/>
        <pt x="-12" y="-162" on="1"/>
      </contour>
    </TTGlyph>
    <TTGlyph name="Jcircumflex" xMin="-154" yMin="-358" xMax="894" yMax="1902">
      <component glyphName="J" x="0" y="0" flags="0x204"/>
      <component glyphName="circumflexcomb.case" x="-230" y="0" flags="0x4"/>
    </TTGlyph>
    <TTGlyph name="K" xMin="130" yMin="0" xMax="1598" yMax="1480">
      <contour>
        <pt x="130" y="0" on="1"/>
        <pt x="606" y="0" on="1"/>
        <pt x="606" y="554" on="1"/>
        <pt x="700" y="554" on="1"/>
        <pt x="1082" y="0" on="1"/>
        <pt x="1598" y="0" on="1"/>
        <pt x="1069" y="767" on="1"/>
        <pt x="1548" y="1480" on="1"/>
        <pt x="1050" y="1480" on="1"/>
        <pt x="698" y="956" on="1"/>
        <pt x="606" y="956" on="1"/>
        <pt x="606" y="1480" on="1"/>
        <pt x="130" y="1480" on="1"/>
      </contour>
    </TTGlyph>
    <TTGlyph name="Kcommaaccent" xMin="130" yMin="-520" xMax="1598" yMax="1480">
      <component glyphName="K" x="0" y="0" flags="0x204"/>
      <component glyphName="commaaccentcomb.case" x="216" y="0" flags="0x4"/>
    </TTGlyph>
    <TTGlyph name="L" xMin="130" yMin="0" xMax="1350" yMax="1480">
      <contour>
        <pt x="130" y="0" on="1"/>
        <pt x="1350" y="0" on="1"/>
        <pt x="1350" y="368" on="1"/>
        <pt x="606" y="368" on="1"/>
        <pt x="606" y="1480" on="1"/>
        <pt x="130" y="1480" on="1"/>
      </contour>
    </TTGlyph>
    <TTGlyph name="LJ" xMin="130" yMin="-358" xMax="1968" yMax="1480">
      <component glyphName="L" x="0" y="0" flags="0x4"/>
      <component glyphName="J" x="1362" y="0" flags="0x4"/>
    </TTGlyph>
    <TTGlyph name="Lacute" xMin="130" yMin="0" xMax="1350" yMax="1902">
      <component glyphName="L" x="0" y="0" flags="0x204"/>
      <component glyphName="acutecomb.case" x="-232" y="0" flags="0x4"/>
    </TTGlyph>
    <TTGlyph name="Lcaron" xMin="130" yMin="0" xMax="1350" yMax="1616">
      <component glyphName="L" x="0" y="0" flags="0x204"/>
      <component glyphName="caroncomb.alt.case" x="316" y="0" flags="0x4"/>
    </TTGlyph>
    <TTGlyph name="Lcommaaccent" xMin="130" yMin="-520" xMax="1350" yMax="1480">
      <component glyphName="L" x="0" y="0" flags="0x204"/>
      <component glyphName="commaaccentcomb" x="140" y="0" flags="0x4"/>
    </TTGlyph>
    <TTGlyph name="Ldot" xMin="130" yMin="0" xMax="1350" yMax="1480">
      <component glyphName="L" x="0" y="0" flags="0x204"/>
      <component glyphName="periodcentered.CAT" x="718" y="190" flags="0x4"/>
    </TTGlyph>
    <TTGlyph name="Ldotbelow" xMin="130" yMin="-464" xMax="1350" yMax="1480">
      <component glyphName="L" x="0" y="0" flags="0x204"/>
      <component glyphName="dotbelowcomb.case" x="140" y="0" flags="0x4"/>
    </TTGlyph>
    <TTGlyph name="Lj" xMin="130" yMin="-476" xMax="1974" yMax="1630">
      <component glyphName="L" x="0" y="0" flags="0x4"/>
      <component glyphName="j" x="1362" y="0" flags="0x4"/>
    </TTGlyph>
    <TTGlyph name="Llinebelow" xMin="130" yMin="-398" xMax="1350" yMax="1480">
      <component glyphName="L" x="0" y="0" flags="0x204"/>
      <component glyphName="macronbelowcomb.case" x="140" y="0" flags="0x4"/>
    </TTGlyph>
    <TTGlyph name="Lslash" xMin="-64" yMin="0" xMax="1350" yMax="1480">
      <component glyphName="L" x="0" y="0" flags="0x204"/>
      <component glyphName="slashshortcomb.case" x="-32" y="80" flags="0x4"/>
    </TTGlyph>
    <TTGlyph name="M" xMin="134" yMin="0" xMax="2042" yMax="1480">
      <contour>
        <pt x="134" y="0" on="1"/>
        <pt x="578" y="0" on="1"/>
        <pt x="578" y="864" on="1"/>
        <pt x="892" y="220" on="1"/>
        <pt x="1284" y="220" on="1"/>
        <pt x="1598" y="902" on="1"/>
        <pt x="1598" y="0" on="1"/>
        <pt x="2042" y="0" on="1"/>
        <pt x="2042" y="1480" on="1"/>
        <pt x="1464" y="1480" on="1"/>
        <pt x="1095" y="672" on="1"/>
        <pt x="712" y="1480" on="1"/>
        <pt x="134" y="1480" on="1"/>
      </contour>
    </TTGlyph>
    <TTGlyph name="Mdotbelow" xMin="134" yMin="-464" xMax="2042" yMax="1480">
      <component glyphName="M" x="0" y="0" flags="0x204"/>
      <component glyphName="dotbelowcomb.case" x="520" y="0" flags="0x4"/>
    </TTGlyph>
    <TTGlyph name="N" xMin="130" yMin="0" xMax="1674" yMax="1480">
      <contour>
        <pt x="130" y="0" on="1"/>
        <pt x="578" y="0" on="1"/>
        <pt x="578" y="834" on="1"/>
        <pt x="1198" y="0" on="1"/>
        <pt x="1674" y="0" on="1"/>
        <pt x="1674" y="1480" on="1"/>
        <pt x="1226" y="1480" on="1"/>
        <pt x="1226" y="646" on="1"/>
        <pt x="606" y="1480" on="1"/>
        <pt x="130" y="1480" on="1"/>
      </contour>
    </TTGlyph>
    <TTGlyph name="NJ" xMin="130" yMin="-358" xMax="2410" yMax="1480">
      <component glyphName="N" x="0" y="0" flags="0x4"/>
      <component glyphName="J" x="1804" y="0" flags="0x4"/>
    </TTGlyph>
    <TTGlyph name="Nacute" xMin="130" yMin="0" xMax="1674" yMax="1902">
      <component glyphName="N" x="0" y="0" flags="0x204"/>
      <component glyphName="acutecomb.case" x="302" y="0" flags="0x4"/>
    </TTGlyph>
    <TTGlyph name="Ncaron" xMin="130" yMin="0" xMax="1674" yMax="1902">
      <component glyphName="N" x="0" y="0" flags="0x204"/>
      <component glyphName="caroncomb.case" x="302" y="0" flags="0x4"/>
    </TTGlyph>
    <TTGlyph name="Ncommaaccent" xMin="130" yMin="-520" xMax="1674" yMax="1480">
      <component glyphName="N" x="0" y="0" flags="0x204"/>
      <component glyphName="commaaccentcomb.case" x="302" y="0" flags="0x4"/>
    </TTGlyph>
    <TTGlyph name="Ndotaccent" xMin="130" yMin="0" xMax="1674" yMax="1930">
      <component glyphName="N" x="0" y="0" flags="0x204"/>
      <component glyphName="dotaccentcomb.case" x="302" y="0" flags="0x4"/>
    </TTGlyph>
    <TTGlyph name="Ndotbelow" xMin="130" yMin="-464" xMax="1674" yMax="1480">
      <component glyphName="N" x="0" y="0" flags="0x204"/>
      <component glyphName="dotbelowcomb.case" x="302" y="0" flags="0x4"/>
    </TTGlyph>
    <TTGlyph name="Nj" xMin="130" yMin="-476" xMax="2416" yMax="1630">
      <component glyphName="N" x="0" y="0" flags="0x4"/>
      <component glyphName="j" x="1804" y="0" flags="0x4"/>
    </TTGlyph>
    <TTGlyph name="Nlinebelow" xMin="130" yMin="-398" xMax="1674" yMax="1480">
      <component glyphName="N" x="0" y="0" flags="0x204"/>
      <component glyphName="macronbelowcomb.case" x="302" y="0" flags="0x4"/>
    </TTGlyph>
    <TTGlyph name="Ntilde" xMin="130" yMin="0" xMax="1674" yMax="1902">
      <component glyphName="N" x="0" y="0" flags="0x204"/>
      <component glyphName="tildecomb.case" x="302" y="0" flags="0x4"/>
    </TTGlyph>
    <TTGlyph name="O" xMin="84" yMin="-20" xMax="1808" yMax="1500">
      <contour>
        <pt x="946" y="-20" on="1"/>
        <pt x="1213" y="-20" on="0"/>
        <pt x="1600" y="166" on="0"/>
        <pt x="1808" y="507" on="0"/>
        <pt x="1808" y="740" on="1"/>
        <pt x="1808" y="973" on="0"/>
        <pt x="1600" y="1314" on="0"/>
        <pt x="1214" y="1500" on="0"/>
        <pt x="946" y="1500" on="1"/>
        <pt x="678" y="1500" on="0"/>
        <pt x="292" y="1316" on="0"/>
        <pt x="84" y="975" on="0"/>
        <pt x="84" y="740" on="1"/>
        <pt x="84" y="505" on="0"/>
        <pt x="293" y="164" on="0"/>
        <pt x="679" y="-20" on="0"/>
      </contour>
      <contour>
        <pt x="946" y="348" on="1"/>
        <pt x="762" y="348" on="0"/>
        <pt x="568" y="547" on="0"/>
        <pt x="568" y="748" on="1"/>
        <pt x="568" y="937" on="0"/>
        <pt x="766" y="1132" on="0"/>
        <pt x="946" y="1132" on="1"/>
        <pt x="1126" y="1132" on="0"/>
        <pt x="1324" y="929" on="0"/>
        <pt x="1324" y="732" on="1"/>
        <pt x="1324" y="548" on="0"/>
        <pt x="1131" y="348" on="0"/>
      </contour>
    </TTGlyph>
    <TTGlyph name="OE" xMin="84" yMin="-14" xMax="2420" yMax="1494">
      <contour>
        <pt x="1152" y="-14" on="1"/>
        <pt x="1227" y="-14" on="0"/>
        <pt x="1414" y="0" on="0"/>
        <pt x="1508" y="0" on="1"/>
        <pt x="2420" y="0" on="1"/>
        <pt x="2420" y="350" on="1"/>
        <pt x="1648" y="350" on="1"/>
        <pt x="1648" y="580" on="1"/>
        <pt x="2304" y="580" on="1"/>
        <pt x="2304" y="930" on="1"/>
        <pt x="1648" y="930" on="1"/>
        <pt x="1648" y="1130" on="1"/>
        <pt x="2410" y="1130" on="1"/>
        <pt x="2410" y="1480" on="1"/>
        <pt x="1508" y="1480" on="1"/>
        <pt x="1412" y="1480" on="0"/>
        <pt x="1218" y="1494" on="0"/>
        <pt x="1132" y="1494" on="1"/>
        <pt x="610" y="1494" on="0"/>
        <pt x="84" y="1132" on="0"/>
        <pt x="84" y="740" on="1"/>
        <pt x="84" y="469" on="0"/>
        <pt x="311" y="137" on="0"/>
        <pt x="784" y="-14" on="0"/>
      </contour>
      <contour>
        <pt x="1022" y="358" on="1"/>
        <pt x="788" y="358" on="0"/>
        <pt x="566" y="538" on="0"/>
        <pt x="566" y="736" on="1"/>
        <pt x="566" y="940" on="0"/>
        <pt x="788" y="1122" on="0"/>
        <pt x="1022" y="1122" on="1"/>
        <pt x="1066" y="1122" on="0"/>
        <pt x="1142" y="1121" on="0"/>
        <pt x="1178" y="1118" on="1"/>
        <pt x="1178" y="362" on="1"/>
        <pt x="1142" y="359" on="0"/>
        <pt x="1057" y="358" on="0"/>
      </contour>
    </TTGlyph>
    <TTGlyph name="Oacute" xMin="84" yMin="-20" xMax="1808" yMax="1902">
      <component glyphName="O" x="0" y="0" flags="0x204"/>
      <component glyphName="acutecomb.case" x="346" y="0" flags="0x4"/>
    </TTGlyph>
    <TTGlyph name="Obreve" xMin="84" yMin="-20" xMax="1808" yMax="1902">
      <component glyphName="O" x="0" y="0" flags="0x204"/>
      <component glyphName="brevecomb.case" x="346" y="0" flags="0x4"/>
    </TTGlyph>
    <TTGlyph name="Ocircumflex" xMin="84" yMin="-20" xMax="1808" yMax="1902">
      <component glyphName="O" x="0" y="0" flags="0x204"/>
      <component glyphName="circumflexcomb.case" x="346" y="0" flags="0x4"/>
    </TTGlyph>
    <TTGlyph name="Ocircumflexacute" xMin="84" yMin="-20" xMax="1808" yMax="2064">
      <component glyphName="O" x="0" y="0" flags="0x204"/>
      <component glyphName="circumflexcomb_acutecomb.case" x="346" y="0" flags="0x4"/>
    </TTGlyph>
    <TTGlyph name="Ocircumflexdotbelow" xMin="84" yMin="-464" xMax="1808" yMax="1902">
      <component glyphName="O" x="0" y="0" flags="0x204"/>
      <component glyphName="dotbelowcomb.case" x="346" y="0" flags="0x4"/>
      <component glyphName="circumflexcomb.case" x="346" y="0" flags="0x4"/>
    </TTGlyph>
    <TTGlyph name="Ocircumflexgrave" xMin="84" yMin="-20" xMax="1808" yMax="2064">
      <component glyphName="O" x="0" y="0" flags="0x204"/>
      <component glyphName="circumflexcomb_gravecomb.case" x="346" y="0" flags="0x4"/>
    </TTGlyph>
    <TTGlyph name="Ocircumflexhookabove" xMin="84" yMin="-20" xMax="1808" yMax="2124">
      <component glyphName="O" x="0" y="0" flags="0x204"/>
      <component glyphName="circumflexcomb_hookabovecomb.case" x="346" y="0" flags="0x4"/>
    </TTGlyph>
    <TTGlyph name="Ocircumflextilde" xMin="84" yMin="-20" xMax="1808" yMax="2132">
      <component glyphName="O" x="0" y="0" flags="0x204"/>
      <component glyphName="circumflexcomb_tildecomb.case" x="346" y="0" flags="0x4"/>
    </TTGlyph>
    <TTGlyph name="Odblgrave" xMin="84" yMin="-20" xMax="1808" yMax="1902">
      <component glyphName="O" x="0" y="0" flags="0x204"/>
      <component glyphName="dblgravecomb.case" x="346" y="0" flags="0x4"/>
    </TTGlyph>
    <TTGlyph name="Odieresis" xMin="84" yMin="-20" xMax="1808" yMax="1930">
      <component glyphName="O" x="0" y="0" flags="0x204"/>
      <component glyphName="dieresiscomb.case" x="346" y="0" flags="0x4"/>
    </TTGlyph>
    <TTGlyph name="Odieresismacron" xMin="84" yMin="-20" xMax="1808" yMax="2270">
      <component glyphName="O" x="0" y="0" flags="0x204"/>
      <component glyphName="dieresiscomb_macroncomb.case" x="346" y="0" flags="0x4"/>
    </TTGlyph>
    <TTGlyph name="Odotaccentmacron" xMin="84" yMin="-20" xMax="1808" yMax="2270">
      <component glyphName="O" x="0" y="0" flags="0x204"/>
      <component glyphName="dotaccentcomb_macroncomb.case" x="346" y="0" flags="0x4"/>
    </TTGlyph>
    <TTGlyph name="Odotbelow" xMin="84" yMin="-464" xMax="1808" yMax="1500">
      <component glyphName="O" x="0" y="0" flags="0x204"/>
      <component glyphName="dotbelowcomb.case" x="346" y="0" flags="0x4"/>
    </TTGlyph>
    <TTGlyph name="Ograve" xMin="84" yMin="-20" xMax="1808" yMax="1902">
      <component glyphName="O" x="0" y="0" flags="0x204"/>
      <component glyphName="gravecomb.case" x="346" y="0" flags="0x4"/>
    </TTGlyph>
    <TTGlyph name="Ohm" xMin="84" yMin="0" xMax="1808" yMax="1500">
      <component glyphName="Omega" x="0" y="0" flags="0x204"/>
    </TTGlyph>
    <TTGlyph name="Ohm.tf" xMin="58" yMin="0" xMax="1382" yMax="1500">
      <component glyphName="Omega.tf" x="0" y="0" flags="0x204"/>
    </TTGlyph>
    <TTGlyph name="Ohookabove" xMin="84" yMin="-20" xMax="1808" yMax="1930">
      <component glyphName="O" x="0" y="0" flags="0x204"/>
      <component glyphName="hookabovecomb.case" x="346" y="0" flags="0x4"/>
    </TTGlyph>
    <TTGlyph name="Ohorn" xMin="84" yMin="-20" xMax="1824" yMax="1776">
      <contour>
        <pt x="946" y="-20" on="1"/>
        <pt x="1213" y="-20" on="0"/>
        <pt x="1600" y="166" on="0"/>
        <pt x="1808" y="507" on="0"/>
        <pt x="1808" y="740" on="1"/>
        <pt x="1808" y="914" on="0"/>
        <pt x="1690" y="1196" on="0"/>
        <pt x="1579" y="1293" on="1"/>
        <pt x="1693" y="1318" on="0"/>
        <pt x="1824" y="1483" on="0"/>
        <pt x="1824" y="1624" on="1"/>
        <pt x="1824" y="1656" on="0"/>
        <pt x="1818" y="1728" on="0"/>
        <pt x="1806" y="1776" on="1"/>
        <pt x="1516" y="1776" on="1"/>
        <pt x="1524" y="1727" on="0"/>
        <pt x="1528" y="1663" on="0"/>
        <pt x="1528" y="1636" on="1"/>
        <pt x="1528" y="1548" on="0"/>
        <pt x="1421" y="1480" on="0"/>
        <pt x="1310" y="1480" on="1"/>
        <pt x="1238" y="1480" on="0"/>
        <pt x="1033" y="1500" on="0"/>
        <pt x="946" y="1500" on="1"/>
        <pt x="678" y="1500" on="0"/>
        <pt x="292" y="1316" on="0"/>
        <pt x="84" y="975" on="0"/>
        <pt x="84" y="740" on="1"/>
        <pt x="84" y="505" on="0"/>
        <pt x="293" y="164" on="0"/>
        <pt x="679" y="-20" on="0"/>
      </contour>
      <contour>
        <pt x="946" y="348" on="1"/>
        <pt x="762" y="348" on="0"/>
        <pt x="568" y="547" on="0"/>
        <pt x="568" y="748" on="1"/>
        <pt x="568" y="937" on="0"/>
        <pt x="766" y="1132" on="0"/>
        <pt x="946" y="1132" on="1"/>
        <pt x="1126" y="1132" on="0"/>
        <pt x="1324" y="929" on="0"/>
        <pt x="1324" y="732" on="1"/>
        <pt x="1324" y="548" on="0"/>
        <pt x="1131" y="348" on="0"/>
      </contour>
    </TTGlyph>
    <TTGlyph name="Ohornacute" xMin="84" yMin="-20" xMax="1824" yMax="1902">
      <component glyphName="Ohorn" x="0" y="0" flags="0x204"/>
      <component glyphName="acutecomb.case" x="346" y="0" flags="0x4"/>
    </TTGlyph>
    <TTGlyph name="Ohorndotbelow" xMin="84" yMin="-464" xMax="1824" yMax="1776">
      <component glyphName="Ohorn" x="0" y="0" flags="0x204"/>
      <component glyphName="dotbelowcomb.case" x="346" y="0" flags="0x4"/>
    </TTGlyph>
    <TTGlyph name="Ohorngrave" xMin="84" yMin="-20" xMax="1824" yMax="1902">
      <component glyphName="Ohorn" x="0" y="0" flags="0x204"/>
      <component glyphName="gravecomb.case" x="346" y="0" flags="0x4"/>
    </TTGlyph>
    <TTGlyph name="Ohornhookabove" xMin="84" yMin="-20" xMax="1824" yMax="1930">
      <component glyphName="Ohorn" x="0" y="0" flags="0x204"/>
      <component glyphName="hookabovecomb.case" x="346" y="0" flags="0x4"/>
    </TTGlyph>
    <TTGlyph name="Ohorntilde" xMin="84" yMin="-20" xMax="1824" yMax="1902">
      <contour>
        <pt x="1144" y="1586" on="1"/>
        <pt x="1225" y="1586" on="0"/>
        <pt x="1341" y="1621" on="0"/>
        <pt x="1390" y="1660" on="1"/>
        <pt x="1390" y="1892" on="1"/>
        <pt x="1333" y="1859" on="0"/>
        <pt x="1227" y="1828" on="0"/>
        <pt x="1156" y="1828" on="1"/>
        <pt x="1084" y="1828" on="0"/>
        <pt x="959" y="1865" on="0"/>
        <pt x="828" y="1902" on="0"/>
        <pt x="748" y="1902" on="1"/>
        <pt x="667" y="1902" on="0"/>
        <pt x="552" y="1865" on="0"/>
        <pt x="502" y="1826" on="1"/>
        <pt x="502" y="1594" on="1"/>
        <pt x="559" y="1627" on="0"/>
        <pt x="666" y="1658" on="0"/>
        <pt x="736" y="1658" on="1"/>
        <pt x="808" y="1658" on="0"/>
        <pt x="933" y="1622" on="0"/>
        <pt x="1064" y="1586" on="0"/>
      </contour>
      <contour>
        <pt x="946" y="-20" on="1"/>
        <pt x="1213" y="-20" on="0"/>
        <pt x="1600" y="166" on="0"/>
        <pt x="1808" y="507" on="0"/>
        <pt x="1808" y="740" on="1"/>
        <pt x="1808" y="914" on="0"/>
        <pt x="1690" y="1196" on="0"/>
        <pt x="1579" y="1293" on="1"/>
        <pt x="1693" y="1318" on="0"/>
        <pt x="1824" y="1483" on="0"/>
        <pt x="1824" y="1624" on="1"/>
        <pt x="1824" y="1656" on="0"/>
        <pt x="1818" y="1728" on="0"/>
        <pt x="1806" y="1776" on="1"/>
        <pt x="1516" y="1776" on="1"/>
        <pt x="1524" y="1727" on="0"/>
        <pt x="1528" y="1663" on="0"/>
        <pt x="1528" y="1636" on="1"/>
        <pt x="1528" y="1548" on="0"/>
        <pt x="1421" y="1480" on="0"/>
        <pt x="1310" y="1480" on="1"/>
        <pt x="1238" y="1480" on="0"/>
        <pt x="1033" y="1500" on="0"/>
        <pt x="946" y="1500" on="1"/>
        <pt x="678" y="1500" on="0"/>
        <pt x="292" y="1316" on="0"/>
        <pt x="84" y="975" on="0"/>
        <pt x="84" y="740" on="1"/>
        <pt x="84" y="505" on="0"/>
        <pt x="293" y="164" on="0"/>
        <pt x="679" y="-20" on="0"/>
      </contour>
      <contour>
        <pt x="946" y="348" on="1"/>
        <pt x="762" y="348" on="0"/>
        <pt x="568" y="547" on="0"/>
        <pt x="568" y="748" on="1"/>
        <pt x="568" y="937" on="0"/>
        <pt x="766" y="1132" on="0"/>
        <pt x="946" y="1132" on="1"/>
        <pt x="1126" y="1132" on="0"/>
        <pt x="1324" y="929" on="0"/>
        <pt x="1324" y="732" on="1"/>
        <pt x="1324" y="548" on="0"/>
        <pt x="1131" y="348" on="0"/>
      </contour>
    </TTGlyph>
    <TTGlyph name="Ohungarumlaut" xMin="84" yMin="-20" xMax="1808" yMax="1902">
      <component glyphName="O" x="0" y="0" flags="0x204"/>
      <component glyphName="hungarumlautcomb.case" x="346" y="0" flags="0x4"/>
    </TTGlyph>
    <TTGlyph name="Oinvertedbreve" xMin="84" yMin="-20" xMax="1808" yMax="1902">
      <component glyphName="O" x="0" y="0" flags="0x204"/>
      <component glyphName="breveinvertedcomb.case" x="346" y="0" flags="0x4"/>
    </TTGlyph>
    <TTGlyph name="Omacron" xMin="84" yMin="-20" xMax="1808" yMax="1870">
      <component glyphName="O" x="0" y="0" flags="0x204"/>
      <component glyphName="macroncomb.case" x="346" y="0" flags="0x4"/>
    </TTGlyph>
    <TTGlyph name="Omacronacute" xMin="84" yMin="-20" xMax="1808" yMax="2218">
      <component glyphName="O" x="0" y="0" flags="0x204"/>
      <component glyphName="macroncomb_acutecomb.case" x="346" y="0" flags="0x4"/>
    </TTGlyph>
    <TTGlyph name="Omacrongrave" xMin="84" yMin="-20" xMax="1808" yMax="2218">
      <component glyphName="O" x="0" y="0" flags="0x204"/>
      <component glyphName="macroncomb_gravecomb.case" x="346" y="0" flags="0x4"/>
    </TTGlyph>
    <TTGlyph name="Omega" xMin="84" yMin="0" xMax="1808" yMax="1500">
      <contour>
        <pt x="84" y="0" on="1"/>
        <pt x="828" y="0" on="1"/>
        <pt x="828" y="264" on="1"/>
        <pt x="702" y="368" on="0"/>
        <pt x="568" y="604" on="0"/>
        <pt x="568" y="748" on="1"/>
        <pt x="568" y="934" on="0"/>
        <pt x="763" y="1132" on="0"/>
        <pt x="946" y="1132" on="1"/>
        <pt x="1129" y="1132" on="0"/>
        <pt x="1324" y="934" on="0"/>
        <pt x="1324" y="748" on="1"/>
        <pt x="1324" y="604" on="0"/>
        <pt x="1190" y="368" on="0"/>
        <pt x="1064" y="264" on="1"/>
        <pt x="1064" y="0" on="1"/>
        <pt x="1808" y="0" on="1"/>
        <pt x="1808" y="342" on="1"/>
        <pt x="1617" y="342" on="1"/>
        <pt x="1710" y="426" on="0"/>
        <pt x="1808" y="654" on="0"/>
        <pt x="1808" y="800" on="1"/>
        <pt x="1808" y="1006" on="0"/>
        <pt x="1600" y="1322" on="0"/>
        <pt x="1213" y="1500" on="0"/>
        <pt x="946" y="1500" on="1"/>
        <pt x="679" y="1500" on="0"/>
        <pt x="293" y="1322" on="0"/>
        <pt x="84" y="1006" on="0"/>
        <pt x="84" y="800" on="1"/>
        <pt x="84" y="654" on="0"/>
        <pt x="182" y="426" on="0"/>
        <pt x="275" y="342" on="1"/>
        <pt x="84" y="342" on="1"/>
      </contour>
    </TTGlyph>
    <TTGlyph name="Omega.tf" xMin="58" yMin="0" xMax="1382" yMax="1500">
      <contour>
        <pt x="58" y="0" on="1"/>
        <pt x="670" y="0" on="1"/>
        <pt x="670" y="264" on="1"/>
        <pt x="600" y="368" on="0"/>
        <pt x="526" y="589" on="0"/>
        <pt x="526" y="748" on="1"/>
        <pt x="526" y="894" on="0"/>
        <pt x="572" y="1059" on="0"/>
        <pt x="659" y="1126" on="0"/>
        <pt x="720" y="1126" on="1"/>
        <pt x="781" y="1126" on="0"/>
        <pt x="868" y="1059" on="0"/>
        <pt x="914" y="894" on="0"/>
        <pt x="914" y="748" on="1"/>
        <pt x="914" y="589" on="0"/>
        <pt x="841" y="368" on="0"/>
        <pt x="770" y="264" on="1"/>
        <pt x="770" y="0" on="1"/>
        <pt x="1382" y="0" on="1"/>
        <pt x="1382" y="342" on="1"/>
        <pt x="1228" y="342" on="1"/>
        <pt x="1298" y="426" on="0"/>
        <pt x="1372" y="654" on="0"/>
        <pt x="1372" y="800" on="1"/>
        <pt x="1372" y="1021" on="0"/>
        <pt x="1211" y="1334" on="0"/>
        <pt x="918" y="1500" on="0"/>
        <pt x="720" y="1500" on="1"/>
        <pt x="521" y="1500" on="0"/>
        <pt x="228" y="1334" on="0"/>
        <pt x="68" y="1021" on="0"/>
        <pt x="68" y="800" on="1"/>
        <pt x="68" y="654" on="0"/>
        <pt x="142" y="426" on="0"/>
        <pt x="212" y="342" on="1"/>
        <pt x="58" y="342" on="1"/>
      </contour>
    </TTGlyph>
    <TTGlyph name="Oogonek" xMin="84" yMin="-460" xMax="1808" yMax="1500">
      <contour>
        <pt x="996" y="-460" on="1"/>
        <pt x="1059" y="-460" on="0"/>
        <pt x="1157" y="-443" on="0"/>
        <pt x="1200" y="-430" on="1"/>
        <pt x="1200" y="-270" on="1"/>
        <pt x="1158" y="-283" on="0"/>
        <pt x="1092" y="-294" on="0"/>
        <pt x="1068" y="-294" on="1"/>
        <pt x="990" y="-294" on="0"/>
        <pt x="920" y="-241" on="0"/>
        <pt x="920" y="-196" on="1"/>
        <pt x="920" y="-160" on="0"/>
        <pt x="968" y="-86" on="0"/>
        <pt x="1093" y="-19" on="0"/>
        <pt x="1208" y="6" on="1"/>
        <pt x="1370" y="41" on="0"/>
        <pt x="1643" y="222" on="0"/>
        <pt x="1808" y="524" on="0"/>
        <pt x="1808" y="740" on="1"/>
        <pt x="1808" y="973" on="0"/>
        <pt x="1600" y="1314" on="0"/>
        <pt x="1214" y="1500" on="0"/>
        <pt x="946" y="1500" on="1"/>
        <pt x="678" y="1500" on="0"/>
        <pt x="292" y="1316" on="0"/>
        <pt x="84" y="975" on="0"/>
        <pt x="84" y="740" on="1"/>
        <pt x="84" y="527" on="0"/>
        <pt x="256" y="206" on="0"/>
        <pt x="576" y="12" on="0"/>
        <pt x="799" y="-13" on="1"/>
        <pt x="726" y="-58" on="0"/>
        <pt x="664" y="-171" on="0"/>
        <pt x="664" y="-234" on="1"/>
        <pt x="664" y="-336" on="0"/>
        <pt x="827" y="-460" on="0"/>
      </contour>
      <contour>
        <pt x="946" y="348" on="1"/>
        <pt x="762" y="348" on="0"/>
        <pt x="568" y="547" on="0"/>
        <pt x="568" y="748" on="1"/>
        <pt x="568" y="937" on="0"/>
        <pt x="766" y="1132" on="0"/>
        <pt x="946" y="1132" on="1"/>
        <pt x="1126" y="1132" on="0"/>
        <pt x="1324" y="929" on="0"/>
        <pt x="1324" y="732" on="1"/>
        <pt x="1324" y="548" on="0"/>
        <pt x="1131" y="348" on="0"/>
      </contour>
    </TTGlyph>
    <TTGlyph name="Oslash" xMin="84" yMin="-62" xMax="1808" yMax="1542">
      <component glyphName="O" x="0" y="0" flags="0x204"/>
      <component glyphName="slashcomb.case" x="46" y="0" flags="0x4"/>
    </TTGlyph>
    <TTGlyph name="Oslashacute" xMin="84" yMin="-62" xMax="1808" yMax="1902">
      <component glyphName="Oslash" x="0" y="0" flags="0x204"/>
      <component glyphName="acutecomb.case" x="342" y="0" flags="0x4"/>
    </TTGlyph>
    <TTGlyph name="Otilde" xMin="84" yMin="-20" xMax="1808" yMax="1902">
      <component glyphName="O" x="0" y="0" flags="0x204"/>
      <component glyphName="tildecomb.case" x="346" y="0" flags="0x4"/>
    </TTGlyph>
    <TTGlyph name="Otildeacute" xMin="84" yMin="-20" xMax="1808" yMax="2218">
      <component glyphName="O" x="0" y="0" flags="0x204"/>
      <component glyphName="tildecomb_acutecomb.case" x="346" y="0" flags="0x4"/>
    </TTGlyph>
    <TTGlyph name="Otildedieresis" xMin="84" yMin="-20" xMax="1808" yMax="2330">
      <component glyphName="O" x="0" y="0" flags="0x204"/>
      <component glyphName="tildecomb_dieresiscomb.case" x="346" y="0" flags="0x4"/>
    </TTGlyph>
    <TTGlyph name="Otildemacron" xMin="84" yMin="-20" xMax="1808" yMax="2270">
      <component glyphName="O" x="0" y="0" flags="0x204"/>
      <component glyphName="tildecomb_macroncomb.case" x="346" y="0" flags="0x4"/>
    </TTGlyph>
    <TTGlyph name="P" xMin="130" yMin="0" xMax="1450" yMax="1500">
      <contour>
        <pt x="130" y="0" on="1"/>
        <pt x="606" y="0" on="1"/>
        <pt x="606" y="390" on="1"/>
        <pt x="635" y="390" on="0"/>
        <pt x="699" y="388" on="0"/>
        <pt x="730" y="388" on="1"/>
        <pt x="1084" y="388" on="0"/>
        <pt x="1450" y="667" on="0"/>
        <pt x="1450" y="944" on="1"/>
        <pt x="1450" y="1234" on="0"/>
        <pt x="1066" y="1500" on="0"/>
        <pt x="676" y="1500" on="1"/>
        <pt x="523" y="1500" on="0"/>
        <pt x="253" y="1473" on="0"/>
        <pt x="130" y="1450" on="1"/>
      </contour>
      <contour>
        <pt x="734" y="714" on="1"/>
        <pt x="667" y="714" on="0"/>
        <pt x="606" y="722" on="1"/>
        <pt x="606" y="1166" on="1"/>
        <pt x="657" y="1174" on="0"/>
        <pt x="722" y="1174" on="1"/>
        <pt x="863" y="1174" on="0"/>
        <pt x="992" y="1066" on="0"/>
        <pt x="992" y="944" on="1"/>
        <pt x="992" y="815" on="0"/>
        <pt x="866" y="714" on="0"/>
      </contour>
    </TTGlyph>
    <TTGlyph name="Q" xMin="84" yMin="-394" xMax="1808" yMax="1500">
      <contour>
        <pt x="1730" y="-394" on="1"/>
        <pt x="1800" y="-44" on="1"/>
        <pt x="1663" y="-27" on="0"/>
        <pt x="1404" y="16" on="0"/>
        <pt x="1281" y="45" on="1"/>
        <pt x="1462" y="89" on="0"/>
        <pt x="1695" y="289" on="0"/>
        <pt x="1808" y="571" on="0"/>
        <pt x="1808" y="740" on="1"/>
        <pt x="1808" y="973" on="0"/>
        <pt x="1600" y="1314" on="0"/>
        <pt x="1214" y="1500" on="0"/>
        <pt x="946" y="1500" on="1"/>
        <pt x="678" y="1500" on="0"/>
        <pt x="292" y="1314" on="0"/>
        <pt x="84" y="965" on="0"/>
        <pt x="84" y="720" on="1"/>
        <pt x="84" y="571" on="0"/>
        <pt x="177" y="293" on="0"/>
        <pt x="396" y="44" on="0"/>
        <pt x="773" y="-169" on="0"/>
        <pt x="1337" y="-337" on="0"/>
      </contour>
      <contour>
        <pt x="946" y="348" on="1"/>
        <pt x="759" y="348" on="0"/>
        <pt x="568" y="544" on="0"/>
        <pt x="568" y="748" on="1"/>
        <pt x="568" y="937" on="0"/>
        <pt x="766" y="1132" on="0"/>
        <pt x="946" y="1132" on="1"/>
        <pt x="1126" y="1132" on="0"/>
        <pt x="1324" y="929" on="0"/>
        <pt x="1324" y="732" on="1"/>
        <pt x="1324" y="548" on="0"/>
        <pt x="1131" y="348" on="0"/>
      </contour>
    </TTGlyph>
    <TTGlyph name="R" xMin="130" yMin="0" xMax="1582" yMax="1500">
      <contour>
        <pt x="130" y="0" on="1"/>
        <pt x="596" y="0" on="1"/>
        <pt x="596" y="496" on="1"/>
        <pt x="624" y="495" on="0"/>
        <pt x="678" y="493" on="0"/>
        <pt x="704" y="492" on="1"/>
        <pt x="1060" y="0" on="1"/>
        <pt x="1582" y="0" on="1"/>
        <pt x="1161" y="573" on="1"/>
        <pt x="1290" y="634" on="0"/>
        <pt x="1432" y="847" on="0"/>
        <pt x="1432" y="998" on="1"/>
        <pt x="1432" y="1259" on="0"/>
        <pt x="1055" y="1500" on="0"/>
        <pt x="698" y="1500" on="1"/>
        <pt x="611" y="1500" on="0"/>
        <pt x="407" y="1482" on="0"/>
        <pt x="209" y="1451" on="0"/>
        <pt x="130" y="1432" on="1"/>
      </contour>
      <contour>
        <pt x="754" y="820" on="1"/>
        <pt x="718" y="820" on="0"/>
        <pt x="634" y="826" on="0"/>
        <pt x="596" y="830" on="1"/>
        <pt x="596" y="1162" on="1"/>
        <pt x="629" y="1168" on="0"/>
        <pt x="709" y="1176" on="0"/>
        <pt x="742" y="1176" on="1"/>
        <pt x="992" y="1176" on="0"/>
        <pt x="992" y="998" on="1"/>
        <pt x="992" y="901" on="0"/>
        <pt x="871" y="820" on="0"/>
      </contour>
    </TTGlyph>
    <TTGlyph name="Racute" xMin="130" yMin="0" xMax="1582" yMax="1902">
      <component glyphName="R" x="0" y="0" flags="0x204"/>
      <component glyphName="acutecomb.case" x="196" y="0" flags="0x4"/>
    </TTGlyph>
    <TTGlyph name="Rcaron" xMin="130" yMin="0" xMax="1582" yMax="1902">
      <component glyphName="R" x="0" y="0" flags="0x204"/>
      <component glyphName="caroncomb.case" x="196" y="0" flags="0x4"/>
    </TTGlyph>
    <TTGlyph name="Rcommaaccent" xMin="130" yMin="-520" xMax="1582" yMax="1500">
      <component glyphName="R" x="0" y="0" flags="0x204"/>
      <component glyphName="commaaccentcomb.case" x="218" y="0" flags="0x4"/>
    </TTGlyph>
    <TTGlyph name="Rdblgrave" xMin="130" yMin="0" xMax="1582" yMax="1902">
      <component glyphName="R" x="0" y="0" flags="0x204"/>
      <component glyphName="dblgravecomb.case" x="196" y="0" flags="0x4"/>
    </TTGlyph>
    <TTGlyph name="Rdotbelow" xMin="130" yMin="-464" xMax="1582" yMax="1500">
      <component glyphName="R" x="0" y="0" flags="0x204"/>
      <component glyphName="dotbelowcomb.case" x="218" y="0" flags="0x4"/>
    </TTGlyph>
    <TTGlyph name="Rinvertedbreve" xMin="130" yMin="0" xMax="1582" yMax="1902">
      <component glyphName="R" x="0" y="0" flags="0x204"/>
      <component glyphName="breveinvertedcomb.case" x="196" y="0" flags="0x4"/>
    </TTGlyph>
    <TTGlyph name="Rlinebelow" xMin="130" yMin="-398" xMax="1582" yMax="1500">
      <component glyphName="R" x="0" y="0" flags="0x204"/>
      <component glyphName="macronbelowcomb.case" x="218" y="0" flags="0x4"/>
    </TTGlyph>
    <TTGlyph name="S" xMin="64" yMin="-20" xMax="1314" yMax="1500">
      <contour>
        <pt x="616" y="-20" on="1"/>
        <pt x="832" y="-20" on="0"/>
        <pt x="1145" y="98" on="0"/>
        <pt x="1314" y="316" on="0"/>
        <pt x="1314" y="466" on="1"/>
        <pt x="1314" y="581" on="0"/>
        <pt x="1217" y="758" on="0"/>
        <pt x="995" y="882" on="0"/>
        <pt x="808" y="918" on="1"/>
        <pt x="664" y="946" on="1"/>
        <pt x="582" y="963" on="0"/>
        <pt x="530" y="1002" on="0"/>
        <pt x="530" y="1036" on="1"/>
        <pt x="530" y="1065" on="0"/>
        <pt x="579" y="1111" on="0"/>
        <pt x="706" y="1138" on="0"/>
        <pt x="824" y="1138" on="1"/>
        <pt x="934" y="1138" on="0"/>
        <pt x="1153" y="1109" on="0"/>
        <pt x="1228" y="1086" on="1"/>
        <pt x="1228" y="1454" on="1"/>
        <pt x="1149" y="1474" on="0"/>
        <pt x="936" y="1500" on="0"/>
        <pt x="810" y="1500" on="1"/>
        <pt x="435" y="1500" on="0"/>
        <pt x="64" y="1251" on="0"/>
        <pt x="64" y="1020" on="1"/>
        <pt x="64" y="842" on="0"/>
        <pt x="282" y="622" on="0"/>
        <pt x="538" y="572" on="1"/>
        <pt x="682" y="544" on="1"/>
        <pt x="786" y="525" on="0"/>
        <pt x="848" y="481" on="0"/>
        <pt x="848" y="442" on="1"/>
        <pt x="848" y="397" on="0"/>
        <pt x="760" y="342" on="0"/>
        <pt x="620" y="342" on="1"/>
        <pt x="545" y="342" on="0"/>
        <pt x="359" y="360" on="0"/>
        <pt x="176" y="394" on="0"/>
        <pt x="106" y="418" on="1"/>
        <pt x="106" y="50" on="1"/>
        <pt x="213" y="19" on="0"/>
        <pt x="465" y="-20" on="0"/>
      </contour>
    </TTGlyph>
    <TTGlyph name="Sacute" xMin="64" yMin="-20" xMax="1314" yMax="1902">
      <component glyphName="S" x="0" y="0" flags="0x204"/>
      <component glyphName="acutecomb.case" x="104" y="0" flags="0x4"/>
    </TTGlyph>
    <TTGlyph name="Sacutedotaccent" xMin="64" yMin="-20" xMax="1314" yMax="2150">
      <component glyphName="S" x="0" y="0" flags="0x204"/>
      <component glyphName="acutecomb_dotaccentcomb.case" x="104" y="0" flags="0x4"/>
    </TTGlyph>
    <TTGlyph name="Scaron" xMin="64" yMin="-20" xMax="1314" yMax="1902">
      <component glyphName="S" x="0" y="0" flags="0x204"/>
      <component glyphName="caroncomb.case" x="104" y="0" flags="0x4"/>
    </TTGlyph>
    <TTGlyph name="Scarondotaccent" xMin="64" yMin="-20" xMax="1314" yMax="2230">
      <component glyphName="S" x="0" y="0" flags="0x204"/>
      <component glyphName="caroncomb_dotaccentcomb.case" x="104" y="0" flags="0x4"/>
    </TTGlyph>
    <TTGlyph name="Scedilla" xMin="64" yMin="-460" xMax="1314" yMax="1500">
      <component glyphName="S" x="0" y="0" flags="0x204"/>
      <component glyphName="cedillacomb.case" x="104" y="0" flags="0x4"/>
    </TTGlyph>
    <TTGlyph name="Schwa" xMin="74" yMin="-20" xMax="1774" yMax="1500">
      <contour>
        <pt x="938" y="-20" on="1"/>
        <pt x="1203" y="-20" on="0"/>
        <pt x="1577" y="164" on="0"/>
        <pt x="1774" y="497" on="0"/>
        <pt x="1774" y="720" on="1"/>
        <pt x="1774" y="1118" on="0"/>
        <pt x="1245" y="1500" on="0"/>
        <pt x="706" y="1500" on="1"/>
        <pt x="582" y="1500" on="0"/>
        <pt x="318" y="1479" on="0"/>
        <pt x="196" y="1458" on="1"/>
        <pt x="196" y="1090" on="1"/>
        <pt x="306" y="1111" on="0"/>
        <pt x="558" y="1134" on="0"/>
        <pt x="672" y="1134" on="1"/>
        <pt x="922" y="1134" on="0"/>
        <pt x="1235" y="1016" on="0"/>
        <pt x="1287" y="872" on="1"/>
        <pt x="74" y="872" on="1"/>
        <pt x="74" y="740" on="1"/>
        <pt x="74" y="505" on="0"/>
        <pt x="282" y="164" on="0"/>
        <pt x="669" y="-20" on="0"/>
      </contour>
      <contour>
        <pt x="944" y="324" on="1"/>
        <pt x="784" y="324" on="0"/>
        <pt x="603" y="430" on="0"/>
        <pt x="572" y="550" on="1"/>
        <pt x="1295" y="550" on="1"/>
        <pt x="1264" y="426" on="0"/>
        <pt x="1089" y="324" on="0"/>
      </contour>
    </TTGlyph>
    <TTGlyph name="Scircumflex" xMin="64" yMin="-20" xMax="1314" yMax="1902">
      <component glyphName="S" x="0" y="0" flags="0x204"/>
      <component glyphName="circumflexcomb.case" x="104" y="0" flags="0x4"/>
    </TTGlyph>
    <TTGlyph name="Scommaaccent" xMin="64" yMin="-520" xMax="1314" yMax="1500">
      <component glyphName="S" x="0" y="0" flags="0x204"/>
      <component glyphName="commaaccentcomb.case" x="104" y="0" flags="0x4"/>
    </TTGlyph>
    <TTGlyph name="Sdotaccent" xMin="64" yMin="-20" xMax="1314" yMax="1930">
      <component glyphName="S" x="0" y="0" flags="0x204"/>
      <component glyphName="dotaccentcomb.case" x="104" y="0" flags="0x4"/>
    </TTGlyph>
    <TTGlyph name="Sdotbelow" xMin="64" yMin="-464" xMax="1314" yMax="1500">
      <component glyphName="S" x="0" y="0" flags="0x204"/>
      <component glyphName="dotbelowcomb.case" x="104" y="0" flags="0x4"/>
    </TTGlyph>
    <TTGlyph name="Sdotbelowdotaccent" xMin="64" yMin="-464" xMax="1314" yMax="1930">
      <component glyphName="S" x="0" y="0" flags="0x204"/>
      <component glyphName="dotbelowcomb.case" x="104" y="0" flags="0x4"/>
      <component glyphName="dotaccentcomb.case" x="104" y="0" flags="0x4"/>
    </TTGlyph>
    <TTGlyph name="T" xMin="22" yMin="0" xMax="1510" yMax="1480">
      <contour>
        <pt x="528" y="0" on="1"/>
        <pt x="1004" y="0" on="1"/>
        <pt x="1004" y="1112" on="1"/>
        <pt x="1510" y="1112" on="1"/>
        <pt x="1510" y="1480" on="1"/>
        <pt x="22" y="1480" on="1"/>
        <pt x="22" y="1112" on="1"/>
        <pt x="528" y="1112" on="1"/>
      </contour>
    </TTGlyph>
    <TTGlyph name="Tbar" xMin="22" yMin="0" xMax="1510" yMax="1480">
      <component glyphName="T" x="0" y="0" flags="0x204"/>
      <component glyphName="strokeshortcomb.case" x="26" y="-380" flags="0x4"/>
    </TTGlyph>
    <TTGlyph name="Tcaron" xMin="22" yMin="0" xMax="1510" yMax="1902">
      <component glyphName="T" x="0" y="0" flags="0x204"/>
      <component glyphName="caroncomb.case" x="166" y="0" flags="0x4"/>
    </TTGlyph>
    <TTGlyph name="Tcedilla" xMin="22" yMin="-460" xMax="1510" yMax="1480">
      <component glyphName="T" x="0" y="0" flags="0x204"/>
      <component glyphName="cedillacomb.case" x="166" y="0" flags="0x4"/>
    </TTGlyph>
    <TTGlyph name="Tcommaaccent" xMin="22" yMin="-520" xMax="1510" yMax="1480">
      <component glyphName="T" x="0" y="0" flags="0x204"/>
      <component glyphName="commaaccentcomb.case" x="166" y="0" flags="0x4"/>
    </TTGlyph>
    <TTGlyph name="Tdotbelow" xMin="22" yMin="-464" xMax="1510" yMax="1480">
      <component glyphName="T" x="0" y="0" flags="0x204"/>
      <component glyphName="dotbelowcomb.case" x="166" y="0" flags="0x4"/>
    </TTGlyph>
    <TTGlyph name="Thorn" xMin="130" yMin="0" xMax="1450" yMax="1480">
      <contour>
        <pt x="130" y="0" on="1"/>
        <pt x="606" y="0" on="1"/>
        <pt x="606" y="206" on="1"/>
        <pt x="635" y="206" on="0"/>
        <pt x="703" y="204" on="0"/>
        <pt x="734" y="204" on="1"/>
        <pt x="1085" y="204" on="0"/>
        <pt x="1450" y="483" on="0"/>
        <pt x="1450" y="760" on="1"/>
        <pt x="1450" y="1050" on="0"/>
        <pt x="1072" y="1316" on="0"/>
        <pt x="686" y="1316" on="1"/>
        <pt x="668" y="1316" on="0"/>
        <pt x="624" y="1314" on="0"/>
        <pt x="606" y="1314" on="1"/>
        <pt x="606" y="1480" on="1"/>
        <pt x="130" y="1480" on="1"/>
      </contour>
      <contour>
        <pt x="734" y="530" on="1"/>
        <pt x="698" y="530" on="0"/>
        <pt x="641" y="533" on="0"/>
        <pt x="606" y="536" on="1"/>
        <pt x="606" y="982" on="1"/>
        <pt x="657" y="990" on="0"/>
        <pt x="722" y="990" on="1"/>
        <pt x="863" y="990" on="0"/>
        <pt x="992" y="882" on="0"/>
        <pt x="992" y="760" on="1"/>
        <pt x="992" y="631" on="0"/>
        <pt x="866" y="530" on="0"/>
      </contour>
    </TTGlyph>
    <TTGlyph name="Tlinebelow" xMin="22" yMin="-398" xMax="1510" yMax="1480">
      <component glyphName="T" x="0" y="0" flags="0x204"/>
      <component glyphName="macronbelowcomb.case" x="166" y="0" flags="0x4"/>
    </TTGlyph>
    <TTGlyph name="U" xMin="124" yMin="-20" xMax="1632" yMax="1480">
      <contour>
        <pt x="882" y="-20" on="1"/>
        <pt x="1148" y="-20" on="0"/>
        <pt x="1479" y="150" on="0"/>
        <pt x="1632" y="470" on="0"/>
        <pt x="1632" y="694" on="1"/>
        <pt x="1632" y="1480" on="1"/>
        <pt x="1164" y="1480" on="1"/>
        <pt x="1164" y="656" on="1"/>
        <pt x="1164" y="502" on="0"/>
        <pt x="1023" y="356" on="0"/>
        <pt x="882" y="356" on="1"/>
        <pt x="741" y="356" on="0"/>
        <pt x="600" y="502" on="0"/>
        <pt x="600" y="656" on="1"/>
        <pt x="600" y="1480" on="1"/>
        <pt x="124" y="1480" on="1"/>
        <pt x="124" y="694" on="1"/>
        <pt x="124" y="470" on="0"/>
        <pt x="277" y="150" on="0"/>
        <pt x="611" y="-20" on="0"/>
      </contour>
    </TTGlyph>
    <TTGlyph name="Uacute" xMin="124" yMin="-20" xMax="1632" yMax="1902">
      <component glyphName="U" x="0" y="0" flags="0x204"/>
      <component glyphName="acutecomb.case" x="282" y="0" flags="0x4"/>
    </TTGlyph>
    <TTGlyph name="Ubreve" xMin="124" yMin="-20" xMax="1632" yMax="1902">
      <component glyphName="U" x="0" y="0" flags="0x204"/>
      <component glyphName="brevecomb.case" x="282" y="0" flags="0x4"/>
    </TTGlyph>
    <TTGlyph name="Ucircumflex" xMin="124" yMin="-20" xMax="1632" yMax="1902">
      <component glyphName="U" x="0" y="0" flags="0x204"/>
      <component glyphName="circumflexcomb.case" x="282" y="0" flags="0x4"/>
    </TTGlyph>
    <TTGlyph name="Udblgrave" xMin="124" yMin="-20" xMax="1632" yMax="1902">
      <component glyphName="U" x="0" y="0" flags="0x204"/>
      <component glyphName="dblgravecomb.case" x="282" y="0" flags="0x4"/>
    </TTGlyph>
    <TTGlyph name="Udieresis" xMin="124" yMin="-20" xMax="1632" yMax="1930">
      <component glyphName="U" x="0" y="0" flags="0x204"/>
      <component glyphName="dieresiscomb.case" x="282" y="0" flags="0x4"/>
    </TTGlyph>
    <TTGlyph name="Udotbelow" xMin="124" yMin="-464" xMax="1632" yMax="1480">
      <component glyphName="U" x="0" y="0" flags="0x204"/>
      <component glyphName="dotbelowcomb.case" x="282" y="0" flags="0x4"/>
    </TTGlyph>
    <TTGlyph name="Ugrave" xMin="124" yMin="-20" xMax="1632" yMax="1902">
      <component glyphName="U" x="0" y="0" flags="0x204"/>
      <component glyphName="gravecomb.case" x="282" y="0" flags="0x4"/>
    </TTGlyph>
    <TTGlyph name="Uhookabove" xMin="124" yMin="-20" xMax="1632" yMax="1930">
      <component glyphName="U" x="0" y="0" flags="0x204"/>
      <component glyphName="hookabovecomb.case" x="282" y="0" flags="0x4"/>
    </TTGlyph>
    <TTGlyph name="Uhorn" xMin="124" yMin="-20" xMax="1814" yMax="1776">
      <contour>
        <pt x="882" y="-20" on="1"/>
        <pt x="1148" y="-20" on="0"/>
        <pt x="1479" y="150" on="0"/>
        <pt x="1632" y="470" on="0"/>
        <pt x="1632" y="694" on="1"/>
        <pt x="1632" y="1312" on="1"/>
        <pt x="1718" y="1348" on="0"/>
        <pt x="1814" y="1504" on="0"/>
        <pt x="1814" y="1624" on="1"/>
        <pt x="1814" y="1656" on="0"/>
        <pt x="1808" y="1728" on="0"/>
        <pt x="1796" y="1776" on="1"/>
        <pt x="1506" y="1776" on="1"/>
        <pt x="1514" y="1727" on="0"/>
        <pt x="1518" y="1663" on="0"/>
        <pt x="1518" y="1636" on="1"/>
        <pt x="1518" y="1548" on="0"/>
        <pt x="1411" y="1480" on="0"/>
        <pt x="1300" y="1480" on="1"/>
        <pt x="1164" y="1480" on="1"/>
        <pt x="1164" y="656" on="1"/>
        <pt x="1164" y="502" on="0"/>
        <pt x="1023" y="356" on="0"/>
        <pt x="882" y="356" on="1"/>
        <pt x="741" y="356" on="0"/>
        <pt x="600" y="502" on="0"/>
        <pt x="600" y="656" on="1"/>
        <pt x="600" y="1480" on="1"/>
        <pt x="124" y="1480" on="1"/>
        <pt x="124" y="694" on="1"/>
        <pt x="124" y="470" on="0"/>
        <pt x="277" y="150" on="0"/>
        <pt x="611" y="-20" on="0"/>
      </contour>
    </TTGlyph>
    <TTGlyph name="Uhornacute" xMin="124" yMin="-20" xMax="1814" yMax="1902">
      <component glyphName="Uhorn" x="0" y="0" flags="0x204"/>
      <component glyphName="acutecomb.case" x="278" y="0" flags="0x4"/>
    </TTGlyph>
    <TTGlyph name="Uhorndotbelow" xMin="124" yMin="-464" xMax="1814" yMax="1776">
      <component glyphName="Uhorn" x="0" y="0" flags="0x204"/>
      <component glyphName="dotbelowcomb.case" x="278" y="0" flags="0x4"/>
    </TTGlyph>
    <TTGlyph name="Uhorngrave" xMin="124" yMin="-20" xMax="1814" yMax="1902">
      <component glyphName="Uhorn" x="0" y="0" flags="0x204"/>
      <component glyphName="gravecomb.case" x="278" y="0" flags="0x4"/>
    </TTGlyph>
    <TTGlyph name="Uhornhookabove" xMin="124" yMin="-20" xMax="1814" yMax="1930">
      <component glyphName="Uhorn" x="0" y="0" flags="0x204"/>
      <component glyphName="hookabovecomb.case" x="278" y="0" flags="0x4"/>
    </TTGlyph>
    <TTGlyph name="Uhorntilde" xMin="124" yMin="-20" xMax="1814" yMax="1902">
      <component glyphName="Uhorn" x="0" y="0" flags="0x204"/>
      <component glyphName="tildecomb.case" x="278" y="0" flags="0x4"/>
    </TTGlyph>
    <TTGlyph name="Uhungarumlaut" xMin="124" yMin="-20" xMax="1632" yMax="1902">
      <component glyphName="U" x="0" y="0" flags="0x204"/>
      <component glyphName="hungarumlautcomb.case" x="282" y="0" flags="0x4"/>
    </TTGlyph>
    <TTGlyph name="Uinvertedbreve" xMin="124" yMin="-20" xMax="1632" yMax="1902">
      <component glyphName="U" x="0" y="0" flags="0x204"/>
      <component glyphName="breveinvertedcomb.case" x="282" y="0" flags="0x4"/>
    </TTGlyph>
    <TTGlyph name="Umacron" xMin="124" yMin="-20" xMax="1632" yMax="1870">
      <component glyphName="U" x="0" y="0" flags="0x204"/>
      <component glyphName="macroncomb.case" x="282" y="0" flags="0x4"/>
    </TTGlyph>
    <TTGlyph name="Umacrondieresis" xMin="124" yMin="-20" xMax="1632" yMax="2330">
      <component glyphName="U" x="0" y="0" flags="0x204"/>
      <component glyphName="macroncomb_dieresiscomb.case" x="282" y="0" flags="0x4"/>
    </TTGlyph>
    <TTGlyph name="Uogonek" xMin="124" yMin="-460" xMax="1632" yMax="1480">
      <contour>
        <pt x="970" y="-460" on="1"/>
        <pt x="1033" y="-460" on="0"/>
        <pt x="1131" y="-443" on="0"/>
        <pt x="1174" y="-430" on="1"/>
        <pt x="1174" y="-270" on="1"/>
        <pt x="1132" y="-283" on="0"/>
        <pt x="1066" y="-294" on="0"/>
        <pt x="1042" y="-294" on="1"/>
        <pt x="964" y="-294" on="0"/>
        <pt x="894" y="-241" on="0"/>
        <pt x="894" y="-196" on="1"/>
        <pt x="894" y="-157" on="0"/>
        <pt x="946" y="-86" on="0"/>
        <pt x="1080" y="-16" on="0"/>
        <pt x="1204" y="22" on="1"/>
        <pt x="1429" y="91" on="0"/>
        <pt x="1632" y="436" on="0"/>
        <pt x="1632" y="694" on="1"/>
        <pt x="1632" y="1480" on="1"/>
        <pt x="1164" y="1480" on="1"/>
        <pt x="1164" y="656" on="1"/>
        <pt x="1164" y="502" on="0"/>
        <pt x="1023" y="356" on="0"/>
        <pt x="882" y="356" on="1"/>
        <pt x="741" y="356" on="0"/>
        <pt x="600" y="502" on="0"/>
        <pt x="600" y="656" on="1"/>
        <pt x="600" y="1480" on="1"/>
        <pt x="124" y="1480" on="1"/>
        <pt x="124" y="694" on="1"/>
        <pt x="124" y="486" on="0"/>
        <pt x="255" y="180" on="0"/>
        <pt x="540" y="2" on="0"/>
        <pt x="771" y="-16" on="1"/>
        <pt x="698" y="-62" on="0"/>
        <pt x="638" y="-174" on="0"/>
        <pt x="638" y="-234" on="1"/>
        <pt x="638" y="-336" on="0"/>
        <pt x="801" y="-460" on="0"/>
      </contour>
    </TTGlyph>
    <TTGlyph name="Uring" xMin="124" yMin="-20" xMax="1632" yMax="2010">
      <component glyphName="U" x="0" y="0" flags="0x204"/>
      <component glyphName="ringcomb.case" x="282" y="0" flags="0x4"/>
    </TTGlyph>
    <TTGlyph name="Utilde" xMin="124" yMin="-20" xMax="1632" yMax="1902">
      <component glyphName="U" x="0" y="0" flags="0x204"/>
      <component glyphName="tildecomb.case" x="282" y="0" flags="0x4"/>
    </TTGlyph>
    <TTGlyph name="Utildeacute" xMin="124" yMin="-20" xMax="1632" yMax="2218">
      <component glyphName="U" x="0" y="0" flags="0x204"/>
      <component glyphName="tildecomb_acutecomb.case" x="282" y="0" flags="0x4"/>
    </TTGlyph>
    <TTGlyph name="V" xMin="6" yMin="0" xMax="1734" yMax="1480">
      <contour>
        <pt x="526" y="0" on="1"/>
        <pt x="1214" y="0" on="1"/>
        <pt x="1734" y="1480" on="1"/>
        <pt x="1266" y="1480" on="1"/>
        <pt x="883" y="361" on="1"/>
        <pt x="508" y="1480" on="1"/>
        <pt x="6" y="1480" on="1"/>
      </contour>
    </TTGlyph>
    <TTGlyph name="W" xMin="24" yMin="0" xMax="2724" yMax="1480">
      <contour>
        <pt x="466" y="0" on="1"/>
        <pt x="1066" y="0" on="1"/>
        <pt x="1380" y="1021" on="1"/>
        <pt x="1682" y="0" on="1"/>
        <pt x="2282" y="0" on="1"/>
        <pt x="2724" y="1480" on="1"/>
        <pt x="2272" y="1480" on="1"/>
        <pt x="1962" y="395" on="1"/>
        <pt x="1646" y="1480" on="1"/>
        <pt x="1126" y="1480" on="1"/>
        <pt x="801" y="417" on="1"/>
        <pt x="504" y="1480" on="1"/>
        <pt x="24" y="1480" on="1"/>
      </contour>
    </TTGlyph>
    <TTGlyph name="Wacute" xMin="24" yMin="0" xMax="2724" yMax="1902">
      <component glyphName="W" x="0" y="0" flags="0x204"/>
      <component glyphName="acutecomb.case" x="774" y="0" flags="0x4"/>
    </TTGlyph>
    <TTGlyph name="Wcircumflex" xMin="24" yMin="0" xMax="2724" yMax="1902">
      <component glyphName="W" x="0" y="0" flags="0x204"/>
      <component glyphName="circumflexcomb.case" x="774" y="0" flags="0x4"/>
    </TTGlyph>
    <TTGlyph name="Wdieresis" xMin="24" yMin="0" xMax="2724" yMax="1930">
      <component glyphName="W" x="0" y="0" flags="0x204"/>
      <component glyphName="dieresiscomb.case" x="774" y="0" flags="0x4"/>
    </TTGlyph>
    <TTGlyph name="Wgrave" xMin="24" yMin="0" xMax="2724" yMax="1902">
      <component glyphName="W" x="0" y="0" flags="0x204"/>
      <component glyphName="gravecomb.case" x="774" y="0" flags="0x4"/>
    </TTGlyph>
    <TTGlyph name="X" xMin="-68" yMin="0" xMax="1662" yMax="1480">
      <contour>
        <pt x="-68" y="0" on="1"/>
        <pt x="444" y="0" on="1"/>
        <pt x="788" y="470" on="1"/>
        <pt x="1134" y="0" on="1"/>
        <pt x="1662" y="0" on="1"/>
        <pt x="1072" y="782" on="1"/>
        <pt x="1598" y="1480" on="1"/>
        <pt x="1088" y="1480" on="1"/>
        <pt x="798" y="1086" on="1"/>
        <pt x="506" y="1480" on="1"/>
        <pt x="-22" y="1480" on="1"/>
        <pt x="514" y="774" on="1"/>
      </contour>
    </TTGlyph>
    <TTGlyph name="Y" xMin="-60" yMin="0" xMax="1572" yMax="1480">
      <contour>
        <pt x="532" y="0" on="1"/>
        <pt x="1008" y="0" on="1"/>
        <pt x="1008" y="608" on="1"/>
        <pt x="1572" y="1480" on="1"/>
        <pt x="1104" y="1480" on="1"/>
        <pt x="777" y="973" on="1"/>
        <pt x="442" y="1480" on="1"/>
        <pt x="-60" y="1480" on="1"/>
        <pt x="532" y="602" on="1"/>
      </contour>
    </TTGlyph>
    <TTGlyph name="Yacute" xMin="-60" yMin="0" xMax="1572" yMax="1902">
      <component glyphName="Y" x="0" y="0" flags="0x204"/>
      <component glyphName="acutecomb.case" x="164" y="0" flags="0x4"/>
    </TTGlyph>
    <TTGlyph name="Ycircumflex" xMin="-60" yMin="0" xMax="1572" yMax="1902">
      <component glyphName="Y" x="0" y="0" flags="0x204"/>
      <component glyphName="circumflexcomb.case" x="164" y="0" flags="0x4"/>
    </TTGlyph>
    <TTGlyph name="Ydieresis" xMin="-60" yMin="0" xMax="1572" yMax="1930">
      <component glyphName="Y" x="0" y="0" flags="0x204"/>
      <component glyphName="dieresiscomb.case" x="164" y="0" flags="0x4"/>
    </TTGlyph>
    <TTGlyph name="Ydotaccent" xMin="-60" yMin="0" xMax="1572" yMax="1930">
      <component glyphName="Y" x="0" y="0" flags="0x204"/>
      <component glyphName="dotaccentcomb.case" x="164" y="0" flags="0x4"/>
    </TTGlyph>
    <TTGlyph name="Ydotbelow" xMin="-60" yMin="-464" xMax="1572" yMax="1480">
      <component glyphName="Y" x="0" y="0" flags="0x204"/>
      <component glyphName="dotbelowcomb.case" x="164" y="0" flags="0x4"/>
    </TTGlyph>
    <TTGlyph name="Ygrave" xMin="-60" yMin="0" xMax="1572" yMax="1902">
      <component glyphName="Y" x="0" y="0" flags="0x204"/>
      <component glyphName="gravecomb.case" x="164" y="0" flags="0x4"/>
    </TTGlyph>
    <TTGlyph name="Yhookabove" xMin="-60" yMin="0" xMax="1572" yMax="1930">
      <component glyphName="Y" x="0" y="0" flags="0x204"/>
      <component glyphName="hookabovecomb.case" x="164" y="0" flags="0x4"/>
    </TTGlyph>
    <TTGlyph name="Ymacron" xMin="-60" yMin="0" xMax="1572" yMax="1870">
      <component glyphName="Y" x="0" y="0" flags="0x204"/>
      <component glyphName="macroncomb.case" x="164" y="0" flags="0x4"/>
    </TTGlyph>
    <TTGlyph name="Ytilde" xMin="-60" yMin="0" xMax="1572" yMax="1902">
      <component glyphName="Y" x="0" y="0" flags="0x204"/>
      <component glyphName="tildecomb.case" x="164" y="0" flags="0x4"/>
    </TTGlyph>
    <TTGlyph name="Z" xMin="84" yMin="0" xMax="1398" yMax="1480">
      <contour>
        <pt x="84" y="0" on="1"/>
        <pt x="1398" y="0" on="1"/>
        <pt x="1398" y="368" on="1"/>
        <pt x="699" y="368" on="1"/>
        <pt x="1388" y="1226" on="1"/>
        <pt x="1388" y="1480" on="1"/>
        <pt x="94" y="1480" on="1"/>
        <pt x="94" y="1112" on="1"/>
        <pt x="773" y="1112" on="1"/>
        <pt x="84" y="254" on="1"/>
      </contour>
    </TTGlyph>
    <TTGlyph name="Zacute" xMin="84" yMin="0" xMax="1398" yMax="1902">
      <component glyphName="Z" x="0" y="0" flags="0x204"/>
      <component glyphName="acutecomb.case" x="142" y="0" flags="0x4"/>
    </TTGlyph>
    <TTGlyph name="Zcaron" xMin="84" yMin="0" xMax="1398" yMax="1902">
      <component glyphName="Z" x="0" y="0" flags="0x204"/>
      <component glyphName="caroncomb.case" x="142" y="0" flags="0x4"/>
    </TTGlyph>
    <TTGlyph name="Zdotaccent" xMin="84" yMin="0" xMax="1398" yMax="1930">
      <component glyphName="Z" x="0" y="0" flags="0x204"/>
      <component glyphName="dotaccentcomb.case" x="142" y="0" flags="0x4"/>
    </TTGlyph>
    <TTGlyph name="Zdotbelow" xMin="84" yMin="-464" xMax="1398" yMax="1480">
      <component glyphName="Z" x="0" y="0" flags="0x204"/>
      <component glyphName="dotbelowcomb.case" x="142" y="0" flags="0x4"/>
    </TTGlyph>
    <TTGlyph name="a" xMin="58" yMin="-22" xMax="1236" yMax="1118">
      <contour>
        <pt x="488" y="-22" on="1"/>
        <pt x="581" y="-22" on="0"/>
        <pt x="744" y="30" on="0"/>
        <pt x="802" y="90" on="1"/>
        <pt x="822" y="90" on="1"/>
        <pt x="852" y="0" on="1"/>
        <pt x="1236" y="0" on="1"/>
        <pt x="1236" y="574" on="1"/>
        <pt x="1236" y="779" on="0"/>
        <pt x="1106" y="1017" on="0"/>
        <pt x="824" y="1118" on="0"/>
        <pt x="596" y="1118" on="1"/>
        <pt x="503" y="1118" on="0"/>
        <pt x="274" y="1093" on="0"/>
        <pt x="172" y="1066" on="1"/>
        <pt x="172" y="744" on="1"/>
        <pt x="253" y="767" on="0"/>
        <pt x="442" y="790" on="0"/>
        <pt x="512" y="790" on="1"/>
        <pt x="639" y="790" on="0"/>
        <pt x="759" y="738" on="0"/>
        <pt x="775" y="678" on="1"/>
        <pt x="612" y="670" on="1"/>
        <pt x="323" y="657" on="0"/>
        <pt x="58" y="473" on="0"/>
        <pt x="58" y="312" on="1"/>
        <pt x="58" y="171" on="0"/>
        <pt x="272" y="-22" on="0"/>
      </contour>
      <contour>
        <pt x="516" y="350" on="1"/>
        <pt x="516" y="388" on="0"/>
        <pt x="579" y="434" on="0"/>
        <pt x="658" y="438" on="1"/>
        <pt x="782" y="444" on="1"/>
        <pt x="782" y="300" on="1"/>
        <pt x="749" y="284" on="0"/>
        <pt x="673" y="272" on="0"/>
        <pt x="640" y="272" on="1"/>
        <pt x="577" y="272" on="0"/>
        <pt x="516" y="316" on="0"/>
      </contour>
    </TTGlyph>
    <TTGlyph name="a.sc" xMin="18" yMin="0" xMax="1554" yMax="1190">
      <contour>
        <pt x="18" y="0" on="1"/>
        <pt x="474" y="0" on="1"/>
        <pt x="551" y="238" on="1"/>
        <pt x="1017" y="238" on="1"/>
        <pt x="1094" y="0" on="1"/>
        <pt x="1554" y="0" on="1"/>
        <pt x="1128" y="1190" on="1"/>
        <pt x="444" y="1190" on="1"/>
      </contour>
      <contour>
        <pt x="653" y="556" on="1"/>
        <pt x="784" y="962" on="1"/>
        <pt x="915" y="556" on="1"/>
      </contour>
    </TTGlyph>
    <TTGlyph name="aacute" xMin="58" yMin="-22" xMax="1236" yMax="1616">
      <component glyphName="a" x="0" y="0" flags="0x204"/>
      <component glyphName="acutecomb" x="68" y="0" flags="0x4"/>
    </TTGlyph>
    <TTGlyph name="aacute.sc" xMin="18" yMin="0" xMax="1554" yMax="1612">
      <component glyphName="a.sc" x="0" y="0" flags="0x204"/>
      <component glyphName="acutecomb.sc" x="184" y="-290" flags="0x4"/>
    </TTGlyph>
    <TTGlyph name="abreve" xMin="58" yMin="-22" xMax="1236" yMax="1596">
      <component glyphName="a" x="0" y="0" flags="0x204"/>
      <component glyphName="brevecomb" x="68" y="0" flags="0x4"/>
    </TTGlyph>
    <TTGlyph name="abreve.sc" xMin="18" yMin="0" xMax="1554" yMax="1612">
      <component glyphName="a.sc" x="0" y="0" flags="0x204"/>
      <component glyphName="brevecomb.sc" x="184" y="-290" flags="0x4"/>
    </TTGlyph>
    <TTGlyph name="abreveacute" xMin="58" yMin="-22" xMax="1236" yMax="1868">
      <component glyphName="a" x="0" y="0" flags="0x204"/>
      <component glyphName="brevecomb_acutecomb" x="68" y="0" flags="0x4"/>
    </TTGlyph>
    <TTGlyph name="abreveacute.sc" xMin="18" yMin="0" xMax="1554" yMax="1774">
      <component glyphName="a.sc" x="0" y="0" flags="0x204"/>
      <component glyphName="brevecomb_acutecomb.sc" x="184" y="-290" flags="0x4"/>
    </TTGlyph>
    <TTGlyph name="abrevedotbelow" xMin="58" yMin="-500" xMax="1236" yMax="1596">
      <component glyphName="a" x="0" y="0" flags="0x204"/>
      <component glyphName="dotbelowcomb" x="68" y="0" flags="0x4"/>
      <component glyphName="brevecomb" x="68" y="0" flags="0x4"/>
    </TTGlyph>
    <TTGlyph name="abrevedotbelow.sc" xMin="18" yMin="-464" xMax="1554" yMax="1612">
      <component glyphName="a.sc" x="0" y="0" flags="0x204"/>
      <component glyphName="dotbelowcomb.sc" x="186" y="0" flags="0x4"/>
      <component glyphName="brevecomb.sc" x="184" y="-290" flags="0x4"/>
    </TTGlyph>
    <TTGlyph name="abrevegrave" xMin="58" yMin="-22" xMax="1236" yMax="1868">
      <component glyphName="a" x="0" y="0" flags="0x204"/>
      <component glyphName="brevecomb_gravecomb" x="68" y="0" flags="0x4"/>
    </TTGlyph>
    <TTGlyph name="abrevegrave.sc" xMin="18" yMin="0" xMax="1554" yMax="1774">
      <component glyphName="a.sc" x="0" y="0" flags="0x204"/>
      <component glyphName="brevecomb_gravecomb.sc" x="184" y="-290" flags="0x4"/>
    </TTGlyph>
    <TTGlyph name="abrevehookabove" xMin="58" yMin="-22" xMax="1236" yMax="1894">
      <component glyphName="a" x="0" y="0" flags="0x204"/>
      <component glyphName="brevecomb_hookabovecomb" x="68" y="0" flags="0x4"/>
    </TTGlyph>
    <TTGlyph name="abrevehookabove.sc" xMin="18" yMin="0" xMax="1554" yMax="1834">
      <component glyphName="a.sc" x="0" y="0" flags="0x204"/>
      <component glyphName="brevecomb_hookabovecomb.sc" x="184" y="-290" flags="0x4"/>
    </TTGlyph>
    <TTGlyph name="abrevetilde" xMin="58" yMin="-22" xMax="1236" yMax="1868">
      <component glyphName="a" x="0" y="0" flags="0x204"/>
      <component glyphName="brevecomb_tildecomb" x="68" y="0" flags="0x4"/>
    </TTGlyph>
    <TTGlyph name="abrevetilde.sc" xMin="18" yMin="0" xMax="1554" yMax="1842">
      <component glyphName="a.sc" x="0" y="0" flags="0x204"/>
      <component glyphName="brevecomb_tildecomb.sc" x="184" y="-290" flags="0x4"/>
    </TTGlyph>
    <TTGlyph name="acircumflex" xMin="58" yMin="-22" xMax="1236" yMax="1616">
      <component glyphName="a" x="0" y="0" flags="0x204"/>
      <component glyphName="circumflexcomb" x="68" y="0" flags="0x4"/>
    </TTGlyph>
    <TTGlyph name="acircumflex.sc" xMin="18" yMin="0" xMax="1554" yMax="1612">
      <component glyphName="a.sc" x="0" y="0" flags="0x204"/>
      <component glyphName="circumflexcomb.sc" x="184" y="-290" flags="0x4"/>
    </TTGlyph>
    <TTGlyph name="acircumflexacute" xMin="58" yMin="-22" xMax="1510" yMax="1868">
      <component glyphName="a" x="0" y="0" flags="0x204"/>
      <component glyphName="circumflexcomb_acutecomb" x="68" y="0" flags="0x4"/>
    </TTGlyph>
    <TTGlyph name="acircumflexacute.sc" xMin="18" yMin="0" xMax="1554" yMax="1774">
      <component glyphName="a.sc" x="0" y="0" flags="0x204"/>
      <component glyphName="circumflexcomb_acutecomb.sc" x="184" y="-290" flags="0x4"/>
    </TTGlyph>
    <TTGlyph name="acircumflexdotbelow" xMin="58" yMin="-500" xMax="1236" yMax="1616">
      <component glyphName="a" x="0" y="0" flags="0x204"/>
      <component glyphName="dotbelowcomb" x="68" y="0" flags="0x4"/>
      <component glyphName="circumflexcomb" x="68" y="0" flags="0x4"/>
    </TTGlyph>
    <TTGlyph name="acircumflexdotbelow.sc" xMin="18" yMin="-464" xMax="1554" yMax="1612">
      <component glyphName="a.sc" x="0" y="0" flags="0x204"/>
      <component glyphName="dotbelowcomb.sc" x="186" y="0" flags="0x4"/>
      <component glyphName="circumflexcomb.sc" x="184" y="-290" flags="0x4"/>
    </TTGlyph>
    <TTGlyph name="acircumflexgrave" xMin="58" yMin="-22" xMax="1278" yMax="1868">
      <component glyphName="a" x="0" y="0" flags="0x204"/>
      <component glyphName="circumflexcomb_gravecomb" x="68" y="0" flags="0x4"/>
    </TTGlyph>
    <TTGlyph name="acircumflexgrave.sc" xMin="18" yMin="0" xMax="1554" yMax="1774">
      <component glyphName="a.sc" x="0" y="0" flags="0x204"/>
      <component glyphName="circumflexcomb_gravecomb.sc" x="184" y="-290" flags="0x4"/>
    </TTGlyph>
    <TTGlyph name="acircumflexhookabove" xMin="58" yMin="-22" xMax="1272" yMax="1894">
      <component glyphName="a" x="0" y="0" flags="0x204"/>
      <component glyphName="circumflexcomb_hookabovecomb" x="68" y="0" flags="0x4"/>
    </TTGlyph>
    <TTGlyph name="acircumflexhookabove.sc" xMin="18" yMin="0" xMax="1554" yMax="1834">
      <component glyphName="a.sc" x="0" y="0" flags="0x204"/>
      <component glyphName="circumflexcomb_hookabovecomb.sc" x="184" y="-290" flags="0x4"/>
    </TTGlyph>
    <TTGlyph name="acircumflextilde" xMin="58" yMin="-22" xMax="1236" yMax="1868">
      <component glyphName="a" x="0" y="0" flags="0x204"/>
      <component glyphName="circumflexcomb_tildecomb" x="68" y="0" flags="0x4"/>
    </TTGlyph>
    <TTGlyph name="acircumflextilde.sc" xMin="18" yMin="0" xMax="1554" yMax="1842">
      <component glyphName="a.sc" x="0" y="0" flags="0x204"/>
      <component glyphName="circumflexcomb_tildecomb.sc" x="184" y="-290" flags="0x4"/>
    </TTGlyph>
    <TTGlyph name="acute" xMin="380" yMin="1220" xMax="1146" yMax="1616">
      <component glyphName="acutecomb" x="0" y="0" flags="0x4"/>
    </TTGlyph>
    <TTGlyph name="acutecomb" xMin="380" yMin="1220" xMax="1146" yMax="1616">
      <contour>
        <pt x="380" y="1220" on="1"/>
        <pt x="820" y="1220" on="1"/>
        <pt x="1146" y="1616" on="1"/>
        <pt x="638" y="1616" on="1"/>
      </contour>
    </TTGlyph>
    <TTGlyph name="acutecomb.case" xMin="386" yMin="1586" xMax="1078" yMax="1902">
      <contour>
        <pt x="386" y="1586" on="1"/>
        <pt x="806" y="1586" on="1"/>
        <pt x="1078" y="1902" on="1"/>
        <pt x="590" y="1902" on="1"/>
      </contour>
    </TTGlyph>
    <TTGlyph name="acutecomb.sc" xMin="386" yMin="1586" xMax="1078" yMax="1902">
      <component glyphName="acutecomb.case" x="0" y="0" flags="0x204"/>
    </TTGlyph>
    <TTGlyph name="acutecomb_dotaccentcomb" xMin="146" yMin="1220" xMax="1146" yMax="1864">
      <contour>
        <pt x="360" y="1576" on="1"/>
        <pt x="476" y="1576" on="0"/>
        <pt x="574" y="1657" on="0"/>
        <pt x="574" y="1720" on="1"/>
        <pt x="574" y="1783" on="0"/>
        <pt x="476" y="1864" on="0"/>
        <pt x="360" y="1864" on="1"/>
        <pt x="245" y="1864" on="0"/>
        <pt x="146" y="1783" on="0"/>
        <pt x="146" y="1720" on="1"/>
        <pt x="146" y="1657" on="0"/>
        <pt x="245" y="1576" on="0"/>
      </contour>
      <contour>
        <pt x="380" y="1220" on="1"/>
        <pt x="820" y="1220" on="1"/>
        <pt x="1146" y="1616" on="1"/>
        <pt x="638" y="1616" on="1"/>
      </contour>
    </TTGlyph>
    <TTGlyph name="acutecomb_dotaccentcomb.case" xMin="86" yMin="1586" xMax="1078" yMax="2150">
      <contour>
        <pt x="300" y="1862" on="1"/>
        <pt x="416" y="1862" on="0"/>
        <pt x="514" y="1943" on="0"/>
        <pt x="514" y="2006" on="1"/>
        <pt x="514" y="2069" on="0"/>
        <pt x="416" y="2150" on="0"/>
        <pt x="300" y="2150" on="1"/>
        <pt x="185" y="2150" on="0"/>
        <pt x="86" y="2069" on="0"/>
        <pt x="86" y="2006" on="1"/>
        <pt x="86" y="1943" on="0"/>
        <pt x="185" y="1862" on="0"/>
      </contour>
      <contour>
        <pt x="386" y="1586" on="1"/>
        <pt x="806" y="1586" on="1"/>
        <pt x="1078" y="1902" on="1"/>
        <pt x="590" y="1902" on="1"/>
      </contour>
    </TTGlyph>
    <TTGlyph name="acutecomb_dotaccentcomb.sc" xMin="86" yMin="1586" xMax="1078" yMax="2150">
      <component glyphName="acutecomb_dotaccentcomb.case" x="0" y="0" flags="0x204"/>
    </TTGlyph>
    <TTGlyph name="adblgrave" xMin="58" yMin="-22" xMax="1236" yMax="1616">
      <component glyphName="a" x="0" y="0" flags="0x204"/>
      <component glyphName="dblgravecomb" x="68" y="0" flags="0x4"/>
    </TTGlyph>
    <TTGlyph name="adblgrave.sc" xMin="18" yMin="0" xMax="1554" yMax="1612">
      <component glyphName="a.sc" x="0" y="0" flags="0x204"/>
      <component glyphName="dblgravecomb.sc" x="184" y="-290" flags="0x4"/>
    </TTGlyph>
    <TTGlyph name="adieresis" xMin="58" yMin="-22" xMax="1236" yMax="1626">
      <component glyphName="a" x="0" y="0" flags="0x204"/>
      <component glyphName="dieresiscomb" x="68" y="0" flags="0x4"/>
    </TTGlyph>
    <TTGlyph name="adieresis.sc" xMin="18" yMin="0" xMax="1554" yMax="1640">
      <component glyphName="a.sc" x="0" y="0" flags="0x204"/>
      <component glyphName="dieresiscomb.sc" x="184" y="-290" flags="0x4"/>
    </TTGlyph>
    <TTGlyph name="adotbelow" xMin="58" yMin="-500" xMax="1236" yMax="1118">
      <component glyphName="a" x="0" y="0" flags="0x204"/>
      <component glyphName="dotbelowcomb" x="68" y="0" flags="0x4"/>
    </TTGlyph>
    <TTGlyph name="adotbelow.sc" xMin="18" yMin="-464" xMax="1554" yMax="1190">
      <component glyphName="a.sc" x="0" y="0" flags="0x204"/>
      <component glyphName="dotbelowcomb.sc" x="186" y="0" flags="0x4"/>
    </TTGlyph>
    <TTGlyph name="ae" xMin="58" yMin="-22" xMax="1978" yMax="1118">
      <contour>
        <pt x="528" y="-22" on="1"/>
        <pt x="641" y="-22" on="0"/>
        <pt x="859" y="50" on="0"/>
        <pt x="950" y="123" on="1"/>
        <pt x="1127" y="-22" on="0"/>
        <pt x="1518" y="-22" on="1"/>
        <pt x="1604" y="-22" on="0"/>
        <pt x="1796" y="-10" on="0"/>
        <pt x="1902" y="8" on="1"/>
        <pt x="1902" y="326" on="1"/>
        <pt x="1827" y="316" on="0"/>
        <pt x="1661" y="302" on="0"/>
        <pt x="1592" y="302" on="1"/>
        <pt x="1460" y="302" on="0"/>
        <pt x="1312" y="327" on="0"/>
        <pt x="1247" y="382" on="0"/>
        <pt x="1239" y="428" on="1"/>
        <pt x="1978" y="428" on="1"/>
        <pt x="1978" y="530" on="1"/>
        <pt x="1978" y="802" on="0"/>
        <pt x="1692" y="1118" on="0"/>
        <pt x="1422" y="1118" on="1"/>
        <pt x="1305" y="1118" on="0"/>
        <pt x="1110" y="1054" on="0"/>
        <pt x="1036" y="996" on="1"/>
        <pt x="963" y="1062" on="0"/>
        <pt x="734" y="1118" on="0"/>
        <pt x="576" y="1118" on="1"/>
        <pt x="483" y="1118" on="0"/>
        <pt x="274" y="1093" on="0"/>
        <pt x="172" y="1066" on="1"/>
        <pt x="172" y="744" on="1"/>
        <pt x="253" y="767" on="0"/>
        <pt x="442" y="790" on="0"/>
        <pt x="512" y="790" on="1"/>
        <pt x="644" y="790" on="0"/>
        <pt x="764" y="734" on="0"/>
        <pt x="777" y="668" on="1"/>
        <pt x="612" y="668" on="1"/>
        <pt x="323" y="668" on="0"/>
        <pt x="58" y="478" on="0"/>
        <pt x="58" y="314" on="1"/>
        <pt x="58" y="219" on="0"/>
        <pt x="156" y="67" on="0"/>
        <pt x="364" y="-22" on="0"/>
      </contour>
      <contour>
        <pt x="1394" y="846" on="1"/>
        <pt x="1545" y="846" on="0"/>
        <pt x="1552" y="668" on="1"/>
        <pt x="1236" y="668" on="1"/>
        <pt x="1242" y="846" on="0"/>
      </contour>
      <contour>
        <pt x="642" y="272" on="1"/>
        <pt x="516" y="272" on="0"/>
        <pt x="516" y="348" on="1"/>
        <pt x="516" y="386" on="0"/>
        <pt x="577" y="432" on="0"/>
        <pt x="656" y="432" on="1"/>
        <pt x="789" y="432" on="1"/>
        <pt x="797" y="372" on="0"/>
        <pt x="815" y="321" on="1"/>
        <pt x="771" y="293" on="0"/>
        <pt x="691" y="272" on="0"/>
      </contour>
    </TTGlyph>
    <TTGlyph name="ae.sc" xMin="18" yMin="0" xMax="2040" yMax="1190">
      <contour>
        <pt x="18" y="0" on="1"/>
        <pt x="472" y="0" on="1"/>
        <pt x="551" y="244" on="1"/>
        <pt x="955" y="244" on="1"/>
        <pt x="978" y="0" on="1"/>
        <pt x="2040" y="0" on="1"/>
        <pt x="2040" y="314" on="1"/>
        <pt x="1408" y="314" on="1"/>
        <pt x="1394" y="446" on="1"/>
        <pt x="1940" y="446" on="1"/>
        <pt x="1940" y="760" on="1"/>
        <pt x="1360" y="760" on="1"/>
        <pt x="1348" y="876" on="1"/>
        <pt x="2032" y="876" on="1"/>
        <pt x="2032" y="1190" on="1"/>
        <pt x="442" y="1190" on="1"/>
      </contour>
      <contour>
        <pt x="754" y="876" on="1"/>
        <pt x="897" y="876" on="1"/>
        <pt x="926" y="558" on="1"/>
        <pt x="652" y="558" on="1"/>
      </contour>
    </TTGlyph>
    <TTGlyph name="aeacute" xMin="58" yMin="-22" xMax="1978" yMax="1616">
      <component glyphName="ae" x="0" y="0" flags="0x204"/>
      <component glyphName="acutecomb" x="422" y="0" flags="0x4"/>
    </TTGlyph>
    <TTGlyph name="aeacute.sc" xMin="18" yMin="0" xMax="2040" yMax="1612">
      <component glyphName="ae.sc" x="0" y="0" flags="0x204"/>
      <component glyphName="acutecomb.sc" x="514" y="-290" flags="0x4"/>
    </TTGlyph>
    <TTGlyph name="agrave" xMin="58" yMin="-22" xMax="1236" yMax="1616">
      <component glyphName="a" x="0" y="0" flags="0x204"/>
      <component glyphName="gravecomb" x="68" y="0" flags="0x4"/>
    </TTGlyph>
    <TTGlyph name="agrave.sc" xMin="18" yMin="0" xMax="1554" yMax="1612">
      <component glyphName="a.sc" x="0" y="0" flags="0x204"/>
      <component glyphName="gravecomb.sc" x="184" y="-290" flags="0x4"/>
    </TTGlyph>
    <TTGlyph name="ahookabove" xMin="58" yMin="-22" xMax="1236" yMax="1628">
      <component glyphName="a" x="0" y="0" flags="0x204"/>
      <component glyphName="hookabovecomb" x="68" y="0" flags="0x4"/>
    </TTGlyph>
    <TTGlyph name="ahookabove.sc" xMin="18" yMin="0" xMax="1554" yMax="1640">
      <component glyphName="a.sc" x="0" y="0" flags="0x204"/>
      <component glyphName="hookabovecomb.sc" x="184" y="-290" flags="0x4"/>
    </TTGlyph>
    <TTGlyph name="ainvertedbreve" xMin="58" yMin="-22" xMax="1236" yMax="1620">
      <component glyphName="a" x="0" y="0" flags="0x204"/>
      <component glyphName="breveinvertedcomb" x="68" y="0" flags="0x4"/>
    </TTGlyph>
    <TTGlyph name="ainvertedbreve.sc" xMin="18" yMin="0" xMax="1554" yMax="1612">
      <component glyphName="a.sc" x="0" y="0" flags="0x204"/>
      <component glyphName="breveinvertedcomb.sc" x="184" y="-290" flags="0x4"/>
    </TTGlyph>
    <TTGlyph name="amacron" xMin="58" yMin="-22" xMax="1236" yMax="1544">
      <component glyphName="a" x="0" y="0" flags="0x204"/>
      <component glyphName="macroncomb" x="68" y="0" flags="0x4"/>
    </TTGlyph>
    <TTGlyph name="amacron.sc" xMin="18" yMin="0" xMax="1554" yMax="1580">
      <component glyphName="a.sc" x="0" y="0" flags="0x204"/>
      <component glyphName="macroncomb.sc" x="184" y="-290" flags="0x4"/>
    </TTGlyph>
    <TTGlyph name="ampersand" xMin="106" yMin="-20" xMax="1846" yMax="1500">
      <contour>
        <pt x="792" y="-18" on="1"/>
        <pt x="1161" y="-18" on="0"/>
        <pt x="1364" y="145" on="1"/>
        <pt x="1666" y="-20" on="1"/>
        <pt x="1846" y="310" on="1"/>
        <pt x="1560" y="466" on="1"/>
        <pt x="1582" y="558" on="0"/>
        <pt x="1582" y="666" on="1"/>
        <pt x="1582" y="778" on="0"/>
        <pt x="1550" y="906" on="1"/>
        <pt x="1192" y="906" on="1"/>
        <pt x="1207" y="846" on="0"/>
        <pt x="1226" y="718" on="0"/>
        <pt x="1226" y="662" on="1"/>
        <pt x="1226" y="655" on="0"/>
        <pt x="1226" y="649" on="1"/>
        <pt x="836" y="862" on="1"/>
        <pt x="769" y="900" on="0"/>
        <pt x="710" y="965" on="0"/>
        <pt x="710" y="1002" on="1"/>
        <pt x="710" y="1041" on="0"/>
        <pt x="760" y="1102" on="0"/>
        <pt x="896" y="1138" on="0"/>
        <pt x="1024" y="1138" on="1"/>
        <pt x="1093" y="1138" on="0"/>
        <pt x="1239" y="1123" on="0"/>
        <pt x="1294" y="1112" on="1"/>
        <pt x="1294" y="1480" on="1"/>
        <pt x="1227" y="1489" on="0"/>
        <pt x="1079" y="1500" on="0"/>
        <pt x="992" y="1500" on="1"/>
        <pt x="611" y="1500" on="0"/>
        <pt x="244" y="1245" on="0"/>
        <pt x="244" y="1024" on="1"/>
        <pt x="244" y="962" on="0"/>
        <pt x="287" y="830" on="0"/>
        <pt x="349" y="759" on="1"/>
        <pt x="246" y="713" on="0"/>
        <pt x="106" y="531" on="0"/>
        <pt x="106" y="406" on="1"/>
        <pt x="106" y="212" on="0"/>
        <pt x="450" y="-18" on="0"/>
      </contour>
      <contour>
        <pt x="572" y="454" on="1"/>
        <pt x="572" y="486" on="0"/>
        <pt x="589" y="539" on="0"/>
        <pt x="603" y="562" on="1"/>
        <pt x="628" y="547" on="0"/>
        <pt x="656" y="532" on="1"/>
        <pt x="1039" y="323" on="1"/>
        <pt x="997" y="305" on="0"/>
        <pt x="901" y="290" on="0"/>
        <pt x="848" y="290" on="1"/>
        <pt x="719" y="290" on="0"/>
        <pt x="572" y="375" on="0"/>
      </contour>
    </TTGlyph>
    <TTGlyph name="ampersand.sc" xMin="76" yMin="-16" xMax="1608" yMax="1206">
      <contour>
        <pt x="678" y="-14" on="1"/>
        <pt x="994" y="-14" on="0"/>
        <pt x="1173" y="113" on="1"/>
        <pt x="1442" y="-16" on="1"/>
        <pt x="1608" y="294" on="1"/>
        <pt x="1366" y="410" on="1"/>
        <pt x="1382" y="483" on="0"/>
        <pt x="1382" y="566" on="1"/>
        <pt x="1382" y="607" on="0"/>
        <pt x="1370" y="706" on="0"/>
        <pt x="1358" y="752" on="1"/>
        <pt x="1024" y="752" on="1"/>
        <pt x="1050" y="652" on="0"/>
        <pt x="1050" y="562" on="1"/>
        <pt x="718" y="722" on="1"/>
        <pt x="646" y="756" on="0"/>
        <pt x="646" y="792" on="1"/>
        <pt x="646" y="812" on="0"/>
        <pt x="682" y="847" on="0"/>
        <pt x="789" y="868" on="0"/>
        <pt x="894" y="868" on="1"/>
        <pt x="951" y="868" on="0"/>
        <pt x="1076" y="856" on="0"/>
        <pt x="1122" y="848" on="1"/>
        <pt x="1122" y="1192" on="1"/>
        <pt x="1062" y="1198" on="0"/>
        <pt x="936" y="1206" on="0"/>
        <pt x="862" y="1206" on="1"/>
        <pt x="517" y="1206" on="0"/>
        <pt x="186" y="995" on="0"/>
        <pt x="186" y="812" on="1"/>
        <pt x="186" y="759" on="0"/>
        <pt x="223" y="655" on="0"/>
        <pt x="272" y="601" on="1"/>
        <pt x="191" y="565" on="0"/>
        <pt x="76" y="424" on="0"/>
        <pt x="76" y="328" on="1"/>
        <pt x="76" y="171" on="0"/>
        <pt x="381" y="-14" on="0"/>
      </contour>
      <contour>
        <pt x="514" y="372" on="1"/>
        <pt x="514" y="399" on="0"/>
        <pt x="526" y="425" on="1"/>
        <pt x="538" y="419" on="0"/>
        <pt x="552" y="412" on="1"/>
        <pt x="850" y="269" on="1"/>
        <pt x="800" y="256" on="0"/>
        <pt x="738" y="256" on="1"/>
        <pt x="609" y="256" on="0"/>
        <pt x="514" y="321" on="0"/>
      </contour>
    </TTGlyph>
    <TTGlyph name="aogonek" xMin="58" yMin="-460" xMax="1256" yMax="1118">
      <component glyphName="a" x="0" y="0" flags="0x204"/>
      <component glyphName="ogonekcomb" x="720" y="0" flags="0x4"/>
    </TTGlyph>
    <TTGlyph name="aogonek.sc" xMin="18" yMin="-460" xMax="1588" yMax="1190">
      <component glyphName="a.sc" x="0" y="0" flags="0x204"/>
      <component glyphName="ogonekcomb.sc" x="1038" y="0" flags="0x4"/>
    </TTGlyph>
    <TTGlyph name="apostrophemod" xMin="600" yMin="1212" xMax="1096" yMax="1628">
      <contour>
        <pt x="720" y="1212" on="1"/>
        <pt x="1000" y="1212" on="1"/>
        <pt x="1044" y="1257" on="0"/>
        <pt x="1096" y="1389" on="0"/>
        <pt x="1096" y="1450" on="1"/>
        <pt x="1096" y="1534" on="0"/>
        <pt x="980" y="1628" on="0"/>
        <pt x="848" y="1628" on="1"/>
        <pt x="716" y="1628" on="0"/>
        <pt x="600" y="1557" on="0"/>
        <pt x="600" y="1492" on="1"/>
        <pt x="600" y="1438" on="0"/>
        <pt x="682" y="1369" on="0"/>
        <pt x="784" y="1360" on="1"/>
        <pt x="771" y="1300" on="0"/>
      </contour>
    </TTGlyph>
    <TTGlyph name="approxequal" xMin="114" yMin="288" xMax="1082" yMax="1232">
      <contour>
        <pt x="814" y="780" on="1"/>
        <pt x="980" y="780" on="0"/>
        <pt x="1082" y="882" on="1"/>
        <pt x="1082" y="1224" on="1"/>
        <pt x="1018" y="1166" on="0"/>
        <pt x="895" y="1114" on="0"/>
        <pt x="818" y="1114" on="1"/>
        <pt x="749" y="1114" on="0"/>
        <pt x="614" y="1173" on="0"/>
        <pt x="468" y="1232" on="0"/>
        <pt x="382" y="1232" on="1"/>
        <pt x="216" y="1232" on="0"/>
        <pt x="114" y="1130" on="1"/>
        <pt x="114" y="788" on="1"/>
        <pt x="179" y="847" on="0"/>
        <pt x="302" y="898" on="0"/>
        <pt x="378" y="898" on="1"/>
        <pt x="447" y="898" on="0"/>
        <pt x="582" y="839" on="0"/>
        <pt x="728" y="780" on="0"/>
      </contour>
      <contour>
        <pt x="814" y="288" on="1"/>
        <pt x="980" y="288" on="0"/>
        <pt x="1082" y="390" on="1"/>
        <pt x="1082" y="732" on="1"/>
        <pt x="1018" y="674" on="0"/>
        <pt x="895" y="622" on="0"/>
        <pt x="818" y="622" on="1"/>
        <pt x="749" y="622" on="0"/>
        <pt x="614" y="681" on="0"/>
        <pt x="468" y="740" on="0"/>
        <pt x="382" y="740" on="1"/>
        <pt x="216" y="740" on="0"/>
        <pt x="114" y="638" on="1"/>
        <pt x="114" y="296" on="1"/>
        <pt x="179" y="355" on="0"/>
        <pt x="302" y="406" on="0"/>
        <pt x="378" y="406" on="1"/>
        <pt x="447" y="406" on="0"/>
        <pt x="582" y="347" on="0"/>
        <pt x="728" y="288" on="0"/>
      </contour>
    </TTGlyph>
    <TTGlyph name="approxequal.osf" xMin="114" yMin="88" xMax="1082" yMax="1032">
      <contour>
        <pt x="814" y="580" on="1"/>
        <pt x="980" y="580" on="0"/>
        <pt x="1082" y="682" on="1"/>
        <pt x="1082" y="1024" on="1"/>
        <pt x="1018" y="966" on="0"/>
        <pt x="895" y="914" on="0"/>
        <pt x="818" y="914" on="1"/>
        <pt x="749" y="914" on="0"/>
        <pt x="614" y="973" on="0"/>
        <pt x="468" y="1032" on="0"/>
        <pt x="382" y="1032" on="1"/>
        <pt x="216" y="1032" on="0"/>
        <pt x="114" y="930" on="1"/>
        <pt x="114" y="588" on="1"/>
        <pt x="179" y="647" on="0"/>
        <pt x="302" y="698" on="0"/>
        <pt x="378" y="698" on="1"/>
        <pt x="447" y="698" on="0"/>
        <pt x="582" y="639" on="0"/>
        <pt x="728" y="580" on="0"/>
      </contour>
      <contour>
        <pt x="814" y="88" on="1"/>
        <pt x="980" y="88" on="0"/>
        <pt x="1082" y="190" on="1"/>
        <pt x="1082" y="532" on="1"/>
        <pt x="1018" y="474" on="0"/>
        <pt x="895" y="422" on="0"/>
        <pt x="818" y="422" on="1"/>
        <pt x="749" y="422" on="0"/>
        <pt x="614" y="481" on="0"/>
        <pt x="468" y="540" on="0"/>
        <pt x="382" y="540" on="1"/>
        <pt x="216" y="540" on="0"/>
        <pt x="114" y="438" on="1"/>
        <pt x="114" y="96" on="1"/>
        <pt x="179" y="155" on="0"/>
        <pt x="302" y="206" on="0"/>
        <pt x="378" y="206" on="1"/>
        <pt x="447" y="206" on="0"/>
        <pt x="582" y="147" on="0"/>
        <pt x="728" y="88" on="0"/>
      </contour>
    </TTGlyph>
    <TTGlyph name="approxequal.tf" xMin="236" yMin="288" xMax="1204" yMax="1232">
      <contour>
        <pt x="936" y="780" on="1"/>
        <pt x="1102" y="780" on="0"/>
        <pt x="1204" y="882" on="1"/>
        <pt x="1204" y="1224" on="1"/>
        <pt x="1140" y="1166" on="0"/>
        <pt x="1017" y="1114" on="0"/>
        <pt x="940" y="1114" on="1"/>
        <pt x="871" y="1114" on="0"/>
        <pt x="736" y="1173" on="0"/>
        <pt x="590" y="1232" on="0"/>
        <pt x="504" y="1232" on="1"/>
        <pt x="338" y="1232" on="0"/>
        <pt x="236" y="1130" on="1"/>
        <pt x="236" y="788" on="1"/>
        <pt x="301" y="847" on="0"/>
        <pt x="424" y="898" on="0"/>
        <pt x="500" y="898" on="1"/>
        <pt x="569" y="898" on="0"/>
        <pt x="704" y="839" on="0"/>
        <pt x="850" y="780" on="0"/>
      </contour>
      <contour>
        <pt x="936" y="288" on="1"/>
        <pt x="1102" y="288" on="0"/>
        <pt x="1204" y="390" on="1"/>
        <pt x="1204" y="732" on="1"/>
        <pt x="1140" y="674" on="0"/>
        <pt x="1017" y="622" on="0"/>
        <pt x="940" y="622" on="1"/>
        <pt x="871" y="622" on="0"/>
        <pt x="736" y="681" on="0"/>
        <pt x="590" y="740" on="0"/>
        <pt x="504" y="740" on="1"/>
        <pt x="338" y="740" on="0"/>
        <pt x="236" y="638" on="1"/>
        <pt x="236" y="296" on="1"/>
        <pt x="301" y="355" on="0"/>
        <pt x="424" y="406" on="0"/>
        <pt x="500" y="406" on="1"/>
        <pt x="569" y="406" on="0"/>
        <pt x="704" y="347" on="0"/>
        <pt x="850" y="288" on="0"/>
      </contour>
    </TTGlyph>
    <TTGlyph name="approxequal.tosf" xMin="236" yMin="88" xMax="1204" yMax="1032">
      <contour>
        <pt x="936" y="580" on="1"/>
        <pt x="1102" y="580" on="0"/>
        <pt x="1204" y="682" on="1"/>
        <pt x="1204" y="1024" on="1"/>
        <pt x="1140" y="966" on="0"/>
        <pt x="1017" y="914" on="0"/>
        <pt x="940" y="914" on="1"/>
        <pt x="871" y="914" on="0"/>
        <pt x="736" y="973" on="0"/>
        <pt x="590" y="1032" on="0"/>
        <pt x="504" y="1032" on="1"/>
        <pt x="338" y="1032" on="0"/>
        <pt x="236" y="930" on="1"/>
        <pt x="236" y="588" on="1"/>
        <pt x="301" y="647" on="0"/>
        <pt x="424" y="698" on="0"/>
        <pt x="500" y="698" on="1"/>
        <pt x="569" y="698" on="0"/>
        <pt x="704" y="639" on="0"/>
        <pt x="850" y="580" on="0"/>
      </contour>
      <contour>
        <pt x="936" y="88" on="1"/>
        <pt x="1102" y="88" on="0"/>
        <pt x="1204" y="190" on="1"/>
        <pt x="1204" y="532" on="1"/>
        <pt x="1140" y="474" on="0"/>
        <pt x="1017" y="422" on="0"/>
        <pt x="940" y="422" on="1"/>
        <pt x="871" y="422" on="0"/>
        <pt x="736" y="481" on="0"/>
        <pt x="590" y="540" on="0"/>
        <pt x="504" y="540" on="1"/>
        <pt x="338" y="540" on="0"/>
        <pt x="236" y="438" on="1"/>
        <pt x="236" y="96" on="1"/>
        <pt x="301" y="155" on="0"/>
        <pt x="424" y="206" on="0"/>
        <pt x="500" y="206" on="1"/>
        <pt x="569" y="206" on="0"/>
        <pt x="704" y="147" on="0"/>
        <pt x="850" y="88" on="0"/>
      </contour>
    </TTGlyph>
    <TTGlyph name="aring" xMin="58" yMin="-22" xMax="1236" yMax="1654">
      <component glyphName="a" x="0" y="0" flags="0x204"/>
      <component glyphName="ringcomb" x="68" y="0" flags="0x4"/>
    </TTGlyph>
    <TTGlyph name="aring.sc" xMin="18" yMin="0" xMax="1554" yMax="1720">
      <component glyphName="a.sc" x="0" y="0" flags="0x204"/>
      <component glyphName="ringcomb.sc" x="184" y="-290" flags="0x4"/>
    </TTGlyph>
    <TTGlyph name="aringacute" xMin="58" yMin="-22" xMax="1236" yMax="1780">
      <component glyphName="a" x="0" y="0" flags="0x204"/>
      <component glyphName="ringcomb_acutecomb" x="68" y="0" flags="0x4"/>
    </TTGlyph>
    <TTGlyph name="aringacute.sc" xMin="18" yMin="0" xMax="1554" yMax="1846">
      <component glyphName="a.sc" x="0" y="0" flags="0x204"/>
      <component glyphName="ringcomb_acutecomb.case.sc" x="184" y="-290" flags="0x4"/>
    </TTGlyph>
    <TTGlyph name="asciicircum" xMin="34" yMin="740" xMax="1406" yMax="1480">
      <contour>
        <pt x="34" y="740" on="1"/>
        <pt x="496" y="740" on="1"/>
        <pt x="720" y="1105" on="1"/>
        <pt x="944" y="740" on="1"/>
        <pt x="1406" y="740" on="1"/>
        <pt x="952" y="1480" on="1"/>
        <pt x="488" y="1480" on="1"/>
      </contour>
    </TTGlyph>
    <TTGlyph name="asciicircum.osf" xMin="34" yMin="360" xMax="1406" yMax="1100">
      <contour>
        <pt x="34" y="360" on="1"/>
        <pt x="496" y="360" on="1"/>
        <pt x="720" y="725" on="1"/>
        <pt x="944" y="360" on="1"/>
        <pt x="1406" y="360" on="1"/>
        <pt x="952" y="1100" on="1"/>
        <pt x="488" y="1100" on="1"/>
      </contour>
    </TTGlyph>
    <TTGlyph name="asciicircum.tf" xMin="34" yMin="740" xMax="1406" yMax="1480">
      <contour>
        <pt x="34" y="740" on="1"/>
        <pt x="496" y="740" on="1"/>
        <pt x="720" y="1105" on="1"/>
        <pt x="944" y="740" on="1"/>
        <pt x="1406" y="740" on="1"/>
        <pt x="952" y="1480" on="1"/>
        <pt x="488" y="1480" on="1"/>
      </contour>
    </TTGlyph>
    <TTGlyph name="asciicircum.tosf" xMin="34" yMin="360" xMax="1406" yMax="1100">
      <contour>
        <pt x="34" y="360" on="1"/>
        <pt x="496" y="360" on="1"/>
        <pt x="720" y="725" on="1"/>
        <pt x="944" y="360" on="1"/>
        <pt x="1406" y="360" on="1"/>
        <pt x="952" y="1100" on="1"/>
        <pt x="488" y="1100" on="1"/>
      </contour>
    </TTGlyph>
    <TTGlyph name="asciitilde" xMin="114" yMin="534" xMax="1082" yMax="986">
      <contour>
        <pt x="814" y="534" on="1"/>
        <pt x="980" y="534" on="0"/>
        <pt x="1082" y="636" on="1"/>
        <pt x="1082" y="978" on="1"/>
        <pt x="1018" y="920" on="0"/>
        <pt x="895" y="868" on="0"/>
        <pt x="818" y="868" on="1"/>
        <pt x="749" y="868" on="0"/>
        <pt x="614" y="927" on="0"/>
        <pt x="468" y="986" on="0"/>
        <pt x="382" y="986" on="1"/>
        <pt x="216" y="986" on="0"/>
        <pt x="114" y="884" on="1"/>
        <pt x="114" y="542" on="1"/>
        <pt x="179" y="601" on="0"/>
        <pt x="302" y="652" on="0"/>
        <pt x="378" y="652" on="1"/>
        <pt x="447" y="652" on="0"/>
        <pt x="582" y="593" on="0"/>
        <pt x="728" y="534" on="0"/>
      </contour>
    </TTGlyph>
    <TTGlyph name="asciitilde.osf" xMin="114" yMin="334" xMax="1082" yMax="786">
      <contour>
        <pt x="814" y="334" on="1"/>
        <pt x="980" y="334" on="0"/>
        <pt x="1082" y="436" on="1"/>
        <pt x="1082" y="778" on="1"/>
        <pt x="1018" y="720" on="0"/>
        <pt x="895" y="668" on="0"/>
        <pt x="818" y="668" on="1"/>
        <pt x="749" y="668" on="0"/>
        <pt x="614" y="727" on="0"/>
        <pt x="468" y="786" on="0"/>
        <pt x="382" y="786" on="1"/>
        <pt x="216" y="786" on="0"/>
        <pt x="114" y="684" on="1"/>
        <pt x="114" y="342" on="1"/>
        <pt x="179" y="401" on="0"/>
        <pt x="302" y="452" on="0"/>
        <pt x="378" y="452" on="1"/>
        <pt x="447" y="452" on="0"/>
        <pt x="582" y="393" on="0"/>
        <pt x="728" y="334" on="0"/>
      </contour>
    </TTGlyph>
    <TTGlyph name="asciitilde.tf" xMin="236" yMin="534" xMax="1204" yMax="986">
      <contour>
        <pt x="936" y="534" on="1"/>
        <pt x="1102" y="534" on="0"/>
        <pt x="1204" y="636" on="1"/>
        <pt x="1204" y="978" on="1"/>
        <pt x="1140" y="920" on="0"/>
        <pt x="1017" y="868" on="0"/>
        <pt x="940" y="868" on="1"/>
        <pt x="871" y="868" on="0"/>
        <pt x="736" y="927" on="0"/>
        <pt x="590" y="986" on="0"/>
        <pt x="504" y="986" on="1"/>
        <pt x="338" y="986" on="0"/>
        <pt x="236" y="884" on="1"/>
        <pt x="236" y="542" on="1"/>
        <pt x="301" y="601" on="0"/>
        <pt x="424" y="652" on="0"/>
        <pt x="500" y="652" on="1"/>
        <pt x="569" y="652" on="0"/>
        <pt x="704" y="593" on="0"/>
        <pt x="850" y="534" on="0"/>
      </contour>
    </TTGlyph>
    <TTGlyph name="asciitilde.tosf" xMin="236" yMin="334" xMax="1204" yMax="786">
      <contour>
        <pt x="936" y="334" on="1"/>
        <pt x="1102" y="334" on="0"/>
        <pt x="1204" y="436" on="1"/>
        <pt x="1204" y="778" on="1"/>
        <pt x="1140" y="720" on="0"/>
        <pt x="1017" y="668" on="0"/>
        <pt x="940" y="668" on="1"/>
        <pt x="871" y="668" on="0"/>
        <pt x="736" y="727" on="0"/>
        <pt x="590" y="786" on="0"/>
        <pt x="504" y="786" on="1"/>
        <pt x="338" y="786" on="0"/>
        <pt x="236" y="684" on="1"/>
        <pt x="236" y="342" on="1"/>
        <pt x="301" y="401" on="0"/>
        <pt x="424" y="452" on="0"/>
        <pt x="500" y="452" on="1"/>
        <pt x="569" y="452" on="0"/>
        <pt x="704" y="393" on="0"/>
        <pt x="850" y="334" on="0"/>
      </contour>
    </TTGlyph>
    <TTGlyph name="asterisk" xMin="30" yMin="702" xMax="1086" yMax="1616">
      <contour>
        <pt x="734" y="1106" on="1"/>
        <pt x="900" y="1120" on="1"/>
        <pt x="1086" y="1180" on="1"/>
        <pt x="998" y="1450" on="1"/>
        <pt x="812" y="1390" on="1"/>
        <pt x="658" y="1294" on="1"/>
        <pt x="700" y="1472" on="1"/>
        <pt x="700" y="1616" on="1"/>
        <pt x="416" y="1616" on="1"/>
        <pt x="416" y="1472" on="1"/>
        <pt x="458" y="1294" on="1"/>
        <pt x="304" y="1390" on="1"/>
        <pt x="118" y="1450" on="1"/>
        <pt x="30" y="1180" on="1"/>
        <pt x="216" y="1120" on="1"/>
        <pt x="382" y="1106" on="1"/>
        <pt x="250" y="992" on="1"/>
        <pt x="162" y="868" on="1"/>
        <pt x="392" y="702" on="1"/>
        <pt x="480" y="824" on="1"/>
        <pt x="558" y="1012" on="1"/>
        <pt x="636" y="824" on="1"/>
        <pt x="724" y="702" on="1"/>
        <pt x="954" y="868" on="1"/>
        <pt x="866" y="992" on="1"/>
      </contour>
    </TTGlyph>
    <TTGlyph name="at" xMin="84" yMin="-460" xMax="2348" yMax="1498">
      <contour>
        <pt x="1266" y="-460" on="1"/>
        <pt x="1549" y="-460" on="0"/>
        <pt x="1822" y="-406" on="1"/>
        <pt x="1822" y="-130" on="1"/>
        <pt x="1546" y="-184" on="0"/>
        <pt x="1266" y="-184" on="1"/>
        <pt x="963" y="-184" on="0"/>
        <pt x="584" y="-45" on="0"/>
        <pt x="406" y="264" on="0"/>
        <pt x="406" y="520" on="1"/>
        <pt x="406" y="776" on="0"/>
        <pt x="580" y="1084" on="0"/>
        <pt x="942" y="1222" on="0"/>
        <pt x="1224" y="1222" on="1"/>
        <pt x="1507" y="1222" on="0"/>
        <pt x="1870" y="1093" on="0"/>
        <pt x="2047" y="810" on="0"/>
        <pt x="2050" y="580" on="1"/>
        <pt x="2052" y="440" on="0"/>
        <pt x="2016" y="296" on="0"/>
        <pt x="1951" y="246" on="0"/>
        <pt x="1910" y="246" on="1"/>
        <pt x="1868" y="246" on="0"/>
        <pt x="1818" y="292" on="0"/>
        <pt x="1818" y="344" on="1"/>
        <pt x="1818" y="574" on="1"/>
        <pt x="1818" y="769" on="0"/>
        <pt x="1689" y="999" on="0"/>
        <pt x="1412" y="1098" on="0"/>
        <pt x="1190" y="1098" on="1"/>
        <pt x="1087" y="1098" on="0"/>
        <pt x="870" y="1066" on="0"/>
        <pt x="772" y="1036" on="1"/>
        <pt x="772" y="714" on="1"/>
        <pt x="849" y="740" on="0"/>
        <pt x="1033" y="770" on="0"/>
        <pt x="1106" y="770" on="1"/>
        <pt x="1215" y="770" on="0"/>
        <pt x="1330" y="727" on="0"/>
        <pt x="1351" y="677" on="1"/>
        <pt x="1194" y="668" on="1"/>
        <pt x="905" y="652" on="0"/>
        <pt x="640" y="473" on="0"/>
        <pt x="640" y="312" on="1"/>
        <pt x="640" y="165" on="0"/>
        <pt x="854" y="-22" on="0"/>
        <pt x="1070" y="-22" on="1"/>
        <pt x="1171" y="-22" on="0"/>
        <pt x="1341" y="44" on="0"/>
        <pt x="1374" y="132" on="1"/>
        <pt x="1398" y="132" on="1"/>
        <pt x="1458" y="53" on="0"/>
        <pt x="1655" y="-22" on="0"/>
        <pt x="1790" y="-22" on="1"/>
        <pt x="1960" y="-22" on="0"/>
        <pt x="2211" y="96" on="0"/>
        <pt x="2348" y="364" on="0"/>
        <pt x="2348" y="588" on="1"/>
        <pt x="2348" y="1043" on="0"/>
        <pt x="1770" y="1498" on="0"/>
        <pt x="1224" y="1498" on="1"/>
        <pt x="861" y="1498" on="0"/>
        <pt x="351" y="1290" on="0"/>
        <pt x="84" y="857" on="0"/>
        <pt x="84" y="520" on="1"/>
        <pt x="84" y="15" on="0"/>
        <pt x="690" y="-460" on="0"/>
      </contour>
      <contour>
        <pt x="1098" y="354" on="1"/>
        <pt x="1098" y="402" on="0"/>
        <pt x="1164" y="440" on="0"/>
        <pt x="1234" y="444" on="1"/>
        <pt x="1364" y="451" on="1"/>
        <pt x="1364" y="304" on="1"/>
        <pt x="1340" y="291" on="0"/>
        <pt x="1245" y="276" on="0"/>
        <pt x="1222" y="276" on="1"/>
        <pt x="1176" y="276" on="0"/>
        <pt x="1098" y="309" on="0"/>
      </contour>
    </TTGlyph>
    <TTGlyph name="atilde" xMin="58" yMin="-22" xMax="1236" yMax="1598">
      <component glyphName="a" x="0" y="0" flags="0x204"/>
      <component glyphName="tildecomb" x="68" y="0" flags="0x4"/>
    </TTGlyph>
    <TTGlyph name="atilde.sc" xMin="18" yMin="0" xMax="1554" yMax="1612">
      <component glyphName="a.sc" x="0" y="0" flags="0x204"/>
      <component glyphName="tildecomb.sc" x="184" y="-290" flags="0x4"/>
    </TTGlyph>
    <TTGlyph name="b" xMin="116" yMin="-22" xMax="1424" yMax="1616">
      <contour>
        <pt x="674" y="-22" on="1"/>
        <pt x="1046" y="-22" on="0"/>
        <pt x="1424" y="291" on="0"/>
        <pt x="1424" y="580" on="1"/>
        <pt x="1424" y="760" on="0"/>
        <pt x="1287" y="999" on="0"/>
        <pt x="1060" y="1118" on="0"/>
        <pt x="926" y="1118" on="1"/>
        <pt x="724" y="1118" on="0"/>
        <pt x="600" y="1006" on="1"/>
        <pt x="580" y="1006" on="1"/>
        <pt x="580" y="1616" on="1"/>
        <pt x="116" y="1616" on="1"/>
        <pt x="116" y="50" on="1"/>
        <pt x="244" y="11" on="0"/>
        <pt x="536" y="-22" on="0"/>
      </contour>
      <contour>
        <pt x="716" y="318" on="1"/>
        <pt x="677" y="318" on="0"/>
        <pt x="607" y="326" on="0"/>
        <pt x="580" y="332" on="1"/>
        <pt x="580" y="716" on="1"/>
        <pt x="619" y="736" on="0"/>
        <pt x="711" y="754" on="0"/>
        <pt x="756" y="754" on="1"/>
        <pt x="854" y="754" on="0"/>
        <pt x="966" y="659" on="0"/>
        <pt x="966" y="548" on="1"/>
        <pt x="966" y="318" on="0"/>
      </contour>
    </TTGlyph>
    <TTGlyph name="b.sc" xMin="132" yMin="-18" xMax="1324" yMax="1206">
      <contour>
        <pt x="590" y="-18" on="1"/>
        <pt x="871" y="-18" on="0"/>
        <pt x="1191" y="74" on="0"/>
        <pt x="1324" y="240" on="0"/>
        <pt x="1324" y="350" on="1"/>
        <pt x="1324" y="469" on="0"/>
        <pt x="1197" y="593" on="0"/>
        <pt x="1113" y="614" on="1"/>
        <pt x="1185" y="638" on="0"/>
        <pt x="1292" y="767" on="0"/>
        <pt x="1292" y="854" on="1"/>
        <pt x="1292" y="1022" on="0"/>
        <pt x="995" y="1206" on="0"/>
        <pt x="650" y="1206" on="1"/>
        <pt x="572" y="1206" on="0"/>
        <pt x="384" y="1190" on="0"/>
        <pt x="201" y="1164" on="0"/>
        <pt x="132" y="1148" on="1"/>
        <pt x="132" y="10" on="1"/>
        <pt x="190" y="2" on="0"/>
        <pt x="353" y="-11" on="0"/>
        <pt x="522" y="-18" on="0"/>
      </contour>
      <contour>
        <pt x="700" y="922" on="1"/>
        <pt x="789" y="922" on="0"/>
        <pt x="852" y="880" on="0"/>
        <pt x="852" y="836" on="1"/>
        <pt x="852" y="800" on="0"/>
        <pt x="797" y="752" on="0"/>
        <pt x="720" y="752" on="1"/>
        <pt x="576" y="752" on="1"/>
        <pt x="576" y="910" on="1"/>
        <pt x="609" y="916" on="0"/>
        <pt x="676" y="922" on="0"/>
      </contour>
      <contour>
        <pt x="694" y="268" on="1"/>
        <pt x="669" y="268" on="0"/>
        <pt x="611" y="269" on="0"/>
        <pt x="576" y="272" on="1"/>
        <pt x="576" y="460" on="1"/>
        <pt x="752" y="460" on="1"/>
        <pt x="836" y="460" on="0"/>
        <pt x="898" y="416" on="0"/>
        <pt x="898" y="366" on="1"/>
        <pt x="898" y="320" on="0"/>
        <pt x="817" y="268" on="0"/>
      </contour>
    </TTGlyph>
    <TTGlyph name="backslash" xMin="0" yMin="-240" xMax="1058" yMax="1616">
      <contour>
        <pt x="592" y="-240" on="1"/>
        <pt x="1058" y="-240" on="1"/>
        <pt x="466" y="1616" on="1"/>
        <pt x="0" y="1616" on="1"/>
      </contour>
    </TTGlyph>
    <TTGlyph name="bar" xMin="130" yMin="-440" xMax="550" yMax="1616">
      <contour>
        <pt x="130" y="-440" on="1"/>
        <pt x="550" y="-440" on="1"/>
        <pt x="550" y="1616" on="1"/>
        <pt x="130" y="1616" on="1"/>
      </contour>
    </TTGlyph>
    <TTGlyph name="bar.tf" xMin="510" yMin="-440" xMax="930" yMax="1616">
      <contour>
        <pt x="510" y="-440" on="1"/>
        <pt x="930" y="-440" on="1"/>
        <pt x="930" y="1616" on="1"/>
        <pt x="510" y="1616" on="1"/>
      </contour>
    </TTGlyph>
    <TTGlyph name="braceleft" xMin="-2" yMin="-460" xMax="896" yMax="1636">
      <contour>
        <pt x="682" y="-460" on="1"/>
        <pt x="745" y="-460" on="0"/>
        <pt x="850" y="-452" on="0"/>
        <pt x="896" y="-446" on="1"/>
        <pt x="896" y="-94" on="1"/>
        <pt x="770" y="-94" on="1"/>
        <pt x="713" y="-94" on="0"/>
        <pt x="654" y="-48" on="0"/>
        <pt x="654" y="10" on="1"/>
        <pt x="654" y="352" on="1"/>
        <pt x="654" y="459" on="0"/>
        <pt x="554" y="601" on="0"/>
        <pt x="445" y="632" on="1"/>
        <pt x="554" y="663" on="0"/>
        <pt x="654" y="805" on="0"/>
        <pt x="654" y="912" on="1"/>
        <pt x="654" y="1166" on="1"/>
        <pt x="654" y="1225" on="0"/>
        <pt x="713" y="1270" on="0"/>
        <pt x="770" y="1270" on="1"/>
        <pt x="896" y="1270" on="1"/>
        <pt x="896" y="1622" on="1"/>
        <pt x="850" y="1628" on="0"/>
        <pt x="745" y="1636" on="0"/>
        <pt x="682" y="1636" on="1"/>
        <pt x="438" y="1636" on="0"/>
        <pt x="190" y="1411" on="0"/>
        <pt x="190" y="1202" on="1"/>
        <pt x="190" y="930" on="1"/>
        <pt x="190" y="878" on="0"/>
        <pt x="125" y="812" on="0"/>
        <pt x="72" y="812" on="1"/>
        <pt x="-2" y="812" on="1"/>
        <pt x="-2" y="452" on="1"/>
        <pt x="72" y="452" on="1"/>
        <pt x="125" y="452" on="0"/>
        <pt x="190" y="387" on="0"/>
        <pt x="190" y="334" on="1"/>
        <pt x="190" y="-26" on="1"/>
        <pt x="190" y="-234" on="0"/>
        <pt x="438" y="-460" on="0"/>
      </contour>
    </TTGlyph>
    <TTGlyph name="braceleft.sc" xMin="-2" yMin="-260" xMax="896" yMax="1500">
      <contour>
        <pt x="682" y="-260" on="1"/>
        <pt x="745" y="-260" on="0"/>
        <pt x="850" y="-252" on="0"/>
        <pt x="896" y="-246" on="1"/>
        <pt x="896" y="106" on="1"/>
        <pt x="760" y="106" on="1"/>
        <pt x="703" y="106" on="0"/>
        <pt x="644" y="152" on="0"/>
        <pt x="644" y="210" on="1"/>
        <pt x="644" y="352" on="1"/>
        <pt x="644" y="459" on="0"/>
        <pt x="545" y="601" on="0"/>
        <pt x="438" y="632" on="1"/>
        <pt x="545" y="663" on="0"/>
        <pt x="644" y="805" on="0"/>
        <pt x="644" y="912" on="1"/>
        <pt x="644" y="1030" on="1"/>
        <pt x="644" y="1089" on="0"/>
        <pt x="703" y="1134" on="0"/>
        <pt x="760" y="1134" on="1"/>
        <pt x="896" y="1134" on="1"/>
        <pt x="896" y="1486" on="1"/>
        <pt x="850" y="1492" on="0"/>
        <pt x="745" y="1500" on="0"/>
        <pt x="682" y="1500" on="1"/>
        <pt x="438" y="1500" on="0"/>
        <pt x="190" y="1275" on="0"/>
        <pt x="190" y="1066" on="1"/>
        <pt x="190" y="930" on="1"/>
        <pt x="190" y="878" on="0"/>
        <pt x="125" y="812" on="0"/>
        <pt x="72" y="812" on="1"/>
        <pt x="-2" y="812" on="1"/>
        <pt x="-2" y="452" on="1"/>
        <pt x="72" y="452" on="1"/>
        <pt x="125" y="452" on="0"/>
        <pt x="190" y="387" on="0"/>
        <pt x="190" y="334" on="1"/>
        <pt x="190" y="174" on="1"/>
        <pt x="190" y="-34" on="0"/>
        <pt x="438" y="-260" on="0"/>
      </contour>
    </TTGlyph>
    <TTGlyph name="braceright" xMin="-22" yMin="-460" xMax="876" yMax="1636">
      <contour>
        <pt x="192" y="-460" on="1"/>
        <pt x="437" y="-460" on="0"/>
        <pt x="684" y="-234" on="0"/>
        <pt x="684" y="-26" on="1"/>
        <pt x="684" y="334" on="1"/>
        <pt x="684" y="387" on="0"/>
        <pt x="750" y="452" on="0"/>
        <pt x="802" y="452" on="1"/>
        <pt x="876" y="452" on="1"/>
        <pt x="876" y="812" on="1"/>
        <pt x="802" y="812" on="1"/>
        <pt x="750" y="812" on="0"/>
        <pt x="684" y="878" on="0"/>
        <pt x="684" y="930" on="1"/>
        <pt x="684" y="1202" on="1"/>
        <pt x="684" y="1411" on="0"/>
        <pt x="437" y="1636" on="0"/>
        <pt x="192" y="1636" on="1"/>
        <pt x="129" y="1636" on="0"/>
        <pt x="25" y="1628" on="0"/>
        <pt x="-22" y="1622" on="1"/>
        <pt x="-22" y="1270" on="1"/>
        <pt x="104" y="1270" on="1"/>
        <pt x="161" y="1270" on="0"/>
        <pt x="220" y="1225" on="0"/>
        <pt x="220" y="1166" on="1"/>
        <pt x="220" y="912" on="1"/>
        <pt x="220" y="805" on="0"/>
        <pt x="320" y="663" on="0"/>
        <pt x="429" y="632" on="1"/>
        <pt x="320" y="601" on="0"/>
        <pt x="220" y="459" on="0"/>
        <pt x="220" y="352" on="1"/>
        <pt x="220" y="10" on="1"/>
        <pt x="220" y="-48" on="0"/>
        <pt x="161" y="-94" on="0"/>
        <pt x="104" y="-94" on="1"/>
        <pt x="-22" y="-94" on="1"/>
        <pt x="-22" y="-446" on="1"/>
        <pt x="25" y="-452" on="0"/>
        <pt x="129" y="-460" on="0"/>
      </contour>
    </TTGlyph>
    <TTGlyph name="braceright.sc" xMin="-22" yMin="-260" xMax="876" yMax="1500">
      <contour>
        <pt x="192" y="-260" on="1"/>
        <pt x="437" y="-260" on="0"/>
        <pt x="684" y="-34" on="0"/>
        <pt x="684" y="174" on="1"/>
        <pt x="684" y="334" on="1"/>
        <pt x="684" y="387" on="0"/>
        <pt x="750" y="452" on="0"/>
        <pt x="802" y="452" on="1"/>
        <pt x="876" y="452" on="1"/>
        <pt x="876" y="812" on="1"/>
        <pt x="802" y="812" on="1"/>
        <pt x="750" y="812" on="0"/>
        <pt x="684" y="878" on="0"/>
        <pt x="684" y="930" on="1"/>
        <pt x="684" y="1066" on="1"/>
        <pt x="684" y="1275" on="0"/>
        <pt x="437" y="1500" on="0"/>
        <pt x="192" y="1500" on="1"/>
        <pt x="129" y="1500" on="0"/>
        <pt x="25" y="1492" on="0"/>
        <pt x="-22" y="1486" on="1"/>
        <pt x="-22" y="1134" on="1"/>
        <pt x="114" y="1134" on="1"/>
        <pt x="171" y="1134" on="0"/>
        <pt x="230" y="1089" on="0"/>
        <pt x="230" y="1030" on="1"/>
        <pt x="230" y="912" on="1"/>
        <pt x="230" y="805" on="0"/>
        <pt x="329" y="663" on="0"/>
        <pt x="436" y="632" on="1"/>
        <pt x="329" y="601" on="0"/>
        <pt x="230" y="459" on="0"/>
        <pt x="230" y="352" on="1"/>
        <pt x="230" y="210" on="1"/>
        <pt x="230" y="152" on="0"/>
        <pt x="171" y="106" on="0"/>
        <pt x="114" y="106" on="1"/>
        <pt x="-22" y="106" on="1"/>
        <pt x="-22" y="-246" on="1"/>
        <pt x="25" y="-252" on="0"/>
        <pt x="129" y="-260" on="0"/>
      </contour>
    </TTGlyph>
    <TTGlyph name="bracketleft" xMin="150" yMin="-440" xMax="856" yMax="1616">
      <contour>
        <pt x="150" y="-440" on="1"/>
        <pt x="836" y="-440" on="1"/>
        <pt x="836" y="-80" on="1"/>
        <pt x="614" y="-80" on="1"/>
        <pt x="614" y="1256" on="1"/>
        <pt x="856" y="1256" on="1"/>
        <pt x="856" y="1616" on="1"/>
        <pt x="150" y="1616" on="1"/>
      </contour>
    </TTGlyph>
    <TTGlyph name="bracketleft.sc" xMin="150" yMin="-240" xMax="856" yMax="1480">
      <contour>
        <pt x="150" y="-240" on="1"/>
        <pt x="836" y="-240" on="1"/>
        <pt x="836" y="120" on="1"/>
        <pt x="604" y="120" on="1"/>
        <pt x="604" y="1120" on="1"/>
        <pt x="856" y="1120" on="1"/>
        <pt x="856" y="1480" on="1"/>
        <pt x="150" y="1480" on="1"/>
      </contour>
    </TTGlyph>
    <TTGlyph name="bracketright" xMin="-22" yMin="-440" xMax="684" yMax="1616">
      <contour>
        <pt x="-2" y="-440" on="1"/>
        <pt x="684" y="-440" on="1"/>
        <pt x="684" y="1616" on="1"/>
        <pt x="-22" y="1616" on="1"/>
        <pt x="-22" y="1256" on="1"/>
        <pt x="220" y="1256" on="1"/>
        <pt x="220" y="-80" on="1"/>
        <pt x="-2" y="-80" on="1"/>
      </contour>
    </TTGlyph>
    <TTGlyph name="bracketright.sc" xMin="-22" yMin="-240" xMax="684" yMax="1480">
      <contour>
        <pt x="-2" y="-240" on="1"/>
        <pt x="684" y="-240" on="1"/>
        <pt x="684" y="1480" on="1"/>
        <pt x="-22" y="1480" on="1"/>
        <pt x="-22" y="1120" on="1"/>
        <pt x="230" y="1120" on="1"/>
        <pt x="230" y="120" on="1"/>
        <pt x="-2" y="120" on="1"/>
      </contour>
    </TTGlyph>
    <TTGlyph name="breve" xMin="140" yMin="1224" xMax="1060" yMax="1596">
      <component glyphName="brevecomb" x="0" y="0" flags="0x4"/>
    </TTGlyph>
    <TTGlyph name="brevebelowcomb" xMin="140" yMin="-482" xMax="1060" yMax="-138">
      <contour>
        <pt x="600" y="-482" on="1"/>
        <pt x="816" y="-482" on="0"/>
        <pt x="1054" y="-298" on="0"/>
        <pt x="1060" y="-138" on="1"/>
        <pt x="790" y="-138" on="1"/>
        <pt x="781" y="-264" on="0"/>
        <pt x="600" y="-264" on="1"/>
        <pt x="419" y="-264" on="0"/>
        <pt x="410" y="-138" on="1"/>
        <pt x="140" y="-138" on="1"/>
        <pt x="146" y="-298" on="0"/>
        <pt x="384" y="-482" on="0"/>
      </contour>
    </TTGlyph>
    <TTGlyph name="brevebelowcomb.case" xMin="116" yMin="-452" xMax="1084" yMax="-136">
      <contour>
        <pt x="600" y="-452" on="1"/>
        <pt x="756" y="-452" on="0"/>
        <pt x="959" y="-367" on="0"/>
        <pt x="1069" y="-224" on="0"/>
        <pt x="1084" y="-136" on="1"/>
        <pt x="810" y="-136" on="1"/>
        <pt x="795" y="-182" on="0"/>
        <pt x="696" y="-244" on="0"/>
        <pt x="600" y="-244" on="1"/>
        <pt x="504" y="-244" on="0"/>
        <pt x="405" y="-182" on="0"/>
        <pt x="390" y="-136" on="1"/>
        <pt x="116" y="-136" on="1"/>
        <pt x="131" y="-224" on="0"/>
        <pt x="240" y="-367" on="0"/>
        <pt x="444" y="-452" on="0"/>
      </contour>
    </TTGlyph>
    <TTGlyph name="brevebelowcomb.sc" xMin="116" yMin="-452" xMax="1084" yMax="-136">
      <component glyphName="brevebelowcomb.case" x="0" y="0" flags="0x204"/>
    </TTGlyph>
    <TTGlyph name="brevecomb" xMin="140" yMin="1224" xMax="1060" yMax="1596">
      <contour>
        <pt x="600" y="1224" on="1"/>
        <pt x="818" y="1224" on="0"/>
        <pt x="1050" y="1424" on="0"/>
        <pt x="1060" y="1596" on="1"/>
        <pt x="790" y="1596" on="1"/>
        <pt x="781" y="1523" on="0"/>
        <pt x="692" y="1442" on="0"/>
        <pt x="600" y="1442" on="1"/>
        <pt x="509" y="1442" on="0"/>
        <pt x="419" y="1523" on="0"/>
        <pt x="410" y="1596" on="1"/>
        <pt x="140" y="1596" on="1"/>
        <pt x="151" y="1424" on="0"/>
        <pt x="383" y="1224" on="0"/>
      </contour>
    </TTGlyph>
    <TTGlyph name="brevecomb.case" xMin="116" yMin="1586" xMax="1084" yMax="1902">
      <contour>
        <pt x="600" y="1586" on="1"/>
        <pt x="756" y="1586" on="0"/>
        <pt x="959" y="1671" on="0"/>
        <pt x="1069" y="1814" on="0"/>
        <pt x="1084" y="1902" on="1"/>
        <pt x="810" y="1902" on="1"/>
        <pt x="795" y="1856" on="0"/>
        <pt x="696" y="1794" on="0"/>
        <pt x="600" y="1794" on="1"/>
        <pt x="504" y="1794" on="0"/>
        <pt x="405" y="1856" on="0"/>
        <pt x="390" y="1902" on="1"/>
        <pt x="116" y="1902" on="1"/>
        <pt x="131" y="1814" on="0"/>
        <pt x="240" y="1671" on="0"/>
        <pt x="444" y="1586" on="0"/>
      </contour>
    </TTGlyph>
    <TTGlyph name="brevecomb.sc" xMin="116" yMin="1586" xMax="1084" yMax="1902">
      <component glyphName="brevecomb.case" x="0" y="0" flags="0x204"/>
    </TTGlyph>
    <TTGlyph name="brevecomb_acutecomb" xMin="116" yMin="1232" xMax="1084" yMax="1868">
      <contour>
        <pt x="436" y="1598" on="1"/>
        <pt x="756" y="1598" on="1"/>
        <pt x="1028" y="1868" on="1"/>
        <pt x="640" y="1868" on="1"/>
      </contour>
      <contour>
        <pt x="600" y="1232" on="1"/>
        <pt x="756" y="1232" on="0"/>
        <pt x="959" y="1317" on="0"/>
        <pt x="1069" y="1460" on="0"/>
        <pt x="1084" y="1548" on="1"/>
        <pt x="810" y="1548" on="1"/>
        <pt x="795" y="1502" on="0"/>
        <pt x="696" y="1440" on="0"/>
        <pt x="600" y="1440" on="1"/>
        <pt x="504" y="1440" on="0"/>
        <pt x="405" y="1502" on="0"/>
        <pt x="390" y="1548" on="1"/>
        <pt x="116" y="1548" on="1"/>
        <pt x="131" y="1460" on="0"/>
        <pt x="240" y="1317" on="0"/>
        <pt x="444" y="1232" on="0"/>
      </contour>
    </TTGlyph>
    <TTGlyph name="brevecomb_acutecomb.case" xMin="170" yMin="1586" xMax="1030" yMax="2064">
      <contour>
        <pt x="470" y="1828" on="1"/>
        <pt x="730" y="1828" on="1"/>
        <pt x="892" y="2064" on="1"/>
        <pt x="576" y="2064" on="1"/>
      </contour>
      <contour>
        <pt x="600" y="1586" on="1"/>
        <pt x="804" y="1586" on="0"/>
        <pt x="1006" y="1738" on="0"/>
        <pt x="1030" y="1858" on="1"/>
        <pt x="814" y="1858" on="1"/>
        <pt x="792" y="1812" on="0"/>
        <pt x="710" y="1756" on="0"/>
        <pt x="600" y="1756" on="1"/>
        <pt x="491" y="1756" on="0"/>
        <pt x="411" y="1812" on="0"/>
        <pt x="396" y="1858" on="1"/>
        <pt x="170" y="1858" on="1"/>
        <pt x="194" y="1738" on="0"/>
        <pt x="396" y="1586" on="0"/>
      </contour>
    </TTGlyph>
    <TTGlyph name="brevecomb_acutecomb.sc" xMin="170" yMin="1586" xMax="1030" yMax="2064">
      <component glyphName="brevecomb_acutecomb.case" x="0" y="0" flags="0x204"/>
    </TTGlyph>
    <TTGlyph name="brevecomb_gravecomb" xMin="116" yMin="1232" xMax="1084" yMax="1868">
      <contour>
        <pt x="444" y="1598" on="1"/>
        <pt x="764" y="1598" on="1"/>
        <pt x="560" y="1868" on="1"/>
        <pt x="172" y="1868" on="1"/>
      </contour>
      <contour>
        <pt x="600" y="1232" on="1"/>
        <pt x="756" y="1232" on="0"/>
        <pt x="959" y="1317" on="0"/>
        <pt x="1069" y="1460" on="0"/>
        <pt x="1084" y="1548" on="1"/>
        <pt x="810" y="1548" on="1"/>
        <pt x="795" y="1502" on="0"/>
        <pt x="696" y="1440" on="0"/>
        <pt x="600" y="1440" on="1"/>
        <pt x="504" y="1440" on="0"/>
        <pt x="405" y="1502" on="0"/>
        <pt x="390" y="1548" on="1"/>
        <pt x="116" y="1548" on="1"/>
        <pt x="131" y="1460" on="0"/>
        <pt x="240" y="1317" on="0"/>
        <pt x="444" y="1232" on="0"/>
      </contour>
    </TTGlyph>
    <TTGlyph name="brevecomb_gravecomb.case" xMin="170" yMin="1586" xMax="1030" yMax="2064">
      <contour>
        <pt x="470" y="1828" on="1"/>
        <pt x="730" y="1828" on="1"/>
        <pt x="624" y="2064" on="1"/>
        <pt x="308" y="2064" on="1"/>
      </contour>
      <contour>
        <pt x="600" y="1586" on="1"/>
        <pt x="804" y="1586" on="0"/>
        <pt x="1006" y="1738" on="0"/>
        <pt x="1030" y="1858" on="1"/>
        <pt x="804" y="1858" on="1"/>
        <pt x="789" y="1812" on="0"/>
        <pt x="710" y="1756" on="0"/>
        <pt x="600" y="1756" on="1"/>
        <pt x="491" y="1756" on="0"/>
        <pt x="409" y="1812" on="0"/>
        <pt x="386" y="1858" on="1"/>
        <pt x="170" y="1858" on="1"/>
        <pt x="194" y="1738" on="0"/>
        <pt x="396" y="1586" on="0"/>
      </contour>
    </TTGlyph>
    <TTGlyph name="brevecomb_gravecomb.sc" xMin="170" yMin="1586" xMax="1030" yMax="2064">
      <component glyphName="brevecomb_gravecomb.case" x="0" y="0" flags="0x204"/>
    </TTGlyph>
    <TTGlyph name="brevecomb_hookabovecomb" xMin="116" yMin="1232" xMax="1084" yMax="1894">
      <contour>
        <pt x="492" y="1598" on="1"/>
        <pt x="708" y="1598" on="1"/>
        <pt x="711" y="1615" on="0"/>
        <pt x="770" y="1642" on="0"/>
        <pt x="844" y="1677" on="0"/>
        <pt x="900" y="1727" on="0"/>
        <pt x="900" y="1766" on="1"/>
        <pt x="900" y="1828" on="0"/>
        <pt x="753" y="1894" on="0"/>
        <pt x="594" y="1894" on="1"/>
        <pt x="539" y="1894" on="0"/>
        <pt x="405" y="1883" on="0"/>
        <pt x="354" y="1874" on="1"/>
        <pt x="354" y="1746" on="1"/>
        <pt x="416" y="1757" on="0"/>
        <pt x="514" y="1764" on="0"/>
        <pt x="560" y="1764" on="1"/>
        <pt x="676" y="1764" on="0"/>
        <pt x="676" y="1740" on="1"/>
        <pt x="676" y="1724" on="0"/>
        <pt x="622" y="1700" on="0"/>
        <pt x="550" y="1673" on="0"/>
        <pt x="494" y="1632" on="0"/>
      </contour>
      <contour>
        <pt x="600" y="1232" on="1"/>
        <pt x="756" y="1232" on="0"/>
        <pt x="959" y="1317" on="0"/>
        <pt x="1069" y="1460" on="0"/>
        <pt x="1084" y="1548" on="1"/>
        <pt x="810" y="1548" on="1"/>
        <pt x="795" y="1502" on="0"/>
        <pt x="696" y="1440" on="0"/>
        <pt x="600" y="1440" on="1"/>
        <pt x="504" y="1440" on="0"/>
        <pt x="405" y="1502" on="0"/>
        <pt x="390" y="1548" on="1"/>
        <pt x="116" y="1548" on="1"/>
        <pt x="131" y="1460" on="0"/>
        <pt x="240" y="1317" on="0"/>
        <pt x="444" y="1232" on="0"/>
      </contour>
    </TTGlyph>
    <TTGlyph name="brevecomb_hookabovecomb.case" xMin="170" yMin="1586" xMax="1030" yMax="2124">
      <contour>
        <pt x="492" y="1828" on="1"/>
        <pt x="708" y="1828" on="1"/>
        <pt x="711" y="1845" on="0"/>
        <pt x="770" y="1872" on="0"/>
        <pt x="844" y="1907" on="0"/>
        <pt x="900" y="1957" on="0"/>
        <pt x="900" y="1996" on="1"/>
        <pt x="900" y="2058" on="0"/>
        <pt x="753" y="2124" on="0"/>
        <pt x="594" y="2124" on="1"/>
        <pt x="539" y="2124" on="0"/>
        <pt x="405" y="2113" on="0"/>
        <pt x="354" y="2104" on="1"/>
        <pt x="354" y="1976" on="1"/>
        <pt x="416" y="1987" on="0"/>
        <pt x="514" y="1994" on="0"/>
        <pt x="560" y="1994" on="1"/>
        <pt x="676" y="1994" on="0"/>
        <pt x="676" y="1970" on="1"/>
        <pt x="676" y="1954" on="0"/>
        <pt x="622" y="1930" on="0"/>
        <pt x="550" y="1903" on="0"/>
        <pt x="494" y="1862" on="0"/>
      </contour>
      <contour>
        <pt x="600" y="1586" on="1"/>
        <pt x="804" y="1586" on="0"/>
        <pt x="1006" y="1738" on="0"/>
        <pt x="1030" y="1858" on="1"/>
        <pt x="814" y="1858" on="1"/>
        <pt x="792" y="1812" on="0"/>
        <pt x="710" y="1756" on="0"/>
        <pt x="600" y="1756" on="1"/>
        <pt x="491" y="1756" on="0"/>
        <pt x="411" y="1812" on="0"/>
        <pt x="396" y="1858" on="1"/>
        <pt x="170" y="1858" on="1"/>
        <pt x="194" y="1738" on="0"/>
        <pt x="396" y="1586" on="0"/>
      </contour>
    </TTGlyph>
    <TTGlyph name="brevecomb_hookabovecomb.sc" xMin="170" yMin="1586" xMax="1030" yMax="2124">
      <component glyphName="brevecomb_hookabovecomb.case" x="0" y="0" flags="0x204"/>
    </TTGlyph>
    <TTGlyph name="brevecomb_tildecomb" xMin="116" yMin="1232" xMax="1084" yMax="1868">
      <contour>
        <pt x="816" y="1596" on="1"/>
        <pt x="984" y="1596" on="0"/>
        <pt x="1084" y="1660" on="1"/>
        <pt x="1084" y="1860" on="1"/>
        <pt x="1023" y="1832" on="0"/>
        <pt x="906" y="1804" on="0"/>
        <pt x="828" y="1804" on="1"/>
        <pt x="750" y="1804" on="0"/>
        <pt x="613" y="1836" on="0"/>
        <pt x="471" y="1868" on="0"/>
        <pt x="384" y="1868" on="1"/>
        <pt x="296" y="1868" on="0"/>
        <pt x="170" y="1837" on="0"/>
        <pt x="116" y="1802" on="1"/>
        <pt x="116" y="1602" on="1"/>
        <pt x="178" y="1631" on="0"/>
        <pt x="294" y="1658" on="0"/>
        <pt x="372" y="1658" on="1"/>
        <pt x="450" y="1658" on="0"/>
        <pt x="586" y="1627" on="0"/>
        <pt x="729" y="1596" on="0"/>
      </contour>
      <contour>
        <pt x="600" y="1232" on="1"/>
        <pt x="756" y="1232" on="0"/>
        <pt x="959" y="1317" on="0"/>
        <pt x="1069" y="1460" on="0"/>
        <pt x="1084" y="1548" on="1"/>
        <pt x="810" y="1548" on="1"/>
        <pt x="795" y="1502" on="0"/>
        <pt x="696" y="1440" on="0"/>
        <pt x="600" y="1440" on="1"/>
        <pt x="504" y="1440" on="0"/>
        <pt x="405" y="1502" on="0"/>
        <pt x="390" y="1548" on="1"/>
        <pt x="116" y="1548" on="1"/>
        <pt x="131" y="1460" on="0"/>
        <pt x="240" y="1317" on="0"/>
        <pt x="444" y="1232" on="0"/>
      </contour>
    </TTGlyph>
    <TTGlyph name="brevecomb_tildecomb.case" xMin="170" yMin="1586" xMax="1030" yMax="2132">
      <contour>
        <pt x="772" y="1900" on="1"/>
        <pt x="835" y="1900" on="0"/>
        <pt x="951" y="1922" on="0"/>
        <pt x="1030" y="1962" on="1"/>
        <pt x="1030" y="2132" on="1"/>
        <pt x="943" y="2095" on="0"/>
        <pt x="833" y="2066" on="0"/>
        <pt x="776" y="2066" on="1"/>
        <pt x="723" y="2066" on="0"/>
        <pt x="614" y="2095" on="0"/>
        <pt x="495" y="2124" on="0"/>
        <pt x="428" y="2124" on="1"/>
        <pt x="365" y="2124" on="0"/>
        <pt x="250" y="2101" on="0"/>
        <pt x="170" y="2060" on="1"/>
        <pt x="170" y="1890" on="1"/>
        <pt x="257" y="1928" on="0"/>
        <pt x="367" y="1956" on="0"/>
        <pt x="424" y="1956" on="1"/>
        <pt x="477" y="1956" on="0"/>
        <pt x="586" y="1928" on="0"/>
        <pt x="705" y="1900" on="0"/>
      </contour>
      <contour>
        <pt x="600" y="1586" on="1"/>
        <pt x="804" y="1586" on="0"/>
        <pt x="1006" y="1738" on="0"/>
        <pt x="1030" y="1858" on="1"/>
        <pt x="804" y="1858" on="1"/>
        <pt x="789" y="1812" on="0"/>
        <pt x="710" y="1756" on="0"/>
        <pt x="600" y="1756" on="1"/>
        <pt x="491" y="1756" on="0"/>
        <pt x="411" y="1812" on="0"/>
        <pt x="396" y="1858" on="1"/>
        <pt x="170" y="1858" on="1"/>
        <pt x="194" y="1738" on="0"/>
        <pt x="396" y="1586" on="0"/>
      </contour>
    </TTGlyph>
    <TTGlyph name="brevecomb_tildecomb.sc" xMin="170" yMin="1586" xMax="1030" yMax="2132">
      <component glyphName="brevecomb_tildecomb.case" x="0" y="0" flags="0x204"/>
    </TTGlyph>
    <TTGlyph name="breveinvertedcomb" xMin="140" yMin="1248" xMax="1060" yMax="1620">
      <contour>
        <pt x="140" y="1248" on="1"/>
        <pt x="410" y="1248" on="1"/>
        <pt x="419" y="1322" on="0"/>
        <pt x="509" y="1402" on="0"/>
        <pt x="600" y="1402" on="1"/>
        <pt x="692" y="1402" on="0"/>
        <pt x="781" y="1322" on="0"/>
        <pt x="790" y="1248" on="1"/>
        <pt x="1060" y="1248" on="1"/>
        <pt x="1050" y="1421" on="0"/>
        <pt x="818" y="1620" on="0"/>
        <pt x="600" y="1620" on="1"/>
        <pt x="383" y="1620" on="0"/>
        <pt x="151" y="1421" on="0"/>
      </contour>
    </TTGlyph>
    <TTGlyph name="breveinvertedcomb.case" xMin="116" yMin="1586" xMax="1084" yMax="1902">
      <contour>
        <pt x="116" y="1586" on="1"/>
        <pt x="390" y="1586" on="1"/>
        <pt x="405" y="1633" on="0"/>
        <pt x="504" y="1694" on="0"/>
        <pt x="600" y="1694" on="1"/>
        <pt x="696" y="1694" on="0"/>
        <pt x="795" y="1633" on="0"/>
        <pt x="810" y="1586" on="1"/>
        <pt x="1084" y="1586" on="1"/>
        <pt x="1069" y="1674" on="0"/>
        <pt x="959" y="1817" on="0"/>
        <pt x="756" y="1902" on="0"/>
        <pt x="600" y="1902" on="1"/>
        <pt x="444" y="1902" on="0"/>
        <pt x="240" y="1817" on="0"/>
        <pt x="131" y="1674" on="0"/>
      </contour>
    </TTGlyph>
    <TTGlyph name="breveinvertedcomb.sc" xMin="116" yMin="1586" xMax="1084" yMax="1902">
      <component glyphName="breveinvertedcomb.case" x="0" y="0" flags="0x204"/>
    </TTGlyph>
    <TTGlyph name="brokenbar" xMin="130" yMin="-440" xMax="550" yMax="1616">
      <contour>
        <pt x="130" y="836" on="1"/>
        <pt x="550" y="836" on="1"/>
        <pt x="550" y="1616" on="1"/>
        <pt x="130" y="1616" on="1"/>
      </contour>
      <contour>
        <pt x="130" y="-440" on="1"/>
        <pt x="550" y="-440" on="1"/>
        <pt x="550" y="340" on="1"/>
        <pt x="130" y="340" on="1"/>
      </contour>
    </TTGlyph>
    <TTGlyph name="brokenbar.tf" xMin="510" yMin="-440" xMax="930" yMax="1616">
      <contour>
        <pt x="510" y="836" on="1"/>
        <pt x="930" y="836" on="1"/>
        <pt x="930" y="1616" on="1"/>
        <pt x="510" y="1616" on="1"/>
      </contour>
      <contour>
        <pt x="510" y="-440" on="1"/>
        <pt x="930" y="-440" on="1"/>
        <pt x="930" y="340" on="1"/>
        <pt x="510" y="340" on="1"/>
      </contour>
    </TTGlyph>
    <TTGlyph name="bullet" xMin="58" yMin="200" xMax="778" yMax="920">
      <contour>
        <pt x="418" y="200" on="1"/>
        <pt x="519" y="200" on="0"/>
        <pt x="682" y="293" on="0"/>
        <pt x="778" y="456" on="0"/>
        <pt x="778" y="560" on="1"/>
        <pt x="778" y="665" on="0"/>
        <pt x="682" y="828" on="0"/>
        <pt x="519" y="920" on="0"/>
        <pt x="418" y="920" on="1"/>
        <pt x="317" y="920" on="0"/>
        <pt x="154" y="828" on="0"/>
        <pt x="58" y="665" on="0"/>
        <pt x="58" y="560" on="1"/>
        <pt x="58" y="456" on="0"/>
        <pt x="154" y="293" on="0"/>
        <pt x="317" y="200" on="0"/>
      </contour>
    </TTGlyph>
    <TTGlyph name="bulletoperator" xMin="58" yMin="504" xMax="638" yMax="1016">
      <contour>
        <pt x="348" y="504" on="1"/>
        <pt x="485" y="504" on="0"/>
        <pt x="638" y="645" on="0"/>
        <pt x="638" y="760" on="1"/>
        <pt x="638" y="876" on="0"/>
        <pt x="488" y="1016" on="0"/>
        <pt x="348" y="1016" on="1"/>
        <pt x="209" y="1016" on="0"/>
        <pt x="58" y="879" on="0"/>
        <pt x="58" y="760" on="1"/>
        <pt x="58" y="642" on="0"/>
        <pt x="212" y="504" on="0"/>
      </contour>
    </TTGlyph>
    <TTGlyph name="bulletoperator.osf" xMin="58" yMin="304" xMax="638" yMax="816">
      <contour>
        <pt x="348" y="304" on="1"/>
        <pt x="485" y="304" on="0"/>
        <pt x="638" y="445" on="0"/>
        <pt x="638" y="560" on="1"/>
        <pt x="638" y="676" on="0"/>
        <pt x="488" y="816" on="0"/>
        <pt x="348" y="816" on="1"/>
        <pt x="209" y="816" on="0"/>
        <pt x="58" y="679" on="0"/>
        <pt x="58" y="560" on="1"/>
        <pt x="58" y="442" on="0"/>
        <pt x="212" y="304" on="0"/>
      </contour>
    </TTGlyph>
    <TTGlyph name="bulletoperator.tf" xMin="430" yMin="504" xMax="1010" yMax="1016">
      <contour>
        <pt x="720" y="504" on="1"/>
        <pt x="857" y="504" on="0"/>
        <pt x="1010" y="645" on="0"/>
        <pt x="1010" y="760" on="1"/>
        <pt x="1010" y="876" on="0"/>
        <pt x="860" y="1016" on="0"/>
        <pt x="720" y="1016" on="1"/>
        <pt x="581" y="1016" on="0"/>
        <pt x="430" y="879" on="0"/>
        <pt x="430" y="760" on="1"/>
        <pt x="430" y="642" on="0"/>
        <pt x="584" y="504" on="0"/>
      </contour>
    </TTGlyph>
    <TTGlyph name="bulletoperator.tosf" xMin="430" yMin="304" xMax="1010" yMax="816">
      <contour>
        <pt x="720" y="304" on="1"/>
        <pt x="857" y="304" on="0"/>
        <pt x="1010" y="445" on="0"/>
        <pt x="1010" y="560" on="1"/>
        <pt x="1010" y="676" on="0"/>
        <pt x="860" y="816" on="0"/>
        <pt x="720" y="816" on="1"/>
        <pt x="581" y="816" on="0"/>
        <pt x="430" y="679" on="0"/>
        <pt x="430" y="560" on="1"/>
        <pt x="430" y="442" on="0"/>
        <pt x="584" y="304" on="0"/>
      </contour>
    </TTGlyph>
    <TTGlyph name="c" xMin="66" yMin="-22" xMax="1126" yMax="1118">
      <contour>
        <pt x="792" y="-22" on="1"/>
        <pt x="893" y="-22" on="0"/>
        <pt x="1065" y="2" on="0"/>
        <pt x="1126" y="20" on="1"/>
        <pt x="1126" y="368" on="1"/>
        <pt x="1033" y="350" on="0"/>
        <pt x="908" y="334" on="0"/>
        <pt x="840" y="334" on="1"/>
        <pt x="690" y="334" on="0"/>
        <pt x="538" y="444" on="0"/>
        <pt x="538" y="546" on="1"/>
        <pt x="538" y="650" on="0"/>
        <pt x="688" y="762" on="0"/>
        <pt x="860" y="762" on="1"/>
        <pt x="929" y="762" on="0"/>
        <pt x="1053" y="751" on="0"/>
        <pt x="1126" y="740" on="1"/>
        <pt x="1126" y="1088" on="1"/>
        <pt x="988" y="1118" on="0"/>
        <pt x="812" y="1118" on="1"/>
        <pt x="446" y="1118" on="0"/>
        <pt x="66" y="816" on="0"/>
        <pt x="66" y="546" on="1"/>
        <pt x="66" y="276" on="0"/>
        <pt x="437" y="-22" on="0"/>
      </contour>
    </TTGlyph>
    <TTGlyph name="c.sc" xMin="64" yMin="-16" xMax="1242" yMax="1206">
      <contour>
        <pt x="932" y="-16" on="1"/>
        <pt x="1009" y="-16" on="0"/>
        <pt x="1175" y="0" on="0"/>
        <pt x="1242" y="12" on="1"/>
        <pt x="1242" y="364" on="1"/>
        <pt x="1185" y="355" on="0"/>
        <pt x="1041" y="338" on="0"/>
        <pt x="964" y="338" on="1"/>
        <pt x="741" y="338" on="0"/>
        <pt x="560" y="480" on="0"/>
        <pt x="560" y="594" on="1"/>
        <pt x="560" y="713" on="0"/>
        <pt x="747" y="852" on="0"/>
        <pt x="982" y="852" on="1"/>
        <pt x="1053" y="852" on="0"/>
        <pt x="1182" y="841" on="0"/>
        <pt x="1242" y="832" on="1"/>
        <pt x="1242" y="1184" on="1"/>
        <pt x="1170" y="1196" on="0"/>
        <pt x="1015" y="1206" on="0"/>
        <pt x="940" y="1206" on="1"/>
        <pt x="647" y="1206" on="0"/>
        <pt x="258" y="1051" on="0"/>
        <pt x="64" y="774" on="0"/>
        <pt x="64" y="592" on="1"/>
        <pt x="64" y="303" on="0"/>
        <pt x="493" y="-16" on="0"/>
      </contour>
    </TTGlyph>
    <TTGlyph name="cacute" xMin="66" yMin="-22" xMax="1194" yMax="1616">
      <component glyphName="c" x="0" y="0" flags="0x204"/>
      <component glyphName="acutecomb" x="48" y="0" flags="0x4"/>
    </TTGlyph>
    <TTGlyph name="cacute.sc" xMin="64" yMin="-16" xMax="1250" yMax="1612">
      <component glyphName="c.sc" x="0" y="0" flags="0x204"/>
      <component glyphName="acutecomb.sc" x="172" y="-290" flags="0x4"/>
    </TTGlyph>
    <TTGlyph name="caron" xMin="136" yMin="1220" xMax="1064" yMax="1616">
      <component glyphName="caroncomb" x="0" y="0" flags="0x4"/>
    </TTGlyph>
    <TTGlyph name="caron.alt" xMin="564" yMin="1180" xMax="894" yMax="1616">
      <component glyphName="caroncomb.alt" x="0" y="0" flags="0x4"/>
    </TTGlyph>
    <TTGlyph name="caroncomb" xMin="136" yMin="1220" xMax="1064" yMax="1616">
      <contour>
        <pt x="422" y="1220" on="1"/>
        <pt x="778" y="1220" on="1"/>
        <pt x="1064" y="1616" on="1"/>
        <pt x="730" y="1616" on="1"/>
        <pt x="600" y="1429" on="1"/>
        <pt x="470" y="1616" on="1"/>
        <pt x="136" y="1616" on="1"/>
      </contour>
    </TTGlyph>
    <TTGlyph name="caroncomb.alt" xMin="564" yMin="1180" xMax="894" yMax="1616">
      <contour>
        <pt x="564" y="1180" on="1"/>
        <pt x="804" y="1180" on="1"/>
        <pt x="845" y="1263" on="0"/>
        <pt x="894" y="1489" on="0"/>
        <pt x="894" y="1616" on="1"/>
        <pt x="600" y="1616" on="1"/>
        <pt x="600" y="1493" on="0"/>
        <pt x="584" y="1296" on="0"/>
      </contour>
    </TTGlyph>
    <TTGlyph name="caroncomb.alt.case" xMin="568" yMin="1140" xMax="894" yMax="1616">
      <contour>
        <pt x="568" y="1140" on="1"/>
        <pt x="808" y="1140" on="1"/>
        <pt x="844" y="1223" on="0"/>
        <pt x="894" y="1459" on="0"/>
        <pt x="894" y="1616" on="1"/>
        <pt x="600" y="1616" on="1"/>
        <pt x="600" y="1514" on="0"/>
        <pt x="594" y="1357" on="0"/>
        <pt x="580" y="1217" on="0"/>
      </contour>
    </TTGlyph>
    <TTGlyph name="caroncomb.alt.sc" xMin="568" yMin="1140" xMax="894" yMax="1616">
      <component glyphName="caroncomb.alt.case" x="0" y="0" flags="0x204"/>
    </TTGlyph>
    <TTGlyph name="caroncomb.case" xMin="76" yMin="1586" xMax="1124" yMax="1902">
      <contour>
        <pt x="408" y="1586" on="1"/>
        <pt x="792" y="1586" on="1"/>
        <pt x="1124" y="1902" on="1"/>
        <pt x="760" y="1902" on="1"/>
        <pt x="600" y="1747" on="1"/>
        <pt x="440" y="1902" on="1"/>
        <pt x="76" y="1902" on="1"/>
      </contour>
    </TTGlyph>
    <TTGlyph name="caroncomb.sc" xMin="76" yMin="1586" xMax="1124" yMax="1902">
      <component glyphName="caroncomb.case" x="0" y="0" flags="0x204"/>
    </TTGlyph>
    <TTGlyph name="caroncomb_dotaccentcomb" xMin="136" yMin="1220" xMax="1064" yMax="1944">
      <contour>
        <pt x="600" y="1656" on="1"/>
        <pt x="716" y="1656" on="0"/>
        <pt x="814" y="1737" on="0"/>
        <pt x="814" y="1800" on="1"/>
        <pt x="814" y="1863" on="0"/>
        <pt x="716" y="1944" on="0"/>
        <pt x="600" y="1944" on="1"/>
        <pt x="485" y="1944" on="0"/>
        <pt x="386" y="1863" on="0"/>
        <pt x="386" y="1800" on="1"/>
        <pt x="386" y="1737" on="0"/>
        <pt x="485" y="1656" on="0"/>
      </contour>
      <contour>
        <pt x="422" y="1220" on="1"/>
        <pt x="778" y="1220" on="1"/>
        <pt x="1064" y="1616" on="1"/>
        <pt x="730" y="1616" on="1"/>
        <pt x="600" y="1429" on="1"/>
        <pt x="470" y="1616" on="1"/>
        <pt x="136" y="1616" on="1"/>
      </contour>
    </TTGlyph>
    <TTGlyph name="caroncomb_dotaccentcomb.case" xMin="76" yMin="1586" xMax="1124" yMax="2230">
      <contour>
        <pt x="600" y="1942" on="1"/>
        <pt x="716" y="1942" on="0"/>
        <pt x="814" y="2023" on="0"/>
        <pt x="814" y="2086" on="1"/>
        <pt x="814" y="2149" on="0"/>
        <pt x="716" y="2230" on="0"/>
        <pt x="600" y="2230" on="1"/>
        <pt x="485" y="2230" on="0"/>
        <pt x="386" y="2149" on="0"/>
        <pt x="386" y="2086" on="1"/>
        <pt x="386" y="2023" on="0"/>
        <pt x="485" y="1942" on="0"/>
      </contour>
      <contour>
        <pt x="408" y="1586" on="1"/>
        <pt x="792" y="1586" on="1"/>
        <pt x="1124" y="1902" on="1"/>
        <pt x="760" y="1902" on="1"/>
        <pt x="600" y="1747" on="1"/>
        <pt x="440" y="1902" on="1"/>
        <pt x="76" y="1902" on="1"/>
      </contour>
    </TTGlyph>
    <TTGlyph name="caroncomb_dotaccentcomb.sc" xMin="76" yMin="1586" xMax="1124" yMax="2230">
      <component glyphName="caroncomb_dotaccentcomb.case" x="0" y="0" flags="0x204"/>
    </TTGlyph>
    <TTGlyph name="ccaron" xMin="66" yMin="-22" xMax="1126" yMax="1616">
      <component glyphName="c" x="0" y="0" flags="0x204"/>
      <component glyphName="caroncomb" x="48" y="0" flags="0x4"/>
    </TTGlyph>
    <TTGlyph name="ccaron.sc" xMin="64" yMin="-16" xMax="1296" yMax="1612">
      <component glyphName="c.sc" x="0" y="0" flags="0x204"/>
      <component glyphName="caroncomb.sc" x="172" y="-290" flags="0x4"/>
    </TTGlyph>
    <TTGlyph name="ccedilla" xMin="66" yMin="-460" xMax="1126" yMax="1118">
      <component glyphName="c" x="0" y="0" flags="0x204"/>
      <component glyphName="cedillacomb" x="76" y="0" flags="0x4"/>
    </TTGlyph>
    <TTGlyph name="ccedilla.sc" xMin="64" yMin="-460" xMax="1242" yMax="1206">
      <component glyphName="c.sc" x="0" y="0" flags="0x204"/>
      <component glyphName="cedillacomb.sc" x="168" y="0" flags="0x4"/>
    </TTGlyph>
    <TTGlyph name="ccedillaacute" xMin="66" yMin="-460" xMax="1194" yMax="1616">
      <component glyphName="c" x="0" y="0" flags="0x204"/>
      <component glyphName="cedillacomb" x="76" y="0" flags="0x4"/>
      <component glyphName="acutecomb" x="48" y="0" flags="0x4"/>
    </TTGlyph>
    <TTGlyph name="ccedillaacute.sc" xMin="64" yMin="-460" xMax="1250" yMax="1612">
      <component glyphName="c.sc" x="0" y="0" flags="0x204"/>
      <component glyphName="cedillacomb.sc" x="168" y="0" flags="0x4"/>
      <component glyphName="acutecomb.sc" x="172" y="-290" flags="0x4"/>
    </TTGlyph>
    <TTGlyph name="ccircumflex" xMin="66" yMin="-22" xMax="1126" yMax="1616">
      <component glyphName="c" x="0" y="0" flags="0x204"/>
      <component glyphName="circumflexcomb" x="48" y="0" flags="0x4"/>
    </TTGlyph>
    <TTGlyph name="ccircumflex.sc" xMin="64" yMin="-16" xMax="1296" yMax="1612">
      <component glyphName="c.sc" x="0" y="0" flags="0x204"/>
      <component glyphName="circumflexcomb.sc" x="172" y="-290" flags="0x4"/>
    </TTGlyph>
    <TTGlyph name="cdotaccent" xMin="66" yMin="-22" xMax="1126" yMax="1630">
      <component glyphName="c" x="0" y="0" flags="0x204"/>
      <component glyphName="dotaccentcomb" x="48" y="0" flags="0x4"/>
    </TTGlyph>
    <TTGlyph name="cdotaccent.sc" xMin="64" yMin="-16" xMax="1242" yMax="1640">
      <component glyphName="c.sc" x="0" y="0" flags="0x204"/>
      <component glyphName="dotaccentcomb.sc" x="172" y="-290" flags="0x4"/>
    </TTGlyph>
    <TTGlyph name="cedi" xMin="84" yMin="-240" xMax="1416" yMax="1720">
      <contour>
        <pt x="710" y="-240" on="1"/>
        <pt x="1150" y="-240" on="1"/>
        <pt x="1150" y="-17" on="1"/>
        <pt x="1221" y="-12" on="0"/>
        <pt x="1356" y="7" on="0"/>
        <pt x="1416" y="20" on="1"/>
        <pt x="1416" y="396" on="1"/>
        <pt x="1343" y="381" on="0"/>
        <pt x="1171" y="360" on="0"/>
        <pt x="1078" y="360" on="1"/>
        <pt x="816" y="360" on="0"/>
        <pt x="582" y="557" on="0"/>
        <pt x="582" y="740" on="1"/>
        <pt x="582" y="923" on="0"/>
        <pt x="821" y="1120" on="0"/>
        <pt x="1098" y="1120" on="1"/>
        <pt x="1185" y="1120" on="0"/>
        <pt x="1343" y="1106" on="0"/>
        <pt x="1416" y="1092" on="1"/>
        <pt x="1416" y="1468" on="1"/>
        <pt x="1290" y="1492" on="0"/>
        <pt x="1150" y="1498" on="1"/>
        <pt x="1150" y="1720" on="1"/>
        <pt x="710" y="1720" on="1"/>
        <pt x="710" y="1465" on="1"/>
        <pt x="399" y="1397" on="0"/>
        <pt x="84" y="1016" on="0"/>
        <pt x="84" y="736" on="1"/>
        <pt x="84" y="438" on="0"/>
        <pt x="398" y="71" on="0"/>
        <pt x="710" y="10" on="1"/>
      </contour>
    </TTGlyph>
    <TTGlyph name="cedi.tf" xMin="60" yMin="-240" xMax="1352" yMax="1720">
      <contour>
        <pt x="666" y="-240" on="1"/>
        <pt x="1106" y="-240" on="1"/>
        <pt x="1106" y="-16" on="1"/>
        <pt x="1172" y="-11" on="0"/>
        <pt x="1297" y="7" on="0"/>
        <pt x="1352" y="20" on="1"/>
        <pt x="1352" y="396" on="1"/>
        <pt x="1282" y="381" on="0"/>
        <pt x="1119" y="360" on="0"/>
        <pt x="1030" y="360" on="1"/>
        <pt x="780" y="360" on="0"/>
        <pt x="558" y="557" on="0"/>
        <pt x="558" y="740" on="1"/>
        <pt x="558" y="923" on="0"/>
        <pt x="785" y="1120" on="0"/>
        <pt x="1050" y="1120" on="1"/>
        <pt x="1133" y="1120" on="0"/>
        <pt x="1282" y="1106" on="0"/>
        <pt x="1352" y="1092" on="1"/>
        <pt x="1352" y="1468" on="1"/>
        <pt x="1236" y="1491" on="0"/>
        <pt x="1106" y="1498" on="1"/>
        <pt x="1106" y="1720" on="1"/>
        <pt x="666" y="1720" on="1"/>
        <pt x="666" y="1465" on="1"/>
        <pt x="365" y="1397" on="0"/>
        <pt x="60" y="1016" on="0"/>
        <pt x="60" y="736" on="1"/>
        <pt x="60" y="438" on="0"/>
        <pt x="364" y="71" on="0"/>
        <pt x="666" y="10" on="1"/>
      </contour>
    </TTGlyph>
    <TTGlyph name="cedilla" xMin="386" yMin="-460" xMax="892" yMax="20">
      <component glyphName="cedillacomb" x="0" y="0" flags="0x4"/>
    </TTGlyph>
    <TTGlyph name="cedillacomb" xMin="386" yMin="-460" xMax="892" yMax="20">
      <contour>
        <pt x="594" y="-460" on="1"/>
        <pt x="741" y="-460" on="0"/>
        <pt x="892" y="-356" on="0"/>
        <pt x="892" y="-266" on="1"/>
        <pt x="892" y="-193" on="0"/>
        <pt x="807" y="-91" on="0"/>
        <pt x="714" y="-74" on="1"/>
        <pt x="714" y="20" on="1"/>
        <pt x="512" y="20" on="1"/>
        <pt x="512" y="-184" on="1"/>
        <pt x="574" y="-184" on="1"/>
        <pt x="668" y="-184" on="0"/>
        <pt x="668" y="-244" on="1"/>
        <pt x="668" y="-304" on="0"/>
        <pt x="572" y="-304" on="1"/>
        <pt x="533" y="-304" on="0"/>
        <pt x="425" y="-289" on="0"/>
        <pt x="386" y="-274" on="1"/>
        <pt x="386" y="-428" on="1"/>
        <pt x="430" y="-443" on="0"/>
        <pt x="536" y="-460" on="0"/>
      </contour>
    </TTGlyph>
    <TTGlyph name="cedillacomb.case" xMin="326" yMin="-460" xMax="872" yMax="20">
      <contour>
        <pt x="554" y="-460" on="1"/>
        <pt x="713" y="-460" on="0"/>
        <pt x="872" y="-351" on="0"/>
        <pt x="872" y="-260" on="1"/>
        <pt x="872" y="-187" on="0"/>
        <pt x="778" y="-88" on="0"/>
        <pt x="674" y="-72" on="1"/>
        <pt x="674" y="20" on="1"/>
        <pt x="472" y="20" on="1"/>
        <pt x="472" y="-184" on="1"/>
        <pt x="534" y="-184" on="1"/>
        <pt x="590" y="-184" on="0"/>
        <pt x="648" y="-211" on="0"/>
        <pt x="648" y="-246" on="1"/>
        <pt x="648" y="-304" on="0"/>
        <pt x="532" y="-304" on="1"/>
        <pt x="484" y="-304" on="0"/>
        <pt x="374" y="-289" on="0"/>
        <pt x="326" y="-274" on="1"/>
        <pt x="326" y="-428" on="1"/>
        <pt x="377" y="-443" on="0"/>
        <pt x="487" y="-460" on="0"/>
      </contour>
    </TTGlyph>
    <TTGlyph name="cedillacomb.sc" xMin="326" yMin="-460" xMax="872" yMax="20">
      <component glyphName="cedillacomb.case" x="0" y="0" flags="0x204"/>
    </TTGlyph>
    <TTGlyph name="cent" xMin="66" yMin="-240" xMax="1126" yMax="1340">
      <contour>
        <pt x="536" y="-240" on="1"/>
        <pt x="936" y="-240" on="1"/>
        <pt x="936" y="-15" on="1"/>
        <pt x="992" y="-9" on="0"/>
        <pt x="1088" y="9" on="0"/>
        <pt x="1126" y="20" on="1"/>
        <pt x="1126" y="368" on="1"/>
        <pt x="1033" y="350" on="0"/>
        <pt x="908" y="334" on="0"/>
        <pt x="840" y="334" on="1"/>
        <pt x="690" y="334" on="0"/>
        <pt x="538" y="444" on="0"/>
        <pt x="538" y="546" on="1"/>
        <pt x="538" y="650" on="0"/>
        <pt x="688" y="762" on="0"/>
        <pt x="860" y="762" on="1"/>
        <pt x="929" y="762" on="0"/>
        <pt x="1053" y="751" on="0"/>
        <pt x="1126" y="740" on="1"/>
        <pt x="1126" y="1088" on="1"/>
        <pt x="1038" y="1107" on="0"/>
        <pt x="936" y="1114" on="1"/>
        <pt x="936" y="1340" on="1"/>
        <pt x="536" y="1340" on="1"/>
        <pt x="536" y="1091" on="1"/>
        <pt x="304" y="1040" on="0"/>
        <pt x="66" y="759" on="0"/>
        <pt x="66" y="546" on="1"/>
        <pt x="66" y="330" on="0"/>
        <pt x="305" y="51" on="0"/>
        <pt x="536" y="2" on="1"/>
      </contour>
    </TTGlyph>
    <TTGlyph name="cent.tf" xMin="130" yMin="-240" xMax="1312" yMax="1340">
      <contour>
        <pt x="660" y="-240" on="1"/>
        <pt x="1060" y="-240" on="1"/>
        <pt x="1060" y="-18" on="1"/>
        <pt x="1136" y="-12" on="0"/>
        <pt x="1263" y="11" on="0"/>
        <pt x="1312" y="26" on="1"/>
        <pt x="1312" y="374" on="1"/>
        <pt x="1201" y="353" on="0"/>
        <pt x="1052" y="334" on="0"/>
        <pt x="966" y="334" on="1"/>
        <pt x="785" y="334" on="0"/>
        <pt x="602" y="444" on="0"/>
        <pt x="602" y="546" on="1"/>
        <pt x="602" y="650" on="0"/>
        <pt x="782" y="762" on="0"/>
        <pt x="990" y="762" on="1"/>
        <pt x="1077" y="762" on="0"/>
        <pt x="1225" y="748" on="0"/>
        <pt x="1312" y="734" on="1"/>
        <pt x="1312" y="1082" on="1"/>
        <pt x="1199" y="1109" on="0"/>
        <pt x="1060" y="1116" on="1"/>
        <pt x="1060" y="1340" on="1"/>
        <pt x="660" y="1340" on="1"/>
        <pt x="660" y="1092" on="1"/>
        <pt x="398" y="1042" on="0"/>
        <pt x="130" y="761" on="0"/>
        <pt x="130" y="546" on="1"/>
        <pt x="130" y="328" on="0"/>
        <pt x="398" y="48" on="0"/>
        <pt x="660" y="1" on="1"/>
      </contour>
    </TTGlyph>
    <TTGlyph name="circumflex" xMin="136" yMin="1220" xMax="1064" yMax="1616">
      <component glyphName="circumflexcomb" x="0" y="0" flags="0x4"/>
    </TTGlyph>
    <TTGlyph name="circumflexcomb" xMin="136" yMin="1220" xMax="1064" yMax="1616">
      <contour>
        <pt x="136" y="1220" on="1"/>
        <pt x="470" y="1220" on="1"/>
        <pt x="600" y="1407" on="1"/>
        <pt x="730" y="1220" on="1"/>
        <pt x="1064" y="1220" on="1"/>
        <pt x="778" y="1616" on="1"/>
        <pt x="422" y="1616" on="1"/>
      </contour>
    </TTGlyph>
    <TTGlyph name="circumflexcomb.case" xMin="76" yMin="1586" xMax="1124" yMax="1902">
      <contour>
        <pt x="76" y="1586" on="1"/>
        <pt x="440" y="1586" on="1"/>
        <pt x="600" y="1741" on="1"/>
        <pt x="760" y="1586" on="1"/>
        <pt x="1124" y="1586" on="1"/>
        <pt x="792" y="1902" on="1"/>
        <pt x="408" y="1902" on="1"/>
      </contour>
    </TTGlyph>
    <TTGlyph name="circumflexcomb.sc" xMin="76" yMin="1586" xMax="1124" yMax="1902">
      <component glyphName="circumflexcomb.case" x="0" y="0" flags="0x204"/>
    </TTGlyph>
    <TTGlyph name="circumflexcomb_acutecomb" xMin="136" yMin="1220" xMax="1442" yMax="1868">
      <contour>
        <pt x="850" y="1598" on="1"/>
        <pt x="1170" y="1598" on="1"/>
        <pt x="1442" y="1868" on="1"/>
        <pt x="1054" y="1868" on="1"/>
      </contour>
      <contour>
        <pt x="136" y="1220" on="1"/>
        <pt x="470" y="1220" on="1"/>
        <pt x="600" y="1407" on="1"/>
        <pt x="730" y="1220" on="1"/>
        <pt x="1064" y="1220" on="1"/>
        <pt x="778" y="1616" on="1"/>
        <pt x="422" y="1616" on="1"/>
      </contour>
    </TTGlyph>
    <TTGlyph name="circumflexcomb_acutecomb.case" xMin="76" yMin="1586" xMax="1310" yMax="2064">
      <contour>
        <pt x="888" y="1828" on="1"/>
        <pt x="1148" y="1828" on="1"/>
        <pt x="1310" y="2064" on="1"/>
        <pt x="994" y="2064" on="1"/>
      </contour>
      <contour>
        <pt x="76" y="1586" on="1"/>
        <pt x="440" y="1586" on="1"/>
        <pt x="600" y="1720" on="1"/>
        <pt x="760" y="1586" on="1"/>
        <pt x="1124" y="1586" on="1"/>
        <pt x="792" y="1858" on="1"/>
        <pt x="408" y="1858" on="1"/>
      </contour>
    </TTGlyph>
    <TTGlyph name="circumflexcomb_acutecomb.sc" xMin="76" yMin="1586" xMax="1310" yMax="2064">
      <component glyphName="circumflexcomb_acutecomb.case" x="0" y="0" flags="0x204"/>
    </TTGlyph>
    <TTGlyph name="circumflexcomb_gravecomb" xMin="136" yMin="1220" xMax="1210" yMax="1868">
      <contour>
        <pt x="890" y="1598" on="1"/>
        <pt x="1210" y="1598" on="1"/>
        <pt x="1006" y="1868" on="1"/>
        <pt x="618" y="1868" on="1"/>
      </contour>
      <contour>
        <pt x="136" y="1220" on="1"/>
        <pt x="470" y="1220" on="1"/>
        <pt x="600" y="1407" on="1"/>
        <pt x="730" y="1220" on="1"/>
        <pt x="1064" y="1220" on="1"/>
        <pt x="778" y="1616" on="1"/>
        <pt x="422" y="1616" on="1"/>
      </contour>
    </TTGlyph>
    <TTGlyph name="circumflexcomb_gravecomb.case" xMin="76" yMin="1586" xMax="1188" yMax="2064">
      <contour>
        <pt x="928" y="1828" on="1"/>
        <pt x="1188" y="1828" on="1"/>
        <pt x="1082" y="2064" on="1"/>
        <pt x="766" y="2064" on="1"/>
      </contour>
      <contour>
        <pt x="76" y="1586" on="1"/>
        <pt x="440" y="1586" on="1"/>
        <pt x="600" y="1720" on="1"/>
        <pt x="760" y="1586" on="1"/>
        <pt x="1124" y="1586" on="1"/>
        <pt x="792" y="1858" on="1"/>
        <pt x="408" y="1858" on="1"/>
      </contour>
    </TTGlyph>
    <TTGlyph name="circumflexcomb_gravecomb.sc" xMin="76" yMin="1586" xMax="1188" yMax="2064">
      <component glyphName="circumflexcomb_gravecomb.case" x="0" y="0" flags="0x204"/>
    </TTGlyph>
    <TTGlyph name="circumflexcomb_hookabovecomb" xMin="136" yMin="1220" xMax="1204" yMax="1894">
      <contour>
        <pt x="850" y="1598" on="1"/>
        <pt x="1038" y="1598" on="1"/>
        <pt x="1043" y="1628" on="0"/>
        <pt x="1095" y="1664" on="0"/>
        <pt x="1158" y="1694" on="0"/>
        <pt x="1204" y="1734" on="0"/>
        <pt x="1204" y="1768" on="1"/>
        <pt x="1204" y="1836" on="0"/>
        <pt x="1076" y="1894" on="0"/>
        <pt x="938" y="1894" on="1"/>
        <pt x="892" y="1894" on="0"/>
        <pt x="767" y="1883" on="0"/>
        <pt x="728" y="1874" on="1"/>
        <pt x="728" y="1752" on="1"/>
        <pt x="811" y="1768" on="0"/>
        <pt x="904" y="1768" on="1"/>
        <pt x="998" y="1768" on="0"/>
        <pt x="998" y="1740" on="1"/>
        <pt x="998" y="1729" on="0"/>
        <pt x="955" y="1711" on="0"/>
        <pt x="899" y="1684" on="0"/>
        <pt x="853" y="1638" on="0"/>
      </contour>
      <contour>
        <pt x="136" y="1220" on="1"/>
        <pt x="470" y="1220" on="1"/>
        <pt x="600" y="1407" on="1"/>
        <pt x="730" y="1220" on="1"/>
        <pt x="1064" y="1220" on="1"/>
        <pt x="778" y="1616" on="1"/>
        <pt x="422" y="1616" on="1"/>
      </contour>
    </TTGlyph>
    <TTGlyph name="circumflexcomb_hookabovecomb.case" xMin="76" yMin="1586" xMax="1294" yMax="2124">
      <contour>
        <pt x="886" y="1828" on="1"/>
        <pt x="1102" y="1828" on="1"/>
        <pt x="1105" y="1845" on="0"/>
        <pt x="1164" y="1872" on="0"/>
        <pt x="1238" y="1907" on="0"/>
        <pt x="1294" y="1957" on="0"/>
        <pt x="1294" y="1996" on="1"/>
        <pt x="1294" y="2058" on="0"/>
        <pt x="1147" y="2124" on="0"/>
        <pt x="988" y="2124" on="1"/>
        <pt x="933" y="2124" on="0"/>
        <pt x="799" y="2113" on="0"/>
        <pt x="748" y="2104" on="1"/>
        <pt x="748" y="1976" on="1"/>
        <pt x="810" y="1987" on="0"/>
        <pt x="908" y="1994" on="0"/>
        <pt x="954" y="1994" on="1"/>
        <pt x="1070" y="1994" on="0"/>
        <pt x="1070" y="1970" on="1"/>
        <pt x="1070" y="1954" on="0"/>
        <pt x="1016" y="1930" on="0"/>
        <pt x="944" y="1903" on="0"/>
        <pt x="888" y="1862" on="0"/>
      </contour>
      <contour>
        <pt x="76" y="1586" on="1"/>
        <pt x="440" y="1586" on="1"/>
        <pt x="600" y="1720" on="1"/>
        <pt x="760" y="1586" on="1"/>
        <pt x="1124" y="1586" on="1"/>
        <pt x="792" y="1858" on="1"/>
        <pt x="408" y="1858" on="1"/>
      </contour>
    </TTGlyph>
    <TTGlyph name="circumflexcomb_hookabovecomb.sc" xMin="76" yMin="1586" xMax="1294" yMax="2124">
      <component glyphName="circumflexcomb_hookabovecomb.case" x="0" y="0" flags="0x204"/>
    </TTGlyph>
    <TTGlyph name="circumflexcomb_tildecomb" xMin="76" yMin="1222" xMax="1124" yMax="1868">
      <contour>
        <pt x="798" y="1596" on="1"/>
        <pt x="879" y="1596" on="0"/>
        <pt x="995" y="1626" on="0"/>
        <pt x="1044" y="1660" on="1"/>
        <pt x="1044" y="1859" on="1"/>
        <pt x="987" y="1831" on="0"/>
        <pt x="881" y="1804" on="0"/>
        <pt x="810" y="1804" on="1"/>
        <pt x="738" y="1804" on="0"/>
        <pt x="613" y="1836" on="0"/>
        <pt x="482" y="1868" on="0"/>
        <pt x="402" y="1868" on="1"/>
        <pt x="321" y="1868" on="0"/>
        <pt x="206" y="1836" on="0"/>
        <pt x="156" y="1802" on="1"/>
        <pt x="156" y="1603" on="1"/>
        <pt x="213" y="1632" on="0"/>
        <pt x="320" y="1658" on="0"/>
        <pt x="390" y="1658" on="1"/>
        <pt x="462" y="1658" on="0"/>
        <pt x="587" y="1627" on="0"/>
        <pt x="718" y="1596" on="0"/>
      </contour>
      <contour>
        <pt x="76" y="1222" on="1"/>
        <pt x="440" y="1222" on="1"/>
        <pt x="600" y="1377" on="1"/>
        <pt x="760" y="1222" on="1"/>
        <pt x="1124" y="1222" on="1"/>
        <pt x="792" y="1538" on="1"/>
        <pt x="408" y="1538" on="1"/>
      </contour>
    </TTGlyph>
    <TTGlyph name="circumflexcomb_tildecomb.case" xMin="76" yMin="1586" xMax="1124" yMax="2132">
      <contour>
        <pt x="830" y="1900" on="1"/>
        <pt x="907" y="1900" on="0"/>
        <pt x="1042" y="1922" on="0"/>
        <pt x="1124" y="1962" on="1"/>
        <pt x="1124" y="2132" on="1"/>
        <pt x="1033" y="2095" on="0"/>
        <pt x="905" y="2066" on="0"/>
        <pt x="834" y="2066" on="1"/>
        <pt x="760" y="2066" on="0"/>
        <pt x="617" y="2095" on="0"/>
        <pt x="462" y="2124" on="0"/>
        <pt x="370" y="2124" on="1"/>
        <pt x="294" y="2124" on="0"/>
        <pt x="159" y="2101" on="0"/>
        <pt x="76" y="2060" on="1"/>
        <pt x="76" y="1890" on="1"/>
        <pt x="168" y="1928" on="0"/>
        <pt x="296" y="1956" on="0"/>
        <pt x="366" y="1956" on="1"/>
        <pt x="440" y="1956" on="0"/>
        <pt x="583" y="1928" on="0"/>
        <pt x="738" y="1900" on="0"/>
      </contour>
      <contour>
        <pt x="76" y="1586" on="1"/>
        <pt x="440" y="1586" on="1"/>
        <pt x="600" y="1720" on="1"/>
        <pt x="760" y="1586" on="1"/>
        <pt x="1124" y="1586" on="1"/>
        <pt x="792" y="1858" on="1"/>
        <pt x="408" y="1858" on="1"/>
      </contour>
    </TTGlyph>
    <TTGlyph name="circumflexcomb_tildecomb.sc" xMin="76" yMin="1586" xMax="1124" yMax="2132">
      <component glyphName="circumflexcomb_tildecomb.case" x="0" y="0" flags="0x204"/>
    </TTGlyph>
    <TTGlyph name="colon" xMin="58" yMin="-20" xMax="638" yMax="1120">
      <component glyphName="period" x="0" y="0" flags="0x204"/>
      <component glyphName="period" x="0" y="628" flags="0x4"/>
    </TTGlyph>
    <TTGlyph name="colon.tf" xMin="70" yMin="-20" xMax="650" yMax="1120">
      <contour>
        <pt x="360" y="608" on="1"/>
        <pt x="497" y="608" on="0"/>
        <pt x="650" y="749" on="0"/>
        <pt x="650" y="864" on="1"/>
        <pt x="650" y="980" on="0"/>
        <pt x="500" y="1120" on="0"/>
        <pt x="360" y="1120" on="1"/>
        <pt x="221" y="1120" on="0"/>
        <pt x="70" y="983" on="0"/>
        <pt x="70" y="864" on="1"/>
        <pt x="70" y="746" on="0"/>
        <pt x="224" y="608" on="0"/>
      </contour>
      <contour>
        <pt x="360" y="-20" on="1"/>
        <pt x="497" y="-20" on="0"/>
        <pt x="650" y="121" on="0"/>
        <pt x="650" y="236" on="1"/>
        <pt x="650" y="352" on="0"/>
        <pt x="500" y="492" on="0"/>
        <pt x="360" y="492" on="1"/>
        <pt x="221" y="492" on="0"/>
        <pt x="70" y="355" on="0"/>
        <pt x="70" y="236" on="1"/>
        <pt x="70" y="118" on="0"/>
        <pt x="224" y="-20" on="0"/>
      </contour>
    </TTGlyph>
    <TTGlyph name="colonsign" xMin="84" yMin="-240" xMax="1416" yMax="1720">
      <contour>
        <pt x="1048" y="-20" on="1"/>
        <pt x="1144" y="-20" on="0"/>
        <pt x="1335" y="2" on="0"/>
        <pt x="1416" y="20" on="1"/>
        <pt x="1416" y="396" on="1"/>
        <pt x="1343" y="381" on="0"/>
        <pt x="1171" y="360" on="0"/>
        <pt x="1078" y="360" on="1"/>
        <pt x="816" y="360" on="0"/>
        <pt x="582" y="557" on="0"/>
        <pt x="582" y="740" on="1"/>
        <pt x="582" y="923" on="0"/>
        <pt x="821" y="1120" on="0"/>
        <pt x="1098" y="1120" on="1"/>
        <pt x="1185" y="1120" on="0"/>
        <pt x="1343" y="1106" on="0"/>
        <pt x="1416" y="1092" on="1"/>
        <pt x="1416" y="1468" on="1"/>
        <pt x="1376" y="1476" on="0"/>
        <pt x="1335" y="1482" on="1"/>
        <pt x="1416" y="1720" on="1"/>
        <pt x="1148" y="1720" on="1"/>
        <pt x="1073" y="1500" on="1"/>
        <pt x="1066" y="1500" on="0"/>
        <pt x="1058" y="1500" on="1"/>
        <pt x="998" y="1500" on="0"/>
        <pt x="942" y="1497" on="1"/>
        <pt x="1018" y="1720" on="1"/>
        <pt x="750" y="1720" on="1"/>
        <pt x="659" y="1453" on="1"/>
        <pt x="373" y="1377" on="0"/>
        <pt x="84" y="1004" on="0"/>
        <pt x="84" y="736" on="1"/>
        <pt x="84" y="430" on="0"/>
        <pt x="249" y="245" on="1"/>
        <pt x="84" y="-240" on="1"/>
        <pt x="352" y="-240" on="1"/>
        <pt x="463" y="88" on="1"/>
        <pt x="517" y="63" on="0"/>
        <pt x="578" y="43" on="1"/>
        <pt x="482" y="-240" on="1"/>
        <pt x="750" y="-240" on="1"/>
        <pt x="829" y="-8" on="1"/>
        <pt x="932" y="-20" on="0"/>
      </contour>
    </TTGlyph>
    <TTGlyph name="colonsign.tf" xMin="60" yMin="-240" xMax="1352" yMax="1720">
      <contour>
        <pt x="60" y="-240" on="1"/>
        <pt x="328" y="-240" on="1"/>
        <pt x="433" y="86" on="1"/>
        <pt x="486" y="60" on="0"/>
        <pt x="548" y="40" on="1"/>
        <pt x="458" y="-240" on="1"/>
        <pt x="726" y="-240" on="1"/>
        <pt x="800" y="-10" on="1"/>
        <pt x="892" y="-20" on="0"/>
        <pt x="996" y="-20" on="1"/>
        <pt x="1089" y="-20" on="0"/>
        <pt x="1274" y="2" on="0"/>
        <pt x="1352" y="20" on="1"/>
        <pt x="1352" y="396" on="1"/>
        <pt x="1282" y="381" on="0"/>
        <pt x="1119" y="360" on="0"/>
        <pt x="1030" y="360" on="1"/>
        <pt x="780" y="360" on="0"/>
        <pt x="558" y="557" on="0"/>
        <pt x="558" y="740" on="1"/>
        <pt x="558" y="923" on="0"/>
        <pt x="785" y="1120" on="0"/>
        <pt x="1050" y="1120" on="1"/>
        <pt x="1133" y="1120" on="0"/>
        <pt x="1282" y="1106" on="0"/>
        <pt x="1352" y="1092" on="1"/>
        <pt x="1352" y="1468" on="1"/>
        <pt x="1315" y="1475" on="0"/>
        <pt x="1276" y="1481" on="1"/>
        <pt x="1352" y="1720" on="1"/>
        <pt x="1084" y="1720" on="1"/>
        <pt x="1014" y="1500" on="1"/>
        <pt x="1009" y="1500" on="0"/>
        <pt x="1004" y="1500" on="1"/>
        <pt x="941" y="1500" on="0"/>
        <pt x="883" y="1496" on="1"/>
        <pt x="954" y="1720" on="1"/>
        <pt x="686" y="1720" on="1"/>
        <pt x="599" y="1448" on="1"/>
        <pt x="331" y="1369" on="0"/>
        <pt x="60" y="1000" on="0"/>
        <pt x="60" y="736" on="1"/>
        <pt x="60" y="433" on="0"/>
        <pt x="216" y="249" on="1"/>
      </contour>
    </TTGlyph>
    <TTGlyph name="comma" xMin="58" yMin="-360" xMax="634" yMax="492">
      <contour>
        <pt x="168" y="-360" on="1"/>
        <pt x="426" y="-360" on="1"/>
        <pt x="522" y="-253" on="0"/>
        <pt x="634" y="22" on="0"/>
        <pt x="634" y="160" on="1"/>
        <pt x="634" y="492" on="0"/>
        <pt x="342" y="492" on="1"/>
        <pt x="207" y="492" on="0"/>
        <pt x="58" y="355" on="0"/>
        <pt x="58" y="236" on="1"/>
        <pt x="58" y="129" on="0"/>
        <pt x="183" y="-4" on="0"/>
        <pt x="296" y="-17" on="1"/>
        <pt x="286" y="-99" on="0"/>
        <pt x="220" y="-265" on="0"/>
      </contour>
    </TTGlyph>
    <TTGlyph name="comma.tf" xMin="70" yMin="-360" xMax="646" yMax="492">
      <contour>
        <pt x="180" y="-360" on="1"/>
        <pt x="438" y="-360" on="1"/>
        <pt x="534" y="-253" on="0"/>
        <pt x="646" y="22" on="0"/>
        <pt x="646" y="160" on="1"/>
        <pt x="646" y="492" on="0"/>
        <pt x="354" y="492" on="1"/>
        <pt x="219" y="492" on="0"/>
        <pt x="70" y="355" on="0"/>
        <pt x="70" y="236" on="1"/>
        <pt x="70" y="129" on="0"/>
        <pt x="195" y="-4" on="0"/>
        <pt x="308" y="-17" on="1"/>
        <pt x="298" y="-99" on="0"/>
        <pt x="232" y="-265" on="0"/>
      </contour>
    </TTGlyph>
    <TTGlyph name="commaaccentcomb" xMin="352" yMin="-520" xMax="848" yMax="-104">
      <contour>
        <pt x="472" y="-520" on="1"/>
        <pt x="752" y="-520" on="1"/>
        <pt x="796" y="-475" on="0"/>
        <pt x="848" y="-343" on="0"/>
        <pt x="848" y="-282" on="1"/>
        <pt x="848" y="-198" on="0"/>
        <pt x="732" y="-104" on="0"/>
        <pt x="600" y="-104" on="1"/>
        <pt x="468" y="-104" on="0"/>
        <pt x="352" y="-175" on="0"/>
        <pt x="352" y="-240" on="1"/>
        <pt x="352" y="-294" on="0"/>
        <pt x="434" y="-363" on="0"/>
        <pt x="536" y="-372" on="1"/>
        <pt x="523" y="-432" on="0"/>
      </contour>
    </TTGlyph>
    <TTGlyph name="commaaccentcomb.alt" xMin="352" yMin="-520" xMax="848" yMax="-104">
      <contour>
        <pt x="472" y="-520" on="1"/>
        <pt x="752" y="-520" on="1"/>
        <pt x="796" y="-475" on="0"/>
        <pt x="848" y="-343" on="0"/>
        <pt x="848" y="-282" on="1"/>
        <pt x="848" y="-198" on="0"/>
        <pt x="732" y="-104" on="0"/>
        <pt x="600" y="-104" on="1"/>
        <pt x="468" y="-104" on="0"/>
        <pt x="352" y="-175" on="0"/>
        <pt x="352" y="-240" on="1"/>
        <pt x="352" y="-294" on="0"/>
        <pt x="434" y="-363" on="0"/>
        <pt x="536" y="-372" on="1"/>
        <pt x="523" y="-432" on="0"/>
      </contour>
    </TTGlyph>
    <TTGlyph name="commaaccentcomb.case" xMin="352" yMin="-520" xMax="848" yMax="-104">
      <contour>
        <pt x="472" y="-520" on="1"/>
        <pt x="752" y="-520" on="1"/>
        <pt x="796" y="-475" on="0"/>
        <pt x="848" y="-343" on="0"/>
        <pt x="848" y="-282" on="1"/>
        <pt x="848" y="-198" on="0"/>
        <pt x="732" y="-104" on="0"/>
        <pt x="600" y="-104" on="1"/>
        <pt x="468" y="-104" on="0"/>
        <pt x="352" y="-175" on="0"/>
        <pt x="352" y="-240" on="1"/>
        <pt x="352" y="-294" on="0"/>
        <pt x="434" y="-363" on="0"/>
        <pt x="536" y="-372" on="1"/>
        <pt x="523" y="-432" on="0"/>
      </contour>
    </TTGlyph>
    <TTGlyph name="commaaccentcomb.sc" xMin="352" yMin="-520" xMax="848" yMax="-104">
      <component glyphName="commaaccentcomb.case" x="0" y="0" flags="0x204"/>
    </TTGlyph>
    <TTGlyph name="commaturnedabovecomb" xMin="352" yMin="1212" xMax="848" yMax="1628">
      <contour>
        <pt x="600" y="1212" on="1"/>
        <pt x="732" y="1212" on="0"/>
        <pt x="848" y="1284" on="0"/>
        <pt x="848" y="1348" on="1"/>
        <pt x="848" y="1402" on="0"/>
        <pt x="766" y="1471" on="0"/>
        <pt x="664" y="1480" on="1"/>
        <pt x="677" y="1540" on="0"/>
        <pt x="728" y="1628" on="1"/>
        <pt x="448" y="1628" on="1"/>
        <pt x="405" y="1583" on="0"/>
        <pt x="352" y="1452" on="0"/>
        <pt x="352" y="1390" on="1"/>
        <pt x="352" y="1306" on="0"/>
        <pt x="468" y="1212" on="0"/>
      </contour>
    </TTGlyph>
    <TTGlyph name="commaturnedabovecomb.case" xMin="352" yMin="1570" xMax="848" yMax="1986">
      <contour>
        <pt x="600" y="1570" on="1"/>
        <pt x="732" y="1570" on="0"/>
        <pt x="848" y="1642" on="0"/>
        <pt x="848" y="1706" on="1"/>
        <pt x="848" y="1760" on="0"/>
        <pt x="766" y="1829" on="0"/>
        <pt x="664" y="1838" on="1"/>
        <pt x="677" y="1898" on="0"/>
        <pt x="728" y="1986" on="1"/>
        <pt x="448" y="1986" on="1"/>
        <pt x="405" y="1941" on="0"/>
        <pt x="352" y="1810" on="0"/>
        <pt x="352" y="1748" on="1"/>
        <pt x="352" y="1664" on="0"/>
        <pt x="468" y="1570" on="0"/>
      </contour>
    </TTGlyph>
    <TTGlyph name="commaturnedabovecomb.sc" xMin="352" yMin="1570" xMax="848" yMax="1986">
      <component glyphName="commaturnedabovecomb.case" x="0" y="0" flags="0x204"/>
    </TTGlyph>
    <TTGlyph name="commaturnedmod" xMin="352" yMin="1212" xMax="848" yMax="1628">
      <contour>
        <pt x="600" y="1212" on="1"/>
        <pt x="732" y="1212" on="0"/>
        <pt x="848" y="1284" on="0"/>
        <pt x="848" y="1348" on="1"/>
        <pt x="848" y="1402" on="0"/>
        <pt x="766" y="1471" on="0"/>
        <pt x="664" y="1480" on="1"/>
        <pt x="677" y="1540" on="0"/>
        <pt x="728" y="1628" on="1"/>
        <pt x="448" y="1628" on="1"/>
        <pt x="405" y="1583" on="0"/>
        <pt x="352" y="1452" on="0"/>
        <pt x="352" y="1390" on="1"/>
        <pt x="352" y="1306" on="0"/>
        <pt x="468" y="1212" on="0"/>
      </contour>
    </TTGlyph>
</ttFont>
